<?xml version="1.0" encoding="UTF-8"?>
<svg version="1.1" xmlns="http://www.w3.org/2000/svg" width="120" height="120">
<path d="M0 0 C39.6 0 79.2 0 120 0 C120 39.6 120 79.2 120 120 C80.4 120 40.8 120 0 120 C0 80.4 0 40.8 0 0 Z " fill="#FCFCFC" transform="translate(0,0)"/>
<path d="M0 0 C5.57446817 2.94741995 10.6824916 6.28076886 15.2734375 10.609375 C15.06377048 14.27854781 14.32354976 15.55573922 11.7734375 18.28515625 C7.80914663 21.44915811 4.24943665 20.9900825 -0.6015625 20.609375 C-6.75980309 20.35880302 -11.35679425 20.19999985 -16.37890625 24.23828125 C-19.70899537 27.38585021 -19.70899537 27.38585021 -20.7265625 31.609375 C-19.7365625 31.609375 -18.7465625 31.609375 -17.7265625 31.609375 C-17.1490625 30.84625 -16.5715625 30.083125 -15.9765625 29.296875 C-12.64618546 25.31892465 -9.29533679 24.02842464 -4.33203125 23.21875 C1.72719857 22.8092168 5.10274502 24.19462559 9.77734375 28.00390625 C11.2734375 29.609375 11.2734375 29.609375 12.2734375 32.609375 C16.09381658 31.33591531 16.25254552 29.98568363 18.2734375 26.609375 C20.48046875 24.5390625 20.48046875 24.5390625 23.0859375 22.484375 C24.05015625 21.71996094 25.014375 20.95554687 26.0078125 20.16796875 C26.78995117 19.55671143 26.78995117 19.55671143 27.58789062 18.93310547 C29.41662465 17.49692414 31.2282541 16.04073802 33.0390625 14.58203125 C34.30427495 13.56979663 35.56989444 12.55807055 36.8359375 11.546875 C37.44348877 11.05751465 38.05104004 10.5681543 38.67700195 10.06396484 C43.04436983 6.609375 43.04436983 6.609375 45.2734375 6.609375 C43.8519383 9.96694325 42.18543445 11.78478044 39.359375 14.0625 C38.59882812 14.68125 37.83828125 15.3 37.0546875 15.9375 C36.260625 16.57171875 35.4665625 17.2059375 34.6484375 17.859375 C33.84664063 18.5090625 33.04484375 19.15875 32.21875 19.828125 C30.24203602 21.42832203 28.26022791 23.02171943 26.2734375 24.609375 C26.68335937 25.55296875 27.09328125 26.4965625 27.515625 27.46875 C32.94202177 40.25882416 35.4870102 52.65328894 34.2734375 66.609375 C33.6134375 67.269375 32.9534375 67.929375 32.2734375 68.609375 C30.2934375 65.639375 28.3134375 62.669375 26.2734375 59.609375 C28.2734375 55.609375 28.2734375 55.609375 30.2734375 52.609375 C30.62637201 50.42909104 30.62637201 50.42909104 30.5859375 48.109375 C30.61107422 46.94921875 30.61107422 46.94921875 30.63671875 45.765625 C30.17941561 43.05130961 29.42760848 42.28213982 27.2734375 40.609375 C24.2926032 38.85782064 22.17178507 38.36750544 18.7265625 38.4140625 C17.88222656 38.42050781 17.03789063 38.42695312 16.16796875 38.43359375 C14.85892578 38.45873047 14.85892578 38.45873047 13.5234375 38.484375 C12.63527344 38.49339844 11.74710937 38.50242188 10.83203125 38.51171875 C8.64555692 38.53522923 6.45963656 38.56809001 4.2734375 38.609375 C4.2734375 37.949375 4.2734375 37.289375 4.2734375 36.609375 C5.2634375 36.279375 6.2534375 35.949375 7.2734375 35.609375 C7.2734375 34.619375 7.2734375 33.629375 7.2734375 32.609375 C3.34887983 28.95547648 -1.10066929 29.11583798 -6.1875 29.24609375 C-8.91661874 29.44212952 -8.91661874 29.44212952 -11.4140625 31.484375 C-12.90172679 33.47669847 -12.90172679 33.47669847 -12.7265625 35.609375 C-9.85931564 35.03592563 -8.865111 34.7479235 -6.7265625 32.609375 C-4.03816865 32.33945594 -1.43514314 32.52200143 1.2734375 32.609375 C1.6034375 33.269375 1.9334375 33.929375 2.2734375 34.609375 C-0.0365625 34.609375 -2.3465625 34.609375 -4.7265625 34.609375 C-3.7365625 35.269375 -2.7465625 35.929375 -1.7265625 36.609375 C-3.0465625 37.269375 -4.3665625 37.929375 -5.7265625 38.609375 C-5.2315625 40.589375 -5.2315625 40.589375 -4.7265625 42.609375 C-2.7465625 42.609375 -0.7665625 42.609375 1.2734375 42.609375 C1.2734375 43.269375 1.2734375 43.929375 1.2734375 44.609375 C-3.11117788 47.609375 -3.11117788 47.609375 -5.7265625 47.609375 C-5.7265625 55.529375 -5.7265625 63.449375 -5.7265625 71.609375 C-3.7465625 71.609375 -1.7665625 71.609375 0.2734375 71.609375 C0.21542969 70.64515625 0.15742187 69.6809375 0.09765625 68.6875 C0.05253906 67.42421875 0.00742187 66.1609375 -0.0390625 64.859375 C-0.09707031 63.60640625 -0.15507813 62.3534375 -0.21484375 61.0625 C0.2734375 57.609375 0.2734375 57.609375 2.66796875 55.15625 C5.2734375 53.609375 5.2734375 53.609375 7.2734375 53.609375 C7.2734375 59.549375 7.2734375 65.489375 7.2734375 71.609375 C9.5834375 71.609375 11.8934375 71.609375 14.2734375 71.609375 C14.2734375 67.649375 14.2734375 63.689375 14.2734375 59.609375 C16.2534375 59.609375 18.2334375 59.609375 20.2734375 59.609375 C22.171875 61.7265625 22.171875 61.7265625 23.6484375 64.484375 C24.15117188 65.38929687 24.65390625 66.29421875 25.171875 67.2265625 C26.2734375 69.609375 26.2734375 69.609375 26.2734375 71.609375 C28.2534375 71.609375 30.2334375 71.609375 32.2734375 71.609375 C32.14258883 79.72199246 29.63270005 84.55063097 24.2734375 90.609375 C16.95830429 97.31606613 10.72704262 99.09964079 0.83984375 98.9140625 C-9.50419555 98.03034392 -17.48624832 92.19119281 -24.46484375 84.7578125 C-25.59722362 83.41171587 -26.67113192 82.01661578 -27.7265625 80.609375 C-30.94943147 81.21544549 -32.90995148 82.27646426 -35.4765625 84.296875 C-36.1675 84.83054687 -36.8584375 85.36421875 -37.5703125 85.9140625 C-38.281875 86.47351563 -38.9934375 87.03296875 -39.7265625 87.609375 C-41.1385473 88.71952247 -42.55506848 89.82392999 -43.9765625 90.921875 C-44.91242187 91.65857422 -44.91242187 91.65857422 -45.8671875 92.41015625 C-47.82548093 93.67317323 -49.44967187 94.18119867 -51.7265625 94.609375 C-51.7265625 90.609375 -51.7265625 90.609375 -50.3972168 88.90185547 C-49.78789307 88.34900879 -49.17856934 87.79616211 -48.55078125 87.2265625 C-47.55594727 86.31197266 -47.55594727 86.31197266 -46.54101562 85.37890625 C-45.48817383 84.44111328 -45.48817383 84.44111328 -44.4140625 83.484375 C-43.72376953 82.85144531 -43.03347656 82.21851562 -42.32226562 81.56640625 C-39.53191195 79.02678001 -36.8728953 76.7069302 -33.7265625 74.609375 C-33.39961059 72.3063858 -33.39961059 72.3063858 -33.6015625 69.734375 C-33.75771622 66.24694185 -33.59639856 64.08871926 -32.7265625 60.609375 C-28.4365625 60.609375 -24.1465625 60.609375 -19.7265625 60.609375 C-18.7365625 63.579375 -17.7465625 66.549375 -16.7265625 69.609375 C-15.0765625 69.609375 -13.4265625 69.609375 -11.7265625 69.609375 C-15.46765046 56.52681425 -15.46765046 56.52681425 -20.02734375 43.7109375 C-20.7265625 41.609375 -20.7265625 41.609375 -20.7265625 38.609375 C-25.1815625 39.104375 -25.1815625 39.104375 -29.7265625 39.609375 C-32.0365625 45.879375 -34.3465625 52.149375 -36.7265625 58.609375 C-37.7165625 58.279375 -38.7065625 57.949375 -39.7265625 57.609375 C-43.03683038 42.80183742 -44.34918072 25.81247845 -36.37109375 12.31640625 C-27.66714473 -0.1211402 -14.70634937 -5.48790396 0 0 Z " fill="#26282D" transform="translate(63.7265625,11.390625)"/>
<path d="M0 0 C0 5.94 0 11.88 0 18 C2.31 18 4.62 18 7 18 C7 14.04 7 10.08 7 6 C8.98 6 10.96 6 13 6 C14.8984375 8.1171875 14.8984375 8.1171875 16.375 10.875 C16.87773438 11.77992187 17.38046875 12.68484375 17.8984375 13.6171875 C19 16 19 16 19 18 C20.98 18 22.96 18 25 18 C24.86915133 26.11261746 22.35926255 30.94125597 17 37 C9.68486679 43.70669113 3.45360512 45.49026579 -6.43359375 45.3046875 C-17.37775918 44.36969856 -25.99483121 37.74157798 -33.125 29.6875 C-35 27 -35 27 -35 24 C-31.12318398 20.31164031 -26.8805848 17.59578845 -21.4375 17.625 C-20.303125 17.74875 -19.16875 17.8725 -18 18 C-18 16.02 -18 14.04 -18 12 C-17.01 11.67 -16.02 11.34 -15 11 C-15 10.34 -15 9.68 -15 9 C-14.34 9 -13.68 9 -13 9 C-13 11.97 -13 14.94 -13 18 C-11.02 18 -9.04 18 -7 18 C-7.05800781 17.03578125 -7.11601563 16.0715625 -7.17578125 15.078125 C-7.22089844 13.81484375 -7.26601563 12.5515625 -7.3125 11.25 C-7.37050781 9.99703125 -7.42851563 8.7440625 -7.48828125 7.453125 C-7 4 -7 4 -4.60546875 1.546875 C-2 0 -2 0 0 0 Z " fill="#202126" transform="translate(71,65)"/>
<path d="M0 0 C2.46565546 1.07813832 3.94104301 2.21928044 6 4 C5.67 5.32 5.34 6.64 5 8 C4.01 8 3.02 8 2 8 C2 8.66 2 9.32 2 10 C2.66 9.67 3.32 9.34 4 9 C6.7447404 8.82169418 9.44079052 8.72232725 12.1875 8.6875 C12.93064453 8.65849609 13.67378906 8.62949219 14.43945312 8.59960938 C20.09845594 8.53513344 23.35122999 9.75008167 28 13 C29.72617094 16.45234188 29.50110436 20.22544766 29 24 C27 27.0625 27 27.0625 25 29 C26.33488128 32.59391114 27.96022723 35.75490696 30 39 C31.20495909 38.01592689 31.20495909 38.01592689 31.11352539 36.14233398 C31.10828857 35.35157471 31.10305176 34.56081543 31.09765625 33.74609375 C31.09443359 32.89208984 31.09121094 32.03808594 31.08789062 31.15820312 C31.07951172 30.26037109 31.07113281 29.36253906 31.0625 28.4375 C31.05798828 27.53580078 31.05347656 26.63410156 31.04882812 25.70507812 C31.03700225 23.46998686 31.0205222 21.23502563 31 19 C33.5304183 22.79562745 33.29505701 25.85694114 33.25 30.25 C33.26160156 31.35794922 33.26160156 31.35794922 33.2734375 32.48828125 C33.25626962 37.35537631 32.53932464 41.38202607 31 46 C30.67 45.01 30.34 44.02 30 43 C28.02 43 26.04 43 24 43 C23.63648438 42.21753906 23.27296875 41.43507812 22.8984375 40.62890625 C22.39570312 39.61699219 21.89296875 38.60507813 21.375 37.5625 C20.88773438 36.55316406 20.40046875 35.54382813 19.8984375 34.50390625 C18.17195658 31.69262157 18.17195658 31.69262157 14.7890625 31.15234375 C13.86867188 31.10207031 12.94828125 31.05179688 12 31 C12 34.96 12 38.92 12 43 C9.69 43 7.38 43 5 43 C5 37.06 5 31.12 5 25 C-1.21893127 28.15730538 -1.21893127 28.15730538 -1.8046875 32.453125 C-1.82789062 33.70609375 -1.85109375 34.9590625 -1.875 36.25 C-1.93300781 38.14492187 -1.93300781 38.14492187 -1.9921875 40.078125 C-1.99476562 41.04234375 -1.99734375 42.0065625 -2 43 C-3.98 43 -5.96 43 -8 43 C-8.14492719 39.06288563 -8.23394537 35.12645375 -8.3125 31.1875 C-8.3753418 29.50817383 -8.3753418 29.50817383 -8.43945312 27.79492188 C-8.45556641 26.72177734 -8.47167969 25.64863281 -8.48828125 24.54296875 C-8.51446533 23.55321045 -8.54064941 22.56345215 -8.56762695 21.54370117 C-8 19 -8 19 -5.53198242 17.21606445 C-4.69642822 16.81476318 -3.86087402 16.41346191 -3 16 C-2.67 15.67 -2.34 15.34 -2 15 C-2.78375 15.04125 -3.5675 15.0825 -4.375 15.125 C-7 15 -7 15 -9 13 C-8.625 11.0625 -8.625 11.0625 -8 9 C-8 8.01 -8 7.02 -8 6 C-8 5.67 -8 5.34 -8 5 C-8.33 5 -8.66 5 -9 5 C-9.433125 5.515625 -9.86625 6.03125 -10.3125 6.5625 C-10.869375 7.036875 -11.42625 7.51125 -12 8 C-14.1875 7.6875 -14.1875 7.6875 -16 7 C-13.23430517 -1.08433873 -7.6815756 -0.94104772 0 0 Z " fill="#EFF0F0" transform="translate(66,40)"/>
<path d="M0 0 C0.495 0.99 0.495 0.99 1 2 C-1.31 2 -3.62 2 -6 2 C-5.01 2.66 -4.02 3.32 -3 4 C-4.98 4.99 -4.98 4.99 -7 6 C-6.505 7.98 -6.505 7.98 -6 10 C-4.02 10 -2.04 10 0 10 C0 10.66 0 11.32 0 12 C-4.38461538 15 -4.38461538 15 -7 15 C-7 19.95 -7 24.9 -7 30 C-7.66 30 -8.32 30 -9 30 C-9 30.66 -9 31.32 -9 32 C-9.99 32.495 -9.99 32.495 -11 33 C-11.65772428 36.02934491 -11.65772428 36.02934491 -12 39 C-12.66386719 39.09796875 -13.32773437 39.1959375 -14.01171875 39.296875 C-19.45058506 40.21790929 -22.86795107 41.12620413 -27 45 C-27.66 45 -28.32 45 -29 45 C-29 45.66 -29 46.32 -29 47 C-30.52560547 47.82951172 -30.52560547 47.82951172 -32.08203125 48.67578125 C-36.52959727 51.21580826 -40.40242946 54.33237305 -44.36914062 57.55273438 C-49.41578196 61.55524302 -49.41578196 61.55524302 -53 62 C-53 58 -53 58 -51.6706543 56.29248047 C-51.06133057 55.73963379 -50.45200684 55.18678711 -49.82421875 54.6171875 C-48.82938477 53.70259766 -48.82938477 53.70259766 -47.81445312 52.76953125 C-47.11255859 52.14433594 -46.41066406 51.51914063 -45.6875 50.875 C-44.99720703 50.24207031 -44.30691406 49.60914063 -43.59570312 48.95703125 C-40.80534945 46.41740501 -38.1463328 44.0975552 -35 42 C-34.67304809 39.6970108 -34.67304809 39.6970108 -34.875 37.125 C-35.03115372 33.63756685 -34.86983606 31.47934426 -34 28 C-29.71 28 -25.42 28 -21 28 C-20.01 30.97 -19.02 33.94 -18 37 C-16.35 37 -14.7 37 -13 37 C-16.78374021 23.93253812 -16.78374021 23.93253812 -21 11 C-19.01975815 9.1405046 -17.02027279 7.31512368 -15 5.5 C-14.44699219 4.97535156 -13.89398438 4.45070313 -13.32421875 3.91015625 C-8.80833453 -0.08666082 -5.98884661 -0.57787116 0 0 Z " fill="#29A6C8" transform="translate(65,44)"/>
<path d="M0 0 C2.6978289 1.15557745 3.8861536 2.27907365 5.68359375 4.578125 C6.19535156 5.21878906 6.70710938 5.85945312 7.234375 6.51953125 C7.60949219 7.01324219 7.98460938 7.50695312 8.37109375 8.015625 C4.78422244 11.69548927 1.05658944 15.08873652 -2.87890625 18.390625 C-3.44520752 18.86959229 -4.01150879 19.34855957 -4.5949707 19.84204102 C-8.59545171 23.20624911 -12.68967386 26.41035623 -16.921875 29.48046875 C-18.80203779 31.17132453 -19.65415967 32.7012267 -20.62890625 35.015625 C-21.61890625 35.015625 -22.60890625 35.015625 -23.62890625 35.015625 C-24.97313964 33.35773715 -26.30509108 31.68986183 -27.62890625 30.015625 C-31.54540927 26.6750783 -35.17252348 26.56083065 -40.12890625 26.73046875 C-45.22649863 27.31191288 -48.54572936 28.82135304 -52.06640625 32.703125 C-52.58203125 33.46625 -53.09765625 34.229375 -53.62890625 35.015625 C-54.94890625 34.685625 -56.26890625 34.355625 -57.62890625 34.015625 C-56.05495146 28.50678323 -52.53210758 26.0616907 -47.98828125 22.859375 C-43.64858368 21.30743017 -38.90535975 22.06449137 -34.359375 22.35742188 C-30.16692585 22.49344976 -27.47675264 22.36491478 -24.12109375 19.69140625 C-21.46241468 17.20811175 -21.46241468 17.20811175 -20.62890625 14.015625 C-19.04635865 13.15554478 -17.46087242 12.30055367 -15.86328125 11.46875 C-11.87441918 8.87459495 -8.62388734 5.32577077 -5.27734375 1.96484375 C-2.62890625 0.015625 -2.62890625 0.015625 0 0 Z " fill="#3288E4" transform="translate(99.62890625,8.984375)"/>
<path d="M0 0 C2.46565546 1.07813832 3.94104301 2.21928044 6 4 C5.67 5.32 5.34 6.64 5 8 C4.01 8 3.02 8 2 8 C2 8.66 2 9.32 2 10 C2.66 9.67 3.32 9.34 4 9 C6.88370333 8.92805131 9.74239664 8.90708292 12.625 8.9375 C13.42679688 8.94201172 14.22859375 8.94652344 15.0546875 8.95117188 C17.03649006 8.96296832 19.01825433 8.98090395 21 9 C21 9.33 21 9.66 21 10 C16.05 10 11.1 10 6 10 C6 20.89 6 31.78 6 43 C5.67 43 5.34 43 5 43 C5 37.06 5 31.12 5 25 C-1.21893127 28.15730538 -1.21893127 28.15730538 -1.8046875 32.453125 C-1.82789062 33.70609375 -1.85109375 34.9590625 -1.875 36.25 C-1.93300781 38.14492187 -1.93300781 38.14492187 -1.9921875 40.078125 C-1.99476562 41.04234375 -1.99734375 42.0065625 -2 43 C-3.98 43 -5.96 43 -8 43 C-8.14492719 39.06288563 -8.23394537 35.12645375 -8.3125 31.1875 C-8.3753418 29.50817383 -8.3753418 29.50817383 -8.43945312 27.79492188 C-8.45556641 26.72177734 -8.47167969 25.64863281 -8.48828125 24.54296875 C-8.51446533 23.55321045 -8.54064941 22.56345215 -8.56762695 21.54370117 C-8 19 -8 19 -5.53198242 17.21606445 C-4.69642822 16.81476318 -3.86087402 16.41346191 -3 16 C-2.67 15.67 -2.34 15.34 -2 15 C-2.78375 15.04125 -3.5675 15.0825 -4.375 15.125 C-7 15 -7 15 -9 13 C-8.625 11.0625 -8.625 11.0625 -8 9 C-8 8.01 -8 7.02 -8 6 C-8 5.67 -8 5.34 -8 5 C-8.33 5 -8.66 5 -9 5 C-9.433125 5.515625 -9.86625 6.03125 -10.3125 6.5625 C-10.869375 7.036875 -11.42625 7.51125 -12 8 C-14.1875 7.6875 -14.1875 7.6875 -16 7 C-13.23430517 -1.08433873 -7.6815756 -0.94104772 0 0 Z " fill="#3D9ED8" transform="translate(66,40)"/>
<path d="M0 0 C-1.4214992 3.35756825 -3.08800305 5.17540544 -5.9140625 7.453125 C-6.67460938 8.071875 -7.43515625 8.690625 -8.21875 9.328125 C-9.0128125 9.96234375 -9.806875 10.5965625 -10.625 11.25 C-11.82769531 12.22453125 -11.82769531 12.22453125 -13.0546875 13.21875 C-15.03140148 14.81894703 -17.01320959 16.41234443 -19 18 C-18.59007812 18.94359375 -18.18015625 19.8871875 -17.7578125 20.859375 C-12.33141573 33.64944916 -9.7864273 46.04391394 -11 60 C-11.66 60.66 -12.32 61.32 -13 62 C-14.98 59.03 -16.96 56.06 -19 53 C-17 49 -17 49 -15 46 C-14.64706549 43.81971604 -14.64706549 43.81971604 -14.6875 41.5 C-14.67074219 40.7265625 -14.65398437 39.953125 -14.63671875 39.15625 C-15.09402189 36.44193461 -15.84582902 35.67276482 -18 34 C-20.9808343 32.24844564 -23.10165243 31.75813044 -26.546875 31.8046875 C-27.39121094 31.81113281 -28.23554687 31.81757812 -29.10546875 31.82421875 C-30.41451172 31.84935547 -30.41451172 31.84935547 -31.75 31.875 C-33.08224609 31.88853516 -33.08224609 31.88853516 -34.44140625 31.90234375 C-36.62788058 31.92585423 -38.81380094 31.95871501 -41 32 C-41 31.34 -41 30.68 -41 30 C-40.01 29.67 -39.02 29.34 -38 29 C-38 28.01 -38 27.02 -38 26 C-42.18414355 22.49071832 -46.76419562 22.33080246 -52 22 C-52 21.67 -52 21.34 -52 21 C-48.535 20.505 -48.535 20.505 -45 20 C-44.67 19.01 -44.34 18.02 -44 17 C-39.39860359 18.48868707 -36.49772906 20.74629855 -33 24 C-33 24.66 -33 25.32 -33 26 C-29.17962092 24.72654031 -29.02089198 23.37630863 -27 20 C-24.79296875 17.9296875 -24.79296875 17.9296875 -22.1875 15.875 C-21.22328125 15.11058594 -20.2590625 14.34617187 -19.265625 13.55859375 C-18.74419922 13.15108887 -18.22277344 12.74358398 -17.68554688 12.32373047 C-15.85681285 10.88754914 -14.0451834 9.43136302 -12.234375 7.97265625 C-10.96916255 6.96042163 -9.70354306 5.94869555 -8.4375 4.9375 C-7.5261731 4.20345947 -7.5261731 4.20345947 -6.59643555 3.45458984 C-2.22906767 0 -2.22906767 0 0 0 Z " fill="#3D90CE" transform="translate(109,18)"/>
<path d="M0 0 C0.33 0.66 0.66 1.32 1 2 C-1.31 2 -3.62 2 -6 2 C-5.01 2.66 -4.02 3.32 -3 4 C-4.98 4.99 -4.98 4.99 -7 6 C-6.67 7.32 -6.34 8.64 -6 10 C-4.02 10 -2.04 10 0 10 C0 10.66 0 11.32 0 12 C-4.38461538 15 -4.38461538 15 -7 15 C-7 19.95 -7 24.9 -7 30 C-7.66 30 -8.32 30 -9 30 C-9 30.66 -9 31.32 -9 32 C-11 33.625 -11 33.625 -13 35 C-13.391875 33.783125 -13.78375 32.56625 -14.1875 31.3125 C-15.9052194 26.05928048 -18.03953582 20.99974375 -20.20703125 15.91796875 C-21 13 -21 13 -20.45703125 10.91015625 C-15.2001368 4.0184099 -8.88725835 -1.50915708 0 0 Z " fill="#31A1CF" transform="translate(65,44)"/>
<path d="M0 0 C0.99 0 1.98 0 3 0 C9.38814755 13.70282031 12.10769231 25.81147326 11 41 C10.34 41.66 9.68 42.32 9 43 C7.02 40.03 5.04 37.06 3 34 C5 30 5 30 7 27 C7.35293451 24.81971604 7.35293451 24.81971604 7.3125 22.5 C7.32925781 21.7265625 7.34601563 20.953125 7.36328125 20.15625 C6.68100523 16.10661169 3.16471669 14.2916914 0 12 C0.66 11.01 1.32 10.02 2 9 C-0.64 8.01 -3.28 7.02 -6 6 C-4 4 -2 2 0 0 Z " fill="#37393F" transform="translate(87,37)"/>
<path d="M0 0 C4.69179592 2.14891416 7.71587311 5.02033584 10.546875 9.3125 C10.216875 10.3025 9.886875 11.2925 9.546875 12.3125 C8.556875 12.3125 7.566875 12.3125 6.546875 12.3125 C5.20264161 10.65461215 3.87069017 8.98673683 2.546875 7.3125 C-1.36962802 3.9719533 -4.99674223 3.85770565 -9.953125 4.02734375 C-15.05071738 4.60878788 -18.36994811 6.11822804 -21.890625 10 C-22.40625 10.763125 -22.921875 11.52625 -23.453125 12.3125 C-24.773125 11.9825 -26.093125 11.6525 -27.453125 11.3125 C-25.88975054 5.84068939 -22.37694626 3.12881321 -17.6484375 0.19140625 C-12.32963564 -1.93800731 -5.45014418 -1.52742894 0 0 Z " fill="#EBEDEF" transform="translate(69.453125,31.6875)"/>
<path d="M0 0 C0.33 0.66 0.66 1.32 1 2 C-1.31 2 -3.62 2 -6 2 C-5.01 2.66 -4.02 3.32 -3 4 C-4.98 4.99 -4.98 4.99 -7 6 C-6.67 7.32 -6.34 8.64 -6 10 C-4.02 10 -2.04 10 0 10 C0 10.66 0 11.32 0 12 C-5.89489786 15.37422887 -12.54450809 14.32420347 -19 13 C-19.33 13.99 -19.66 14.98 -20 16 C-20.33 14.35 -20.66 12.7 -21 11 C-19.01975815 9.1405046 -17.02027279 7.31512368 -15 5.5 C-14.44699219 4.97535156 -13.89398438 4.45070313 -13.32421875 3.91015625 C-8.80833453 -0.08666082 -5.98884661 -0.57787116 0 0 Z " fill="#3996CA" transform="translate(65,44)"/>
<path d="M0 0 C1.98 0 3.96 0 6 0 C6 7.59 6 15.18 6 23 C4.02 23 2.04 23 0 23 C0 15.41 0 7.82 0 0 Z " fill="#F5F9FB" transform="translate(58,60)"/>
<path d="M0 0 C0.66 0 1.32 0 2 0 C2.495 1.485 2.495 1.485 3 3 C1.54550599 4.0055761 0.08627557 5.00430435 -1.375 6 C-2.18710937 6.556875 -2.99921875 7.11375 -3.8359375 7.6875 C-6 9 -6 9 -8 9 C-8 9.66 -8 10.32 -8 11 C-9.01707031 11.55300781 -10.03414062 12.10601562 -11.08203125 12.67578125 C-15.52959727 15.21580826 -19.40242946 18.33237305 -23.36914062 21.55273438 C-28.41578196 25.55524302 -28.41578196 25.55524302 -32 26 C-32.33 25.01 -32.66 24.02 -33 23 C-32.46632813 22.731875 -31.93265625 22.46375 -31.3828125 22.1875 C-26.0021682 19.35754175 -21.44759762 16.06691142 -16.76953125 12.19921875 C-12.53177261 8.83411562 -8.06204167 5.82711764 -3.58984375 2.78515625 C-1.17663279 1.23693086 -1.17663279 1.23693086 0 0 Z " fill="#288698" transform="translate(44,80)"/>
<path d="M0 0 C2.6978289 1.15557745 3.8861536 2.27907365 5.68359375 4.578125 C6.19535156 5.21878906 6.70710938 5.85945312 7.234375 6.51953125 C7.60949219 7.01324219 7.98460937 7.50695312 8.37109375 8.015625 C7.38109375 8.015625 6.39109375 8.015625 5.37109375 8.015625 C3.68359375 6.015625 3.68359375 6.015625 2.37109375 4.015625 C-2.03732618 4.53518878 -4.2847903 6.0256964 -7.62890625 8.890625 C-8.57378906 9.69113281 -9.51867187 10.49164063 -10.4921875 11.31640625 C-11.24556396 11.96536865 -11.24556396 11.96536865 -12.01416016 12.62744141 C-13.74511633 14.11552982 -15.48832047 15.58825655 -17.234375 17.05859375 C-20.37298249 19.70265849 -23.50284873 22.35673665 -26.62890625 25.015625 C-27.94890625 24.355625 -29.26890625 23.695625 -30.62890625 23.015625 C-29.88640625 22.5825 -29.14390625 22.149375 -28.37890625 21.703125 C-23.33809832 18.8451422 -23.33809832 18.8451422 -20.62890625 14.015625 C-19.04635865 13.15554478 -17.46087242 12.30055367 -15.86328125 11.46875 C-11.87441918 8.87459495 -8.62388734 5.32577077 -5.27734375 1.96484375 C-2.62890625 0.015625 -2.62890625 0.015625 0 0 Z " fill="#72A9EE" transform="translate(99.62890625,8.984375)"/>
<path d="M0 0 C1.258125 -0.04125 2.51625 -0.0825 3.8125 -0.125 C4.52019531 -0.14820313 5.22789063 -0.17140625 5.95703125 -0.1953125 C8 0 8 0 11 2 C11.3125 5 11.3125 5 11 8 C9 10 9 10 6.8359375 10.1953125 C4.55729167 10.13020833 2.27864583 10.06510417 0 10 C0 6.7 0 3.4 0 0 Z " fill="#232C35" transform="translate(78,55)"/>
<path d="M0 0 C2.46565546 1.07813832 3.94104301 2.21928044 6 4 C5.67 5.32 5.34 6.64 5 8 C4.01 8 3.02 8 2 8 C2 7.34 2 6.68 2 6 C-1.73088229 4.75637257 -5.09422642 4.49947019 -9 5 C-10.73026102 6.47890069 -10.73026102 6.47890069 -12 8 C-14.1875 7.6875 -14.1875 7.6875 -16 7 C-13.23430517 -1.08433873 -7.6815756 -0.94104772 0 0 Z " fill="#E8EDF1" transform="translate(66,40)"/>
<path d="M0 0 C-1.38674193 3.2246349 -2.91533291 5.04008037 -5.6328125 7.2421875 C-6.35726562 7.83386719 -7.08171875 8.42554688 -7.828125 9.03515625 C-8.58609375 9.64230469 -9.3440625 10.24945313 -10.125 10.875 C-10.85976562 11.47441406 -11.59453125 12.07382812 -12.3515625 12.69140625 C-16.65861771 16.18709719 -21.03559216 19.535315 -25.56201172 22.74267578 C-26.03654785 23.15759277 -26.51108398 23.57250977 -27 24 C-27 24.66 -27 25.32 -27 26 C-27.66 26 -28.32 26 -29 26 C-28.76487885 22.36215338 -28.10655638 21.10906951 -25.515625 18.45703125 C-24.43807281 17.56212072 -23.34872845 16.68128039 -22.25 15.8125 C-21.67596436 15.34416748 -21.10192871 14.87583496 -20.51049805 14.39331055 C-18.68535224 12.91359002 -16.84467327 11.45527978 -15 10 C-14.38785645 9.51144531 -13.77571289 9.02289063 -13.14501953 8.51953125 C-11.37414166 7.10850333 -9.5959067 5.70764946 -7.8125 4.3125 C-7.26045898 3.87848877 -6.70841797 3.44447754 -6.13964844 2.99731445 C-2.23781897 0 -2.23781897 0 0 0 Z " fill="#366FAE" transform="translate(109,18)"/>
<path d="M0 0 C4.29 0 8.58 0 13 0 C13.99 2.97 14.98 5.94 16 9 C17.65 9 19.3 9 21 9 C21.33 8.34 21.66 7.68 22 7 C22 8.32 22 9.64 22 11 C19.125 11.1875 19.125 11.1875 16 11 C14 8 14 8 14 5 C13.34 5 12.68 5 12 5 C12 5.66 12 6.32 12 7 C10.25 8.7265625 10.25 8.7265625 8 10.625 C7.2575 11.25664063 6.515 11.88828125 5.75 12.5390625 C5.1725 13.02117187 4.595 13.50328125 4 14 C4 9.31297988 6.91053807 7.41128088 10 4 C6.7 3.67 3.4 3.34 0 3 C0 2.01 0 1.02 0 0 Z " fill="#77A8B7" transform="translate(31,72)"/>
<path d="M0 0 C1.51400391 0.01740234 1.51400391 0.01740234 3.05859375 0.03515625 C4.07050781 0.04417969 5.08242188 0.05320312 6.125 0.0625 C7.29869141 0.07990234 7.29869141 0.07990234 8.49609375 0.09765625 C5.8283417 3.65465898 3.21358425 6.61932925 -0.50390625 9.09765625 C-1.49390625 8.76765625 -2.48390625 8.43765625 -3.50390625 8.09765625 C-3.54632348 5.7647085 -3.54483562 3.43063058 -3.50390625 1.09765625 C-2.50390625 0.09765625 -2.50390625 0.09765625 0 0 Z " fill="#2A2F35" transform="translate(33.50390625,74.90234375)"/>
<path d="M0 0 C2.96527758 2.4453385 3.55582214 4.44602347 4.1875 8.1875 C4.34605469 9.08855469 4.50460938 9.98960938 4.66796875 10.91796875 C4.83232422 11.94857422 4.83232422 11.94857422 5 13 C2.36 13 -0.28 13 -3 13 C-2.52060632 8.28596212 -2.03165952 4.33420699 0 0 Z " fill="#35363A" transform="translate(37,56)"/>
<path d="M0 0 C2.05164237 3.46214649 2 4.59389235 2 9 C-1.3 8.34 -4.6 7.68 -8 7 C-8 6.01 -8 5.02 -8 4 C-3.77142857 0 -3.77142857 0 0 0 Z " fill="#2B303A" transform="translate(90,37)"/>
<path d="M0 0 C3.08384269 3.08384269 4.09108903 6.78292042 5 11 C4.96288779 13.81588927 4.55584426 16.22077869 4 19 C3.67 19 3.34 19 3 19 C2.92523438 18.38511719 2.85046875 17.77023438 2.7734375 17.13671875 C2.36487231 14.62524452 1.91107487 12.37891772 1 10 C-1.95234447 7.85334283 -1.95234447 7.85334283 -5 7 C-3.625 5 -3.625 5 -2 3 C-1.34 3 -0.68 3 0 3 C0 2.01 0 1.02 0 0 Z " fill="#3A566F" transform="translate(92,43)"/>
<path d="M0 0 C3.3 0.33 6.6 0.66 10 1 C8.88333826 4.34998521 8.25305075 4.79340222 5.4375 6.6875 C4.79683594 7.12449219 4.15617187 7.56148438 3.49609375 8.01171875 C3.00238281 8.33785156 2.50867187 8.66398437 2 9 C0.50178941 5.62902617 0 3.79557881 0 0 Z " fill="#0E1216" transform="translate(47,60)"/>
<path d="M0 0 C2.5304183 3.79562745 2.29505701 6.85694114 2.25 11.25 C2.25773437 11.98863281 2.26546875 12.72726563 2.2734375 13.48828125 C2.25626962 18.35537631 1.53932464 22.38202607 0 27 C-0.33 26.01 -0.66 25.02 -1 24 C-2.98 24 -4.96 24 -7 24 C-7.33 22.68 -7.66 21.36 -8 20 C-6.02 20.66 -4.04 21.32 -2 22 C-1.67 21.34 -1.34 20.68 -1 20 C-0.67 19.67 -0.34 19.34 0 19 C0.08651611 17.58429877 0.10704904 16.164405 0.09765625 14.74609375 C0.09443359 13.89208984 0.09121094 13.03808594 0.08789062 12.15820312 C0.07951172 11.26037109 0.07113281 10.36253906 0.0625 9.4375 C0.05798828 8.53580078 0.05347656 7.63410156 0.04882812 6.70507812 C0.03700225 4.46998686 0.0205222 2.23502563 0 0 Z " fill="#B7B7B9" transform="translate(97,59)"/>
<path d="M0 0 C1.67542976 0.28604898 3.34385343 0.61781233 5 1 C5.38218767 2.65614657 5.71395102 4.32457024 6 6 C5 7 5 7 2.5625 7.1875 C0 7 0 7 -2 5 C-1.46428571 1.46428571 -1.46428571 1.46428571 0 0 Z " fill="#E7F2F8" transform="translate(59,48)"/>
<path d="M0 0 C0.66 0.33 1.32 0.66 2 1 C-1.41940033 7.51314349 -7.01815804 10.93647287 -13 15 C-13.66 14.67 -14.32 14.34 -15 14 C-10.05 9.38 -5.1 4.76 0 0 Z " fill="#5BC2D2" transform="translate(27,88)"/>
<path d="M0 0 C1.17426264 2.34852528 1.11508173 3.73774065 1.09765625 6.3515625 C1.09443359 7.20234375 1.09121094 8.053125 1.08789062 8.9296875 C1.07951172 9.81914063 1.07113281 10.70859375 1.0625 11.625 C1.05798828 12.5221875 1.05347656 13.419375 1.04882812 14.34375 C1.03702591 16.56256648 1.02056155 18.78125018 1 21 C0.67 21 0.34 21 0 21 C0 15.06 0 9.12 0 3 C-2.31 4.32 -4.62 5.64 -7 7 C-6.61402985 4.20171644 -6.19863427 3.1794116 -4.0625 1.25 C-2 0 -2 0 0 0 Z " fill="#446D82" transform="translate(71,62)"/>
<path d="M0 0 C6.93 0.495 6.93 0.495 14 1 C13.01 1.495 13.01 1.495 12 2 C11.67 2.99 11.34 3.98 11 5 C7.7 4.34 4.4 3.68 1 3 C0.67 3.66 0.34 4.32 0 5 C0 3.35 0 1.7 0 0 Z " fill="#1F6183" transform="translate(46,57)"/>
<path d="M0 0 C0 2.97 0 5.94 0 9 C-0.66 7.68 -1.32 6.36 -2 5 C-3.65 6.98 -5.3 8.96 -7 11 C-7.66 9.68 -8.32 8.36 -9 7 C-7.69013727 5.83037314 -6.3770374 4.66437056 -5.0625 3.5 C-3.96615234 2.52546875 -3.96615234 2.52546875 -2.84765625 1.53125 C-1 0 -1 0 0 0 Z " fill="#4CA8CF" transform="translate(58,62)"/>
<path d="M0 0 C0.33 0.99 0.66 1.98 1 3 C-2.63 5.31 -6.26 7.62 -10 10 C-10.33 9.01 -10.66 8.02 -11 7 C-9.54634731 5.82750647 -8.08692581 4.66216184 -6.625 3.5 C-5.40683594 2.52546875 -5.40683594 2.52546875 -4.1640625 1.53125 C-2 0 -2 0 0 0 Z " fill="#1E748C" transform="translate(46,80)"/>
<path d="M0 0 C0.33 0 0.66 0 1 0 C1 4.62 1 9.24 1 14 C-0.98 14 -2.96 14 -5 14 C-5 11.03 -5 8.06 -5 5 C-4.67 5 -4.34 5 -4 5 C-4 6.98 -4 8.96 -4 11 C-2.68 11 -1.36 11 0 11 C0 7.37 0 3.74 0 0 Z " fill="#C8C8C9" transform="translate(63,69)"/>
<path d="M0 0 C0.66 0.33 1.32 0.66 2 1 C0.57063361 2.81892117 -0.86876965 4.62995881 -2.3125 6.4375 C-3.51326172 7.95150391 -3.51326172 7.95150391 -4.73828125 9.49609375 C-7 12 -7 12 -10 13 C-7.36138096 7.51979122 -4.99411984 3.64435772 0 0 Z " fill="#4BB1C7" transform="translate(36,80)"/>
<path d="M0 0 C0.33 0.66 0.66 1.32 1 2 C1.66 2.33 2.32 2.66 3 3 C-1.455 6.96 -1.455 6.96 -6 11 C-7.32 10.34 -8.64 9.68 -10 9 C-9.2575 8.566875 -8.515 8.13375 -7.75 7.6875 C-2.70919207 4.8295172 -2.70919207 4.8295172 0 0 Z " fill="#5794CD" transform="translate(79,23)"/>
<path d="M0 0 C4.29 0 8.58 0 13 0 C13.33 0.99 13.66 1.98 14 3 C7.07 2.505 7.07 2.505 0 2 C0 1.34 0 0.68 0 0 Z " fill="#C1C2C2" transform="translate(31,72)"/>
<path d="M0 0 C0 0.99 0 1.98 0 3 C-2.25 5.25 -2.25 5.25 -5 7 C-7.3125 6.75 -7.3125 6.75 -9 6 C-9 5.34 -9 4.68 -9 4 C-2.25 0 -2.25 0 0 0 Z " fill="#3D959D" transform="translate(20,99)"/>
<path d="M0 0 C0 0.66 0 1.32 0 2 C-1.74814612 3.39138161 -3.59672568 4.56294846 -5.46875 5.78125 C-5.9740625 6.1834375 -6.479375 6.585625 -7 7 C-7 7.66 -7 8.32 -7 9 C-7.66 9 -8.32 9 -9 9 C-8.70460812 5.45529741 -8.22373481 4.21784705 -5.625 1.6875 C-3 0 -3 0 0 0 Z " fill="#286599" transform="translate(89,35)"/>
<path d="M0 0 C-1.051875 0.5775 -2.10375 1.155 -3.1875 1.75 C-6.3786482 3.5661006 -9.19489535 5.61991121 -12 8 C-9.3044452 2.41635078 -6.81609829 -2.43432082 0 0 Z " fill="#5798EC" transform="translate(101,12)"/>
<path d="M0 0 C1.98 0 3.96 0 6 0 C6.33 1.32 6.66 2.64 7 4 C4.69 3.67 2.38 3.34 0 3 C0 2.01 0 1.02 0 0 Z " fill="#AEAEAE" transform="translate(78,68)"/>
<path d="M0 0 C1.32 0.66 2.64 1.32 4 2 C1.69 3.32 -0.62 4.64 -3 6 C-2.42655063 3.13275314 -2.1385485 2.1385485 0 0 Z " fill="#308E9B" transform="translate(23,95)"/>
<path d="M0 0 C2.31 1.98 4.62 3.96 7 6 C6.34 6.66 5.68 7.32 5 8 C2.5 5.6875 2.5 5.6875 0 3 C0 2.01 0 1.02 0 0 Z " fill="#343438" transform="translate(39,93)"/>
<path d="M0 0 C0.33 0.99 0.66 1.98 1 3 C0.34 3 -0.32 3 -1 3 C-1 3.66 -1 4.32 -1 5 C-3 6.625 -3 6.625 -5 8 C-4.64950425 4.75791433 -4.43778819 3.38472296 -1.9375 1.1875 C-1.298125 0.795625 -0.65875 0.40375 0 0 Z " fill="#25718F" transform="translate(57,71)"/>
<path d="M0 0 C2.64455995 3.96683992 3.28109187 7.15282485 2.5625 11.875 C2.376875 12.57625 2.19125 13.2775 2 14 C1.67 14 1.34 14 1 14 C0.67 9.38 0.34 4.76 0 0 Z " fill="#88898D" transform="translate(94,48)"/>
<path d="M0 0 C5.53846154 0.61538462 5.53846154 0.61538462 7.875 2.5625 C8.431875 3.2740625 8.431875 3.2740625 9 4 C8.01 4.495 8.01 4.495 7 5 C4.5249829 3.88568235 2.32116581 2.41849022 0 1 C0 0.67 0 0.34 0 0 Z " fill="#323236" transform="translate(48,103)"/>
<path d="M0 0 C0.66 0.33 1.32 0.66 2 1 C-0.3125 3.5 -0.3125 3.5 -3 6 C-3.99 6 -4.98 6 -6 6 C-4.02 4.02 -2.04 2.04 0 0 Z " fill="#66C8D2" transform="translate(18,96)"/>
</svg>
