<?xml version="1.0" encoding="UTF-8"?>
<svg version="1.1" xmlns="http://www.w3.org/2000/svg" width="400" height="400">
<path d="M0 0 C0.68689659 0.22948837 1.37379318 0.45897675 2.08150482 0.69541931 C3.75607639 1.2549605 5.43042931 1.81515597 7.10473633 2.37548828 C7.17487166 26.71491535 7.22774671 51.05432724 7.26017284 75.39383507 C7.27563021 86.69553382 7.29669817 97.99716972 7.33105469 109.29882812 C7.36099159 119.15135511 7.38031955 129.00383656 7.38700181 138.85640776 C7.39090678 144.07144726 7.40006055 149.28635653 7.4219265 154.50135422 C7.44235941 159.4145978 7.44855638 164.32765806 7.44405937 169.24094009 C7.44488153 171.0395889 7.45080649 172.83824414 7.46235275 174.63685608 C7.5172289 183.62980067 7.47136687 191.88483691 4.10473633 200.37548828 C3.63874023 201.97650391 3.63874023 201.97650391 3.16333008 203.60986328 C1.88533322 206.94868903 0.1652608 209.66379838 -1.83276367 212.62548828 C-2.52241211 213.66189453 -3.21206055 214.69830078 -3.92260742 215.76611328 C-5.89526367 218.37548828 -5.89526367 218.37548828 -8.89526367 220.37548828 C-9.22526367 221.36548828 -9.55526367 222.35548828 -9.89526367 223.37548828 C-10.55526367 223.68486328 -11.21526367 223.99423828 -11.89526367 224.31298828 C-12.55526367 224.66361328 -13.21526367 225.01423828 -13.89526367 225.37548828 C-14.03963867 226.01486328 -14.18401367 226.65423828 -14.33276367 227.31298828 C-14.89526367 229.37548828 -14.89526367 229.37548828 -17.06713867 230.64501953 C-20.44028233 232.70897345 -22.99109327 235.29558671 -25.70776367 238.12548828 C-29.75947198 242.27852057 -33.85693116 246.21785182 -38.37182617 249.87548828 C-40.02541602 251.32352558 -40.02541602 251.32352558 -40.85620117 253.50048828 C-41.1990918 254.11923828 -41.54198242 254.73798828 -41.89526367 255.37548828 C-43.22567401 255.72030306 -44.55958346 256.05168702 -45.89526367 256.37548828 C-48.40343737 258.37271533 -48.40343737 258.37271533 -50.95776367 260.87548828 C-54.59017301 264.28345705 -58.26354232 267.56056256 -62.14526367 270.68798828 C-67.33770212 274.87759527 -72.36705046 279.23332087 -77.38696289 283.6262207 C-81.85197504 287.51771867 -86.41111082 291.21749817 -91.13745117 294.78955078 C-93.16180267 296.35420766 -93.16180267 296.35420766 -93.89526367 299.37548828 C-94.49338867 299.51986328 -95.09151367 299.66423828 -95.70776367 299.81298828 C-98.66282133 300.57286025 -99.90951643 302.11584487 -101.89526367 304.37548828 C-102.22526367 305.03548828 -102.55526367 305.69548828 -102.89526367 306.37548828 C-103.64807617 306.51728516 -104.40088867 306.65908203 -105.17651367 306.80517578 C-109.06476457 307.62081462 -111.50222664 309.81813252 -114.61401367 312.19580078 C-116.89526367 313.37548828 -116.89526367 313.37548828 -119.44995117 313.18017578 C-121.70661223 312.43756847 -123.5093891 311.62425057 -125.52026367 310.37548828 C-128.72838233 308.31356376 -128.72838233 308.31356376 -131.89526367 307.37548828 C-132.22526367 306.71548828 -132.55526367 306.05548828 -132.89526367 305.37548828 C-133.88526367 305.04548828 -134.87526367 304.71548828 -135.89526367 304.37548828 C-136.15307617 303.80314453 -136.41088867 303.23080078 -136.67651367 302.64111328 C-138.48443536 299.28023322 -141.40055982 297.37526448 -144.39526367 295.12548828 C-145.66397266 294.1547609 -146.93219858 293.18340187 -148.19995117 292.21142578 C-148.82611328 291.73415039 -149.45227539 291.256875 -150.09741211 290.76513672 C-153.40452611 288.20890466 -156.60308559 285.51741194 -159.80932617 282.83642578 C-161.90726651 281.3670818 -163.43651822 280.9308628 -165.89526367 280.37548828 C-166.18401367 279.77736328 -166.47276367 279.17923828 -166.77026367 278.56298828 C-168.82906774 274.55975814 -172.75380672 272.75597393 -176.89526367 271.37548828 C-177.16338867 270.80314453 -177.43151367 270.23080078 -177.70776367 269.64111328 C-179.41397546 266.3858408 -182.09289278 264.4085457 -184.89526367 262.12548828 C-185.47397217 261.6467627 -186.05268066 261.16803711 -186.64892578 260.67480469 C-187.82844304 259.70164206 -189.01064906 258.73172892 -190.19555664 257.76513672 C-191.75179814 256.49278299 -193.29493713 255.20444675 -194.83666992 253.91455078 C-195.70163086 253.20041016 -196.5665918 252.48626953 -197.45776367 251.75048828 C-198.22217773 251.11884766 -198.9865918 250.48720703 -199.77416992 249.83642578 C-201.76562001 248.25474825 -201.76562001 248.25474825 -203.98510742 247.97705078 C-206.89318593 247.06121419 -207.41383133 244.97800456 -208.89526367 242.37548828 C-210.67372143 240.41239674 -212.44919159 238.54130217 -214.33276367 236.68798828 C-214.81036133 236.20265625 -215.28795898 235.71732422 -215.7800293 235.21728516 C-218.33887997 232.67247482 -220.663457 230.92881677 -223.89526367 229.37548828 C-224.56193034 227.70882161 -225.22859701 226.04215495 -225.89526367 224.37548828 C-227.91196195 223.24198294 -227.91196195 223.24198294 -229.89526367 222.37548828 C-230.22526367 221.38548828 -230.55526367 220.39548828 -230.89526367 219.37548828 C-231.69963867 218.59173828 -232.50401367 217.80798828 -233.33276367 217.00048828 C-235.84772517 214.42418626 -236.80431182 212.73925649 -237.89526367 209.37548828 C-238.74566509 207.32161453 -238.74566509 207.32161453 -240.39526367 206.18798828 C-242.6219619 203.49739459 -242.48920322 200.79799776 -242.89526367 197.37548828 C-243.22932661 196.47151999 -243.56338955 195.56755169 -243.90757561 194.63619041 C-245.04987777 190.86505332 -245.16757388 187.41444517 -245.13577271 183.51675415 C-245.13748155 182.74391976 -245.1391904 181.97108536 -245.14095104 181.17483175 C-245.14423506 178.59530015 -245.13326027 176.01603092 -245.12231445 173.43652344 C-245.1217501 171.58344529 -245.12206736 169.7303667 -245.12319946 167.87728882 C-245.12377305 162.85297171 -245.1120177 157.82875019 -245.09805155 152.80445528 C-245.08554524 147.55139431 -245.08437377 142.29833113 -245.08200073 137.04525757 C-245.07578568 127.10063265 -245.05937449 117.15605172 -245.03930175 107.21144617 C-245.01694357 95.88867493 -245.00594952 84.56590158 -244.99591088 73.24311376 C-244.97500831 49.95388088 -244.9398318 26.66468705 -244.89526367 3.37548828 C-243.4510725 2.72833845 -242.00631807 2.0824455 -240.56132507 1.43708801 C-239.35459404 0.89736469 -239.35459404 0.89736469 -238.12348461 0.34673786 C-234.08531169 -1.41344385 -229.92043567 -2.66706461 -225.70776367 -3.93701172 C-224.72727051 -4.23260986 -223.74677734 -4.52820801 -222.73657227 -4.83276367 C-201.47616733 -11.08864196 -179.84543395 -15.63573476 -157.89526367 -18.62451172 C-157.1023291 -18.74165527 -156.30939453 -18.85879883 -155.49243164 -18.97949219 C-103.51064879 -26.5468164 -49.29393887 -16.50356719 0 0 Z " fill="#2A6591" transform="translate(318.895263671875,53.62451171875)"/>
<path d="M0 0 C5.61883853 -0.29944616 11.23292571 -0.51561194 16.85791016 -0.65917969 C18.76530932 -0.71907775 20.67216803 -0.80063882 22.57763672 -0.90527344 C39.27088326 -1.79814766 39.27088326 -1.79814766 44.85644531 2.59277344 C47.92742132 5.46567958 50.43152418 8.67892138 53 12 C54.3811614 13.28912281 55.78999997 14.55089852 57.25 15.75 C60.60277226 18.60401275 63.69232711 21.6456245 66.75 24.8125 C68.69309111 26.70161636 70.67644665 28.4790839 72.72265625 30.25390625 C77.0736462 34.03295399 81.25994335 37.96874983 85.4375 41.9375 C91.20573112 47.39452955 96.99684689 52.80068791 103 58 C107.4769293 54.26922558 111.66578561 50.41409885 115.71484375 46.22265625 C117.67708231 44.31408575 119.68114523 42.53135092 121.75390625 40.74609375 C126.04089154 37.02322468 130.02588533 33.0517341 134 29 C138.36531164 24.54942837 142.73542725 20.24526711 147.55810547 16.28930664 C149.53338016 14.43746193 151.06646303 12.70414122 152.72070312 10.58984375 C157.31789095 4.97536366 161.6067185 -0.01199085 169.07568359 -1.14013672 C174.69584019 -1.54160816 180.26066804 -1.2288164 185.875 -0.875 C187.83441004 -0.80461563 189.79406618 -0.74076528 191.75390625 -0.68359375 C196.50879196 -0.53085953 201.25161283 -0.29035293 206 0 C206.09392018 18.67330448 206.16421072 37.34656027 206.20724869 56.02005291 C206.22777334 64.69273008 206.25569779 73.36525953 206.30175781 82.0378418 C206.34193802 89.60700572 206.36750592 97.17606253 206.37635398 104.74533015 C206.38151666 108.74404325 206.39343285 112.74245024 206.42292023 116.74106407 C206.67572565 152.42646169 201.46092346 177.23937349 177.40283203 204.40917969 C176.09792105 205.88895692 174.81182412 207.38526667 173.52734375 208.8828125 C172.46193359 210.11644531 172.46193359 210.11644531 171.375 211.375 C170.76398438 212.08398438 170.15296875 212.79296875 169.5234375 213.5234375 C168 215 168 215 166 215 C166 165.17 166 115.34 166 64 C157.95019623 70.32484582 150.08367568 76.58160566 142.32421875 83.21484375 C138.14190924 86.75410899 133.82288081 90.11776293 129.4921875 93.47265625 C127.21927694 95.23639285 125.03677958 96.96322042 123 99 C122.66725434 101.87306791 122.66725434 101.87306791 122.68115234 105.28564453 C122.67110672 105.92967224 122.6610611 106.57369995 122.65071106 107.23724365 C122.61978417 109.36909073 122.60281806 111.50081171 122.5859375 113.6328125 C122.56723344 115.10970146 122.5476606 116.58657965 122.5272522 118.06344604 C122.47584424 121.95304017 122.43626515 125.84266898 122.39910889 129.73242188 C122.35209473 134.3981305 122.29045998 139.0636659 122.23126221 143.72923279 C122.14294433 150.81941894 122.07325621 157.90957012 122 165 C109.13 165 96.26 165 83 165 C83.17015625 158.22275391 83.17015625 158.22275391 83.34375 151.30859375 C83.37998233 148.4142112 83.4113772 145.52132739 83.42578125 142.62695312 C83.44900735 138.04987694 83.48828704 133.47761001 83.63427734 128.90258789 C84.85596181 110.90406988 84.85596181 110.90406988 78.6171875 94.80908203 C75.42930881 91.53093437 71.9600582 88.90447066 68.12322998 86.43344116 C64.4637112 83.96281626 61.25713295 80.97012298 58 78 C57.41639709 77.46784378 56.83279419 76.93568756 56.23150635 76.3874054 C54.2209294 74.54516888 52.22265815 72.68993567 50.2265625 70.83203125 C47.56559015 68.37306989 44.90919147 66.1818936 42 64 C41.67 114.16 41.34 164.32 41 216 C19.05222824 197.1876242 3.39030187 177.53844934 0 148 C-0.25481752 142.97815979 -0.25476403 137.96493065 -0.22705078 132.93823242 C-0.22648505 131.47820544 -0.22680637 130.0181779 -0.22793579 128.55815125 C-0.22850401 124.63750722 -0.21683686 120.71698835 -0.20278788 116.79637313 C-0.19019088 112.68312849 -0.18910301 108.56988022 -0.18673706 104.45661926 C-0.18054843 96.68676164 -0.16417345 88.91696104 -0.14403808 81.1471284 C-0.1215971 72.2933154 -0.11066513 63.43949952 -0.10064721 54.58566511 C-0.07980457 36.39041121 -0.0446801 18.19521021 0 0 Z " fill="#FDFDFE" transform="translate(96,78)"/>
<path d="M0 0 C0 33.99 0 67.98 0 103 C-5.1384263 99.14618027 -9.18257546 96.04247818 -13.5 91.5625 C-17.15905871 87.77669679 -20.93480824 84.27297608 -24.91601562 80.82788086 C-28.360371 77.80680674 -31.67555188 74.65173418 -35 71.5 C-36.48160404 70.10008387 -37.96337941 68.70034905 -39.4453125 67.30078125 C-40.56921387 66.23851318 -40.56921387 66.23851318 -41.71582031 65.15478516 C-46.10110734 61.01791648 -50.5059912 56.90190937 -54.91015625 52.78515625 C-55.84794922 51.90730469 -55.84794922 51.90730469 -56.8046875 51.01171875 C-57.62428955 50.24541138 -57.62428955 50.24541138 -58.46044922 49.46362305 C-60 48 -60 48 -61.33970642 46.43554688 C-63.39955052 44.6545349 -64.41169796 44.6090508 -67.10424805 44.56762695 C-67.92487228 44.54783279 -68.74549652 44.52803864 -69.59098816 44.50764465 C-70.47232925 44.50125473 -71.35367035 44.49486481 -72.26171875 44.48828125 C-73.16751175 44.47033005 -74.07330475 44.45237885 -75.00654602 44.43388367 C-77.90014996 44.37969341 -80.79358815 44.34585714 -83.6875 44.3125 C-85.64911165 44.27933461 -87.61070141 44.24484568 -89.57226562 44.20898438 C-94.38139097 44.12396194 -99.19046641 44.0571924 -104 44 C-103.93926789 63.02056898 -103.86163003 82.04099897 -103.76428509 101.06141663 C-103.71946548 109.89444784 -103.68001956 118.72743998 -103.65356445 127.56054688 C-103.63047164 135.26634168 -103.59694952 142.97201137 -103.55129844 150.67770672 C-103.52751711 154.75159701 -103.50869017 158.82536457 -103.50238609 162.89932251 C-103.49626602 166.74731293 -103.4760226 170.59498993 -103.44572449 174.44286346 C-103.43705354 175.8422705 -103.43319843 177.24171868 -103.43499184 178.64115143 C-103.45909595 206.17129006 -94.65279477 227.05214072 -76 247 C-72.04 250.96 -68.08 254.92 -64 259 C-63.67 208.84 -63.34 158.68 -63 107 C-54.00592154 113.74555885 -54.00592154 113.74555885 -51.21875 116.40234375 C-50.60870117 116.97887695 -49.99865234 117.55541016 -49.37011719 118.14941406 C-48.75297852 118.73948242 -48.13583984 119.32955078 -47.5 119.9375 C-46.18313812 121.18188595 -44.86543952 122.42538708 -43.546875 123.66796875 C-42.92876953 124.2511084 -42.31066406 124.83424805 -41.67382812 125.43505859 C-39.73420585 127.24850358 -37.75751149 129.01209233 -35.75 130.75 C-34.93871391 131.47342087 -34.93871391 131.47342087 -34.11103821 132.2114563 C-31.94548183 134.09355909 -31.94548183 134.09355909 -29.26530457 135.97067261 C-24.94408075 139.33439505 -21.5644055 142.01626734 -20.03140259 147.40435791 C-19.73145655 151.36288768 -19.75838137 155.23653878 -19.92578125 159.1953125 C-19.94634259 160.63827534 -19.96197944 162.08131589 -19.97294617 163.52438354 C-20.01460527 167.29120449 -20.12231537 171.05322892 -20.24468994 174.81817627 C-20.35798633 178.67239492 -20.4076165 182.52740253 -20.46289062 186.3828125 C-20.58025689 193.92429749 -20.77341386 201.46086107 -21 209 C-14.07 209 -7.14 209 0 209 C0 249.59 0 290.18 0 332 C-4.44172342 331.11165532 -6.34323025 330.30953879 -10 328 C-10.99 327.67 -11.98 327.34 -13 327 C-13.33 326.34 -13.66 325.68 -14 325 C-14.99 324.67 -15.98 324.34 -17 324 C-17.2578125 323.42765625 -17.515625 322.8553125 -17.78125 322.265625 C-19.58917169 318.90474494 -22.50529615 316.9997762 -25.5 314.75 C-26.76870899 313.77927262 -28.03693491 312.80791358 -29.3046875 311.8359375 C-29.93084961 311.35866211 -30.55701172 310.88138672 -31.20214844 310.38964844 C-34.50926243 307.83341638 -37.70782192 305.14192365 -40.9140625 302.4609375 C-43.01200283 300.99159352 -44.54125455 300.55537452 -47 300 C-47.28875 299.401875 -47.5775 298.80375 -47.875 298.1875 C-49.93380407 294.18426986 -53.85854304 292.38048565 -58 291 C-58.268125 290.42765625 -58.53625 289.8553125 -58.8125 289.265625 C-60.51871178 286.01035252 -63.1976291 284.03305741 -66 281.75 C-66.5787085 281.27127441 -67.15741699 280.79254883 -67.75366211 280.29931641 C-68.93317937 279.32615378 -70.11538538 278.35624063 -71.30029297 277.38964844 C-72.85653447 276.11729471 -74.39967345 274.82895847 -75.94140625 273.5390625 C-76.80636719 272.82492187 -77.67132813 272.11078125 -78.5625 271.375 C-79.32691406 270.74335938 -80.09132812 270.11171875 -80.87890625 269.4609375 C-82.87035634 267.87925997 -82.87035634 267.87925997 -85.08984375 267.6015625 C-87.99792226 266.68572591 -88.51856766 264.60251628 -90 262 C-91.77845776 260.03690845 -93.55392792 258.16581389 -95.4375 256.3125 C-95.91509766 255.82716797 -96.39269531 255.34183594 -96.88476562 254.84179688 C-99.4436163 252.29698654 -101.76819333 250.55332849 -105 249 C-105.66666667 247.33333333 -106.33333333 245.66666667 -107 244 C-109.01669827 242.86649466 -109.01669827 242.86649466 -111 242 C-111.33 241.01 -111.66 240.02 -112 239 C-112.804375 238.21625 -113.60875 237.4325 -114.4375 236.625 C-116.9524615 234.04869798 -117.90904815 232.36376821 -119 229 C-119.85040141 226.94612625 -119.85040141 226.94612625 -121.5 225.8125 C-123.72669822 223.12190631 -123.59393955 220.42250948 -124 217 C-124.33406294 216.0960317 -124.66812588 215.19206341 -125.01231194 214.26070213 C-126.1546141 210.48956504 -126.27231021 207.03895689 -126.24050903 203.14126587 C-126.24221788 202.36843148 -126.24392673 201.59559708 -126.24568737 200.79934347 C-126.24897139 198.21981187 -126.2379966 195.64054264 -126.22705078 193.06103516 C-126.22648643 191.20795701 -126.22680369 189.35487842 -126.22793579 187.50180054 C-126.22850938 182.47748343 -126.21675403 177.4532619 -126.20278788 172.428967 C-126.19028157 167.17590603 -126.18911009 161.92284285 -126.18673706 156.66976929 C-126.18052201 146.72514436 -126.16411082 136.78056344 -126.14403808 126.83595788 C-126.1216799 115.51318664 -126.11068585 104.1904133 -126.10064721 92.86762547 C-126.07974464 69.5783926 -126.04456813 46.28919876 -126 23 C-124.55580883 22.35285017 -123.11105439 21.70695722 -121.6660614 21.06159973 C-120.45933037 20.52187641 -120.45933037 20.52187641 -119.22822094 19.97124958 C-115.19004802 18.21106787 -111.025172 16.95744711 -106.8125 15.6875 C-105.83200684 15.39190186 -104.85151367 15.09630371 -103.84130859 14.79174805 C-69.16332247 4.58774389 -36.23750092 0 0 0 Z " fill="#0D77B8" transform="translate(200,34)"/>
<path d="M0 0 C0.66 0 1.32 0 2 0 C1.83826325 0.50522312 1.67652651 1.01044624 1.50988865 1.53097916 C0.82337492 4.85526712 0.84644862 8.12530776 0.84178162 11.5043335 C0.83684364 12.26320838 0.83190566 13.02208327 0.82681805 13.80395436 C0.81145351 16.34814186 0.80308525 18.89230414 0.79467773 21.43652344 C0.78509839 23.25975262 0.77508828 25.08297959 0.76467896 26.90620422 C0.73762993 31.85827458 0.71662033 36.81035446 0.69667697 41.76245785 C0.67481743 46.93681007 0.64742858 52.11113291 0.62062073 57.28546143 C0.57069343 67.0849103 0.52575472 76.88437547 0.48259836 86.68385625 C0.43322632 97.83974164 0.37830806 108.99559756 0.32291877 120.15145445 C0.20909815 143.10094213 0.10225926 166.05045809 0 189 C-0.33 189 -0.66 189 -1 189 C-1.02332612 164.50511696 -1.04097776 140.01023557 -1.05181217 115.51534367 C-1.05697574 104.1427937 -1.0640196 92.77025062 -1.07543945 81.39770508 C-1.08538443 71.48923136 -1.09185298 61.58076263 -1.09408849 51.67228407 C-1.09539592 46.42237095 -1.09848376 41.17247211 -1.10573006 35.92256355 C-1.11248734 30.98723004 -1.11461756 26.05191675 -1.11310768 21.11657906 C-1.11338414 19.2996459 -1.11539099 17.4827121 -1.11920547 15.66578293 C-1.12413818 13.19631711 -1.12299987 10.72692894 -1.12025452 8.25746155 C-1.12316736 7.52887611 -1.1260802 6.80029067 -1.12908131 6.04962689 C-1.11412121 1.11412121 -1.11412121 1.11412121 0 0 Z " fill="#096BA7" transform="translate(75,56)"/>
<path d="M0 0 C0.33 0 0.66 0 1 0 C1 62.04 1 124.08 1 188 C0.67 188 0.34 188 0 188 C0 125.96 0 63.92 0 0 Z " fill="#000000" transform="translate(72,57)"/>
<path d="M0 0 C12.54 0 25.08 0 38 0 C38 0.33 38 0.66 38 1 C25.46 1 12.92 1 0 1 C0 0.67 0 0.34 0 0 Z " fill="#000102" transform="translate(181,31)"/>
<path d="M0 0 C4.3177458 0.50797009 8.03302114 1.19682779 12 3 C8.52128379 4.15957207 7.65780355 3.77456651 4.3125 2.5625 C3.50425781 2.27503906 2.69601562 1.98757812 1.86328125 1.69140625 C1.24839844 1.46324219 0.63351562 1.23507813 0 1 C0 0.67 0 0.34 0 0 Z " fill="#000000" transform="translate(308,49)"/>
<path d="M0 0 C3.96 0 7.92 0 12 0 C12 0.33 12 0.66 12 1 C8.04 1 4.08 1 0 1 C0 0.67 0 0.34 0 0 Z " fill="#000001" transform="translate(219,32)"/>
<path d="M0 0 C3.96 0 7.92 0 12 0 C12 0.33 12 0.66 12 1 C8.04 1 4.08 1 0 1 C0 0.67 0 0.34 0 0 Z " fill="#000001" transform="translate(169,32)"/>
<path d="M0 0 C2.97 0 5.94 0 9 0 C9 0.33 9 0.66 9 1 C6.03 1 3.06 1 0 1 C0 0.67 0 0.34 0 0 Z " fill="#000000" transform="translate(231,33)"/>
<path d="M0 0 C2.97 0 5.94 0 9 0 C9 0.33 9 0.66 9 1 C6.03 1 3.06 1 0 1 C0 0.67 0 0.34 0 0 Z " fill="#000001" transform="translate(160,33)"/>
<path d="M0 0 C2.31 0.33 4.62 0.66 7 1 C5.1875 1.625 5.1875 1.625 3 2 C2.01 1.34 1.02 0.68 0 0 Z " fill="#000001" transform="translate(291,44)"/>
<path d="M0 0 C0.598125 0.20625 1.19625 0.4125 1.8125 0.625 C-0.4975 0.955 -2.8075 1.285 -5.1875 1.625 C-2.1875 -0.375 -2.1875 -0.375 0 0 Z " fill="#000101" transform="translate(111.1875,43.375)"/>
<path d="M0 0 C2.31 0 4.62 0 7 0 C7 0.33 7 0.66 7 1 C4.69 1 2.38 1 0 1 C0 0.67 0 0.34 0 0 Z " fill="#000000" transform="translate(247,35)"/>
<path d="M0 0 C2.31 0 4.62 0 7 0 C7 0.33 7 0.66 7 1 C4.69 1 2.38 1 0 1 C0 0.67 0 0.34 0 0 Z " fill="#000000" transform="translate(240,34)"/>
<path d="M0 0 C2.31 0 4.62 0 7 0 C7 0.33 7 0.66 7 1 C4.69 1 2.38 1 0 1 C0 0.67 0 0.34 0 0 Z " fill="#000101" transform="translate(153,34)"/>
<path d="M0 0 C0.66 0.33 1.32 0.66 2 1 C0.02 1.99 0.02 1.99 -2 3 C-1.34 2.01 -0.68 1.02 0 0 Z " fill="#000101" transform="translate(285,299)"/>
<path d="M0 0 C1.98 0 3.96 0 6 0 C6 0.33 6 0.66 6 1 C4.02 1 2.04 1 0 1 C0 0.67 0 0.34 0 0 Z " fill="#000001" transform="translate(259,37)"/>
<path d="M0 0 C1.98 0 3.96 0 6 0 C6 0.33 6 0.66 6 1 C4.02 1 2.04 1 0 1 C0 0.67 0 0.34 0 0 Z " fill="#000001" transform="translate(141,36)"/>
<path d="M0 0 C1.98 0 3.96 0 6 0 C6 0.33 6 0.66 6 1 C4.02 1 2.04 1 0 1 C0 0.67 0 0.34 0 0 Z " fill="#000101" transform="translate(147,35)"/>
<path d="M0 0 C1.65 0 3.3 0 5 0 C5 0.33 5 0.66 5 1 C3.35 1 1.7 1 0 1 C0 0.67 0 0.34 0 0 Z " fill="#000001" transform="translate(117,41)"/>
<path d="M0 0 C1.65 0 3.3 0 5 0 C5 0.33 5 0.66 5 1 C3.35 1 1.7 1 0 1 C0 0.67 0 0.34 0 0 Z " fill="#000001" transform="translate(274,40)"/>
<path d="M0 0 C1.65 0 3.3 0 5 0 C5 0.33 5 0.66 5 1 C3.35 1 1.7 1 0 1 C0 0.67 0 0.34 0 0 Z " fill="#000001" transform="translate(126,39)"/>
<path d="M0 0 C1.65 0 3.3 0 5 0 C5 0.33 5 0.66 5 1 C3.35 1 1.7 1 0 1 C0 0.67 0 0.34 0 0 Z " fill="#000001" transform="translate(265,38)"/>
<path d="M0 0 C1.65 0 3.3 0 5 0 C5 0.33 5 0.66 5 1 C3.35 1 1.7 1 0 1 C0 0.67 0 0.34 0 0 Z " fill="#000001" transform="translate(131,38)"/>
<path d="M0 0 C1.65 0 3.3 0 5 0 C5 0.33 5 0.66 5 1 C3.35 1 1.7 1 0 1 C0 0.67 0 0.34 0 0 Z " fill="#000101" transform="translate(136,37)"/>
<path d="M0 0 C1.65 0 3.3 0 5 0 C5 0.33 5 0.66 5 1 C3.35 1 1.7 1 0 1 C0 0.67 0 0.34 0 0 Z " fill="#000001" transform="translate(254,36)"/>
<path d="M0 0 C0.99 0.33 1.98 0.66 3 1 C2.01 1 1.02 1 0 1 C0 0.67 0 0.34 0 0 Z " fill="#000001" transform="translate(191,363)"/>
<path d="M0 0 C0.66 0.33 1.32 0.66 2 1 C1.01 1 0.02 1 -1 1 C-0.67 0.67 -0.34 0.34 0 0 Z " fill="#000101" transform="translate(211,361)"/>
<path d="M0 0 C0.99 0.33 1.98 0.66 3 1 C2.01 1 1.02 1 0 1 C0 0.67 0 0.34 0 0 Z " fill="#000001" transform="translate(174,350)"/>
<path d="M0 0 C0.66 0.33 1.32 0.66 2 1 C1.01 1 0.02 1 -1 1 C-0.67 0.67 -0.34 0.34 0 0 Z " fill="#000001" transform="translate(229,347)"/>
<path d="M0 0 C0.99 0.33 1.98 0.66 3 1 C2.01 1 1.02 1 0 1 C0 0.67 0 0.34 0 0 Z " fill="#000101" transform="translate(169,346)"/>
<path d="M0 0 C0.99 0.33 1.98 0.66 3 1 C2.01 1 1.02 1 0 1 C0 0.67 0 0.34 0 0 Z " fill="#000001" transform="translate(164,342)"/>
<path d="M0 0 C0.66 0.33 1.32 0.66 2 1 C1.01 1 0.02 1 -1 1 C-0.67 0.67 -0.34 0.34 0 0 Z " fill="#000001" transform="translate(268,314)"/>
<path d="M0 0 C0.99 0.33 1.98 0.66 3 1 C2.01 1 1.02 1 0 1 C0 0.67 0 0.34 0 0 Z " fill="#000001" transform="translate(125,310)"/>
<path d="M0 0 C0.99 0.33 1.98 0.66 3 1 C2.01 1 1.02 1 0 1 C0 0.67 0 0.34 0 0 Z " fill="#000001" transform="translate(119,305)"/>
<path d="M0 0 C1 4 1 4 1 4 Z " fill="#000000" transform="translate(73,245)"/>
<path d="M0 0 C1 4 1 4 1 4 Z " fill="#000000" transform="translate(327,240)"/>
<path d="M0 0 C4 1 4 1 4 1 Z " fill="#000001" transform="translate(95,47)"/>
<path d="M0 0 C4 1 4 1 4 1 Z " fill="#000001" transform="translate(298,46)"/>
<path d="M0 0 C4 1 4 1 4 1 Z " fill="#000101" transform="translate(102,45)"/>
<path d="M0 0 C4 1 4 1 4 1 Z " fill="#000001" transform="translate(287,43)"/>
<path d="M0 0 C4 1 4 1 4 1 Z " fill="#000001" transform="translate(283,42)"/>
<path d="M0 0 C4 1 4 1 4 1 Z " fill="#000101" transform="translate(113,42)"/>
<path d="M0 0 C4 1 4 1 4 1 Z " fill="#000001" transform="translate(279,41)"/>
<path d="M0 0 C4 1 4 1 4 1 Z " fill="#000101" transform="translate(122,40)"/>
<path d="M0 0 C4 1 4 1 4 1 Z " fill="#000001" transform="translate(270,39)"/>
<path d="M0 0 C3 1 3 1 3 1 Z " fill="#000102" transform="translate(199,368)"/>
<path d="" fill="#000101" transform="translate(0,0)"/>
<path d="" fill="#000000" transform="translate(0,0)"/>
<path d="" fill="#000000" transform="translate(0,0)"/>
<path d="M0 0 C3 1 3 1 3 1 Z " fill="#000101" transform="translate(323,54)"/>
<path d="M0 0 C3 1 3 1 3 1 Z " fill="#000001" transform="translate(320,53)"/>
<path d="M0 0 C3 1 3 1 3 1 Z " fill="#000101" transform="translate(77,53)"/>
<path d="M0 0 C3 1 3 1 3 1 Z " fill="#000001" transform="translate(80,52)"/>
<path d="M0 0 C3 1 3 1 3 1 Z " fill="#000001" transform="translate(83,51)"/>
<path d="M0 0 C3 1 3 1 3 1 Z " fill="#000001" transform="translate(86,50)"/>
<path d="M0 0 C3 1 3 1 3 1 Z " fill="#000101" transform="translate(89,49)"/>
<path d="M0 0 C3 1 3 1 3 1 Z " fill="#000101" transform="translate(305,48)"/>
<path d="M0 0 C3 1 3 1 3 1 Z " fill="#000101" transform="translate(92,48)"/>
<path d="M0 0 C3 1 3 1 3 1 Z " fill="#000101" transform="translate(302,47)"/>
<path d="M0 0 C3 1 3 1 3 1 Z " fill="#000101" transform="translate(99,46)"/>
<path d="M0 0 C2 1 2 1 2 1 Z " fill="#000001" transform="translate(202,367)"/>
<path d="M0 0 C2 1 2 1 2 1 Z " fill="#000101" transform="translate(197,367)"/>
<path d="M0 0 C2 1 2 1 2 1 Z " fill="#000102" transform="translate(204,366)"/>
<path d="M0 0 C2 1 2 1 2 1 Z " fill="#000001" transform="translate(195,366)"/>
<path d="M0 0 C2 1 2 1 2 1 Z " fill="#000001" transform="translate(207,364)"/>
<path d="M0 0 C2 1 2 1 2 1 Z " fill="#000101" transform="translate(219,355)"/>
<path d="M0 0 C2 1 2 1 2 1 Z " fill="#000101" transform="translate(179,354)"/>
<path d="M0 0 C2 1 2 1 2 1 Z " fill="#000101" transform="translate(234,343)"/>
<path d="M0 0 C2 1 2 1 2 1 Z " fill="#000101" transform="translate(240,338)"/>
<path d="M0 0 C2 1 2 1 2 1 Z " fill="#000101" transform="translate(159,338)"/>
<path d="M0 0 C2 1 2 1 2 1 Z " fill="#000000" transform="translate(246,333)"/>
<path d="M0 0 C2 1 2 1 2 1 Z " fill="#000001" transform="translate(148,329)"/>
<path d="M0 0 C2 1 2 1 2 1 Z " fill="#000000" transform="translate(253,327)"/>
<path d="M0 0 C2 1 2 1 2 1 Z " fill="#000000" transform="translate(260,321)"/>
<path d="M0 0 C2 1 2 1 2 1 Z " fill="#000000" transform="translate(137,320)"/>
<path d="M0 0 C2 1 2 1 2 1 Z " fill="#000001" transform="translate(131,315)"/>
<path d="" fill="#000001" transform="translate(0,0)"/>
<path d="" fill="#000001" transform="translate(0,0)"/>
<path d="" fill="#000000" transform="translate(0,0)"/>
<path d="" fill="#000000" transform="translate(0,0)"/>
<path d="" fill="#000001" transform="translate(0,0)"/>
<path d="M0 0 C2 1 2 1 2 1 Z " fill="#000101" transform="translate(75,54)"/>
<path d="" fill="#000102" transform="translate(0,0)"/>
<path d="" fill="#000202" transform="translate(0,0)"/>
<path d="" fill="#010102" transform="translate(0,0)"/>
<path d="" fill="#000203" transform="translate(0,0)"/>
<path d="" fill="#010202" transform="translate(0,0)"/>
<path d="" fill="#000203" transform="translate(0,0)"/>
<path d="" fill="#000202" transform="translate(0,0)"/>
<path d="" fill="#000000" transform="translate(0,0)"/>
<path d="" fill="#000202" transform="translate(0,0)"/>
<path d="" fill="#000200" transform="translate(0,0)"/>
<path d="" fill="#000202" transform="translate(0,0)"/>
<path d="" fill="#000102" transform="translate(0,0)"/>
<path d="" fill="#000202" transform="translate(0,0)"/>
<path d="" fill="#000203" transform="translate(0,0)"/>
<path d="" fill="#000101" transform="translate(0,0)"/>
<path d="" fill="#010100" transform="translate(0,0)"/>
<path d="" fill="#000203" transform="translate(0,0)"/>
<path d="" fill="#000200" transform="translate(0,0)"/>
<path d="" fill="#000102" transform="translate(0,0)"/>
<path d="" fill="#000100" transform="translate(0,0)"/>
<path d="" fill="#000102" transform="translate(0,0)"/>
<path d="" fill="#000000" transform="translate(0,0)"/>
<path d="" fill="#000000" transform="translate(0,0)"/>
<path d="" fill="#010103" transform="translate(0,0)"/>
<path d="" fill="#010102" transform="translate(0,0)"/>
<path d="" fill="#000102" transform="translate(0,0)"/>
<path d="" fill="#000000" transform="translate(0,0)"/>
<path d="" fill="#000201" transform="translate(0,0)"/>
<path d="" fill="#000000" transform="translate(0,0)"/>
<path d="" fill="#000000" transform="translate(0,0)"/>
<path d="" fill="#010103" transform="translate(0,0)"/>
<path d="" fill="#000202" transform="translate(0,0)"/>
<path d="" fill="#010101" transform="translate(0,0)"/>
<path d="" fill="#000103" transform="translate(0,0)"/>
<path d="" fill="#000102" transform="translate(0,0)"/>
<path d="" fill="#000100" transform="translate(0,0)"/>
<path d="" fill="#000000" transform="translate(0,0)"/>
<path d="" fill="#010102" transform="translate(0,0)"/>
<path d="" fill="#000203" transform="translate(0,0)"/>
<path d="" fill="#010102" transform="translate(0,0)"/>
<path d="" fill="#000101" transform="translate(0,0)"/>
<path d="" fill="#010102" transform="translate(0,0)"/>
<path d="" fill="#000001" transform="translate(0,0)"/>
<path d="" fill="#010102" transform="translate(0,0)"/>
<path d="" fill="#000100" transform="translate(0,0)"/>
<path d="" fill="#000203" transform="translate(0,0)"/>
<path d="" fill="#000202" transform="translate(0,0)"/>
<path d="" fill="#010203" transform="translate(0,0)"/>
<path d="" fill="#000203" transform="translate(0,0)"/>
<path d="" fill="#010202" transform="translate(0,0)"/>
<path d="" fill="#010101" transform="translate(0,0)"/>
<path d="" fill="#010202" transform="translate(0,0)"/>
<path d="" fill="#000202" transform="translate(0,0)"/>
<path d="" fill="#000101" transform="translate(0,0)"/>
<path d="" fill="#000201" transform="translate(0,0)"/>
<path d="" fill="#000101" transform="translate(0,0)"/>
<path d="" fill="#010202" transform="translate(0,0)"/>
<path d="" fill="#010202" transform="translate(0,0)"/>
<path d="" fill="#000204" transform="translate(0,0)"/>
<path d="" fill="#010102" transform="translate(0,0)"/>
<path d="" fill="#000202" transform="translate(0,0)"/>
<path d="" fill="#010202" transform="translate(0,0)"/>
<path d="" fill="#000101" transform="translate(0,0)"/>
<path d="" fill="#010202" transform="translate(0,0)"/>
<path d="" fill="#000102" transform="translate(0,0)"/>
<path d="" fill="#000204" transform="translate(0,0)"/>
<path d="" fill="#010103" transform="translate(0,0)"/>
<path d="" fill="#000102" transform="translate(0,0)"/>
<path d="" fill="#010203" transform="translate(0,0)"/>
<path d="" fill="#000102" transform="translate(0,0)"/>
<path d="" fill="#010102" transform="translate(0,0)"/>
<path d="" fill="#000102" transform="translate(0,0)"/>
<path d="" fill="#010102" transform="translate(0,0)"/>
<path d="" fill="#000203" transform="translate(0,0)"/>
<path d="" fill="#000202" transform="translate(0,0)"/>
<path d="" fill="#000202" transform="translate(0,0)"/>
<path d="" fill="#010203" transform="translate(0,0)"/>
<path d="" fill="#010202" transform="translate(0,0)"/>
<path d="" fill="#000304" transform="translate(0,0)"/>
<path d="" fill="#010101" transform="translate(0,0)"/>
<path d="" fill="#000102" transform="translate(0,0)"/>
<path d="" fill="#010202" transform="translate(0,0)"/>
<path d="" fill="#000102" transform="translate(0,0)"/>
<path d="" fill="#010203" transform="translate(0,0)"/>
<path d="" fill="#000203" transform="translate(0,0)"/>
<path d="" fill="#010203" transform="translate(0,0)"/>
<path d="" fill="#000304" transform="translate(0,0)"/>
<path d="" fill="#010203" transform="translate(0,0)"/>
<path d="" fill="#000102" transform="translate(0,0)"/>
<path d="" fill="#010202" transform="translate(0,0)"/>
<path d="" fill="#000102" transform="translate(0,0)"/>
<path d="" fill="#010101" transform="translate(0,0)"/>
<path d="" fill="#000203" transform="translate(0,0)"/>
<path d="" fill="#010202" transform="translate(0,0)"/>
<path d="" fill="#000203" transform="translate(0,0)"/>
<path d="" fill="#010202" transform="translate(0,0)"/>
<path d="" fill="#000203" transform="translate(0,0)"/>
<path d="" fill="#010202" transform="translate(0,0)"/>
<path d="" fill="#000203" transform="translate(0,0)"/>
<path d="" fill="#010202" transform="translate(0,0)"/>
<path d="" fill="#000203" transform="translate(0,0)"/>
<path d="" fill="#010102" transform="translate(0,0)"/>
<path d="" fill="#000203" transform="translate(0,0)"/>
<path d="" fill="#010102" transform="translate(0,0)"/>
<path d="" fill="#000203" transform="translate(0,0)"/>
<path d="" fill="#000101" transform="translate(0,0)"/>
<path d="" fill="#000102" transform="translate(0,0)"/>
<path d="" fill="#010203" transform="translate(0,0)"/>
<path d="" fill="#000203" transform="translate(0,0)"/>
<path d="" fill="#010203" transform="translate(0,0)"/>
<path d="" fill="#000204" transform="translate(0,0)"/>
<path d="" fill="#010203" transform="translate(0,0)"/>
<path d="" fill="#000101" transform="translate(0,0)"/>
<path d="" fill="#000202" transform="translate(0,0)"/>
<path d="" fill="#000102" transform="translate(0,0)"/>
<path d="" fill="#000102" transform="translate(0,0)"/>
<path d="" fill="#010101" transform="translate(0,0)"/>
<path d="" fill="#000203" transform="translate(0,0)"/>
<path d="" fill="#000101" transform="translate(0,0)"/>
<path d="" fill="#000101" transform="translate(0,0)"/>
</svg>
