<?xml version="1.0" standalone="no"?>
<!DOCTYPE svg PUBLIC "-//W3C//DTD SVG 20010904//EN"
 "http://www.w3.org/TR/2001/REC-SVG-20010904/DTD/svg10.dtd">
<svg version="1.0" xmlns="http://www.w3.org/2000/svg"
 width="502.000000pt" height="626.000000pt" viewBox="0 0 502.000000 626.000000"
 preserveAspectRatio="xMidYMid meet">

<g transform="translate(0.000000,626.000000) scale(0.100000,-0.100000)"
fill="#000000" stroke="none">
<path d="M2335 6246 c-61 -19 -105 -44 -165 -94 -98 -82 -270 -255 -322 -324
-27 -38 -52 -68 -55 -68 -3 0 -11 7 -17 16 -11 14 -15 12 -38 -18 -111 -146
-219 -363 -398 -803 -163 -397 -169 -421 -127 -507 34 -70 111 -154 186 -203
33 -22 61 -42 61 -45 0 -3 -141 -43 -312 -89 -172 -46 -336 -92 -364 -102 -99
-37 -134 -110 -99 -203 17 -43 17 -51 1 -133 -9 -49 -17 -117 -19 -153 l-2
-65 -49 114 c-41 93 -51 110 -57 92 -5 -12 -17 -21 -30 -21 -16 0 -19 -4 -14
-17 34 -79 55 -151 55 -186 0 -73 28 -155 96 -284 36 -67 62 -123 57 -122 -4
0 -34 33 -66 73 -31 39 -79 96 -106 125 -44 48 -52 52 -87 49 -37 -3 -39 -5
-36 -33 9 -85 123 -361 184 -448 11 -16 17 -31 14 -35 -13 -12 -97 42 -141 90
-32 36 -50 48 -72 48 -46 0 -55 -13 -63 -89 -11 -99 -31 -121 -113 -121 l-60
0 6 -67 c4 -38 7 -81 7 -97 0 -23 3 -27 17 -21 74 31 97 36 125 24 16 -6 31
-15 34 -20 9 -15 -164 -119 -213 -128 -25 -5 -52 -16 -62 -26 -15 -15 -14 -16
12 -10 15 4 27 3 27 -1 0 -5 -21 -40 -46 -79 -56 -87 -89 -189 -80 -252 5 -42
44 -128 54 -119 2 3 -2 30 -8 62 -22 104 12 207 91 278 36 32 78 55 171 91
154 60 212 66 288 32 l55 -24 -70 0 c-163 0 -293 -127 -340 -333 -17 -77 -13
-206 6 -195 5 4 9 16 9 27 0 21 1 21 28 -5 l28 -27 28 95 c16 52 33 95 37 95
5 0 10 -48 10 -107 2 -130 0 -144 -14 -162 -10 -12 -7 -13 22 -8 19 4 43 15
54 25 32 28 67 113 67 163 0 25 7 54 15 65 8 10 15 17 15 14 0 -3 5 -77 10
-165 8 -133 29 -268 44 -283 5 -4 62 33 120 78 45 35 103 40 162 15 44 -18 51
-14 60 33 16 89 82 173 124 156 8 -3 56 -16 105 -29 134 -33 153 -46 244 -165
30 -40 51 -48 181 -71 135 -24 152 -23 185 3 35 27 32 29 -139 64 -134 27
-140 29 -174 66 -46 49 -87 107 -81 113 3 2 27 -11 55 -30 27 -19 68 -48 92
-64 47 -32 187 -71 256 -71 36 0 52 6 79 30 33 28 39 30 121 30 50 0 85 -4 82
-9 -3 -5 -10 -94 -15 -198 -8 -150 -15 -207 -35 -281 -31 -111 -33 -185 -8
-227 10 -17 51 -70 90 -119 85 -106 102 -150 102 -268 0 -48 4 -88 8 -88 13 0
42 125 42 184 0 77 -23 137 -91 238 -43 64 -59 96 -59 121 0 50 29 138 58 176
l26 34 -29 111 c-23 87 -29 133 -30 216 l0 105 186 3 c161 2 188 0 193 -13 3
-9 9 -57 12 -108 6 -80 3 -106 -21 -202 -35 -143 -31 -193 23 -300 39 -77 79
-138 69 -105 -3 9 -17 71 -33 138 -27 121 -28 122 -9 159 23 48 29 155 17 303
-5 63 -7 121 -5 128 4 9 46 12 162 13 86 0 188 3 226 7 39 4 96 6 128 4 47 -3
57 -7 57 -22 0 -10 6 -23 14 -29 21 -18 285 -63 330 -58 41 6 88 43 112 90 22
41 84 107 101 107 9 0 13 -6 10 -14 -10 -27 -121 -170 -164 -214 -41 -41 -44
-42 -70 -29 -16 8 -41 17 -58 20 -16 3 -80 17 -142 30 -91 20 -115 22 -129 12
-22 -16 -12 -31 57 -87 78 -63 87 -67 181 -74 75 -6 89 -4 147 20 36 14 67 26
71 26 4 0 1 -35 -6 -77 -7 -43 -13 -104 -13 -135 -1 -31 -5 -60 -11 -63 -16
-10 -11 -47 14 -101 39 -84 65 -89 39 -8 l-16 50 27 27 c31 31 33 67 5 93 -18
17 -20 26 -14 109 9 141 12 148 84 257 72 110 93 130 160 148 57 15 92 6 151
-41 51 -40 80 -83 80 -119 0 -51 87 -80 137 -45 20 14 26 11 99 -49 43 -36 81
-63 85 -60 3 2 14 41 24 88 14 65 17 113 13 213 -4 113 -9 140 -40 228 -19 55
-38 109 -43 120 -5 14 4 9 29 -15 41 -39 137 -226 201 -393 36 -95 55 -126 55
-90 0 10 -11 94 -25 187 -14 94 -24 177 -22 185 1 9 15 -16 30 -55 15 -39 35
-80 43 -90 14 -17 15 -14 10 46 -4 35 -15 82 -25 102 -54 110 44 -34 155 -225
l39 -69 3 37 c4 42 -56 242 -95 319 -32 63 -115 146 -174 173 -26 12 -89 34
-140 49 -52 14 -98 30 -103 35 -5 4 7 16 28 25 32 16 43 16 103 5 169 -32 250
-77 338 -189 62 -77 131 -198 166 -285 32 -81 36 -69 15 48 -8 44 -22 129 -31
189 -37 249 -111 418 -214 488 l-23 17 22 46 c33 69 25 102 -58 225 -124 185
-172 304 -172 432 0 113 -31 204 -95 283 -56 69 -114 166 -136 227 -14 36 -37
74 -62 98 -45 46 -103 66 -522 185 -132 38 -244 71 -248 75 -4 4 35 49 86 101
150 150 160 213 72 442 -30 78 -84 223 -121 322 -175 475 -302 697 -514 898
-183 174 -435 309 -575 306 -22 0 -58 -6 -80 -13z m-142 -212 c3 -3 -6 -16
-21 -29 -26 -23 -27 -23 -9 -56 9 -19 22 -41 29 -50 17 -24 4 -46 -44 -70
-110 -55 -153 -116 -145 -203 3 -28 6 -58 8 -67 3 -11 -21 -33 -74 -69 -43
-28 -117 -89 -164 -133 -48 -45 -84 -75 -81 -67 79 206 192 490 213 533 36 73
94 129 186 177 74 40 91 45 102 34z m722 -173 c94 -74 218 -194 269 -261 49
-63 101 -149 94 -155 -2 -3 -22 19 -44 48 -21 28 -124 139 -229 246 -104 107
-183 190 -175 186 8 -5 47 -34 85 -64z m83 -260 c56 -33 149 -112 117 -100
-18 7 -215 140 -215 146 0 8 27 -4 98 -46z m-116 -219 c94 -51 122 -72 98 -72
-17 0 -210 113 -210 123 0 11 -5 13 112 -51z m-114 -408 c112 -23 107 -31 -11
-17 -56 6 -121 12 -144 12 -24 1 -43 6 -43 11 0 15 111 12 198 -6z m-558 -8
c0 -3 -17 -10 -37 -17 -21 -6 -211 -70 -422 -141 -211 -71 -385 -127 -387
-125 -11 11 347 163 499 213 147 47 347 88 347 70z m410 -46 c47 -6 153 -27
235 -47 125 -29 155 -40 178 -64 l28 -28 -43 -31 c-59 -43 -243 -132 -353
-170 -67 -23 -99 -29 -127 -25 -21 4 -38 3 -38 -2 0 -4 12 -44 26 -88 21 -64
34 -88 67 -119 40 -36 88 -65 142 -86 38 -14 30 -5 -25 30 -28 18 -48 35 -46
38 3 3 11 0 18 -5 22 -18 129 -54 163 -55 37 -1 71 21 144 92 36 35 52 61 69
113 12 37 22 76 22 87 0 10 5 22 12 26 18 11 2 -220 -18 -262 -24 -49 -54 -67
-196 -113 -69 -23 -181 -64 -249 -91 -166 -67 -176 -67 -397 16 -238 89 -292
115 -336 159 -50 50 -64 85 -71 181 l-6 79 24 -60 c32 -84 78 -147 133 -184
42 -27 49 -29 63 -17 14 13 19 13 35 0 34 -25 73 -16 189 44 109 55 113 59
139 112 15 30 30 70 33 88 7 32 6 32 -22 21 -81 -30 -335 80 -470 204 -24 22
-43 43 -43 48 0 11 173 64 275 84 177 35 304 42 445 25z m418 -56 c97 -20 277
-77 361 -115 99 -45 67 -43 -42 2 -83 34 -238 78 -407 116 -77 18 1 15 88 -3z
m-1624 -421 c8 -59 52 -139 101 -181 l36 -32 -29 0 c-40 0 -117 54 -162 114
-37 49 -65 104 -57 113 2 2 25 -19 51 -47 l47 -50 -7 71 c-8 82 9 91 20 12z
m2074 -37 c-1 -36 -2 -66 -2 -66 1 0 21 26 45 57 45 61 62 59 32 -4 -22 -48
-93 -118 -133 -131 -16 -6 -30 -9 -30 -8 0 2 14 33 30 69 17 35 33 88 37 116
9 74 26 48 21 -33z m-1881 -266 c165 -77 231 -151 393 -448 40 -73 80 -137 89
-141 19 -10 568 -21 671 -13 l73 5 44 91 c24 50 41 82 38 71 -11 -37 -35 -140
-35 -152 0 -10 106 -13 495 -13 l495 0 20 33 c11 17 32 64 46 102 37 99 60
133 105 155 21 11 40 20 43 20 3 0 36 -87 36 -97 0 -1 -22 -14 -48 -27 -72
-36 -142 -121 -142 -170 0 -10 28 -15 103 -20 56 -4 119 -12 139 -17 48 -12
78 -51 78 -100 0 -20 -63 -286 -140 -591 -76 -304 -155 -628 -175 -721 -19
-92 -42 -181 -50 -197 -20 -38 -55 -47 -108 -26 -51 19 -116 20 -254 4 -57 -6
-106 -8 -110 -4 -4 4 6 18 22 31 29 24 32 24 170 18 77 -3 157 -12 178 -19 25
-9 45 -10 56 -5 12 7 35 91 90 343 40 183 106 477 147 653 96 408 103 454 81
500 -9 19 -29 42 -44 52 -26 17 -102 18 -1537 19 -831 0 -1535 -3 -1565 -6
-39 -5 -60 -13 -73 -30 -32 -40 -33 -70 -5 -175 147 -543 310 -1179 326 -1270
6 -32 15 -63 20 -68 12 -12 102 13 108 30 3 8 -1 30 -10 49 -10 20 -12 34 -6
34 12 0 39 -61 39 -87 0 -17 12 -18 151 -15 86 2 156 -1 161 -6 11 -11 -36
-17 -276 -33 -159 -10 -170 -10 -186 8 -9 10 -36 92 -60 183 -69 266 -285
1012 -339 1175 -28 82 -51 163 -51 180 0 40 35 74 84 82 37 6 38 7 31 42 -13
75 -50 164 -87 206 -34 39 -49 75 -31 75 3 0 21 -11 39 -25 37 -28 93 -136
114 -220 7 -27 17 -54 22 -60 6 -7 191 -9 531 -6 287 1 523 4 524 5 5 4 -38
109 -73 179 -94 186 -181 276 -373 385 -61 35 -111 68 -111 73 0 14 29 4 127
-41z m1272 -62 c-152 -242 -239 -342 -343 -393 -66 -32 -91 -30 -191 19 -84
41 -171 117 -215 188 -18 29 -57 90 -86 134 -59 89 -68 120 -31 108 12 -4 24
-10 27 -13 3 -4 36 -54 74 -111 74 -112 138 -181 220 -236 43 -29 59 -34 106
-34 33 0 72 8 99 20 60 28 179 151 225 233 47 86 121 166 138 149 8 -8 2 -24
-23 -64z m-701 10 c5 -7 13 -24 16 -38 7 -24 6 -24 -18 5 -14 17 -26 33 -26
38 0 11 17 8 28 -5z m560 -10 c4 -19 -26 -51 -39 -43 -13 9 -11 39 3 53 15 15
32 10 36 -10z m-470 0 c16 -16 15 -58 -1 -58 -20 0 -37 22 -37 47 0 25 19 30
38 11z m968 -3 c-114 -86 -240 -216 -275 -283 -7 -13 -15 -21 -18 -18 -8 8 66
135 105 177 36 41 175 139 195 139 7 0 3 -7 -7 -15z m-568 -32 c-3 -33 -6 -38
-28 -38 -31 0 -39 34 -15 59 29 29 47 20 43 -21z m-320 -16 c3 -35 1 -38 -20
-35 -19 2 -24 10 -26 41 -3 35 -1 38 20 35 19 -2 24 -10 26 -41z m245 14 c6
-23 -18 -61 -37 -61 -15 0 -27 45 -19 67 8 21 50 16 56 -6z m-155 -33 c3 -34
1 -38 -20 -38 -32 0 -48 18 -48 53 0 26 3 28 33 25 29 -3 32 -6 35 -40z m80 4
c3 -26 -1 -34 -20 -41 -40 -16 -64 32 -32 64 25 25 49 15 52 -23z m1312 -53
c60 -29 110 -56 110 -61 0 -5 -18 1 -41 12 -58 30 -174 58 -274 66 -89 7 -94
11 -42 31 57 23 128 9 247 -48z m-2523 40 c30 -11 126 -70 121 -74 -2 -1 -37
3 -78 11 -41 7 -147 13 -234 14 -88 0 -156 3 -153 6 9 9 234 51 279 53 20 0
49 -4 65 -10z m1403 -28 c0 -28 -11 -52 -21 -45 -10 6 -12 48 -2 57 12 13 23
7 23 -12z m-379 -1 c20 -11 25 -45 10 -69 -7 -10 -13 -11 -30 -2 -15 9 -21 21
-21 46 0 37 9 42 41 25z m254 -56 c7 -61 -8 -93 -39 -81 -22 9 -22 94 1 119
25 28 30 23 38 -38z m72 39 c8 -20 -18 -68 -37 -68 -15 0 -32 49 -23 71 7 19
52 18 60 -3z m-227 -8 c12 -15 5 -115 -9 -115 -34 0 -72 76 -57 115 7 19 50
19 66 0z m82 -46 c-5 -83 -62 -86 -62 -3 0 36 3 43 23 47 37 7 42 2 39 -44z
m-387 -454 c176 0 690 4 1142 9 l821 9 31 -31 c25 -25 31 -39 31 -74 0 -51
-46 -249 -62 -263 -8 -7 -9 0 -4 25 39 207 42 238 22 265 -13 18 -61 19 -1557
20 -1011 2 -1552 -1 -1566 -8 -36 -16 -36 -54 2 -202 30 -118 37 -162 22 -144
-2 2 -23 73 -46 156 -47 168 -47 198 -3 234 l27 22 410 -9 c226 -5 554 -9 730
-9z m-1681 -640 c48 -37 55 -49 33 -58 -7 -3 -19 -30 -26 -60 -15 -68 -6 -90
55 -135 24 -18 44 -37 44 -42 0 -6 -21 -10 -47 -10 -41 0 -62 9 -145 61 -54
33 -98 63 -98 67 0 5 20 13 45 20 63 17 87 57 82 135 -2 31 0 57 3 57 4 0 28
-16 54 -35z m4158 -24 l33 -30 -56 6 c-43 4 -72 0 -123 -17 -37 -12 -70 -19
-73 -16 -7 6 154 85 174 86 7 0 27 -13 45 -29z m58 -261 c10 -7 -5 -10 -50 -9
-45 0 -59 3 -45 9 27 12 77 12 95 0z m-593 -222 c138 -79 227 -209 280 -410 9
-36 13 -75 10 -90 -7 -28 -53 -88 -67 -88 -5 0 -8 37 -8 83 0 94 -12 148 -53
228 -35 70 -132 192 -188 237 -67 54 -49 83 26 40z m-3039 -46 c9 -6 -5 -19
-45 -44 -78 -49 -100 -82 -129 -195 -46 -182 -43 -242 16 -298 55 -53 23 -65
-35 -14 -52 46 -65 77 -65 161 0 87 19 168 61 258 37 79 53 98 104 121 43 20
73 23 93 11z m2412 -171 c0 -15 -56 -20 -340 -31 -151 -6 -401 -15 -555 -22
-357 -15 -919 -20 -885 -8 38 13 459 48 775 63 154 8 1005 6 1005 -2z m-1702
-275 c67 -62 83 -68 181 -67 47 0 102 -3 121 -7 28 -7 16 -10 -65 -15 -186
-13 -201 -11 -226 24 -12 17 -40 48 -63 70 -37 35 -39 39 -18 39 13 0 42 -18
70 -44z m1807 34 c4 -6 -5 -10 -20 -10 -48 0 -93 -26 -114 -68 -11 -22 -27
-42 -36 -46 -19 -7 -545 41 -554 50 -3 4 113 4 259 0 l266 -7 29 32 c17 17 44
37 60 45 36 16 101 18 110 4z m-1040 -100 c4 -6 -17 -9 -57 -8 l-63 1 55 7
c30 4 56 7 57 8 1 1 5 -2 8 -8z"/>
<path d="M2457 4415 c-25 -50 -74 -199 -70 -216 6 -23 166 -22 171 2 1 8 -17
66 -41 129 l-44 114 -16 -29z"/>
<path d="M2288 4323 c-59 -31 -106 -58 -104 -60 9 -9 109 21 142 43 31 21 84
75 72 74 -2 0 -51 -26 -110 -57z"/>
<path d="M2977 1589 c-34 -81 -31 -101 18 -149 38 -36 41 -32 26 35 -4 17 -2
43 6 61 12 30 3 96 -15 116 -4 4 -20 -25 -35 -63z"/>
<path d="M2721 1618 c-28 -94 -31 -209 -6 -283 15 -44 16 -61 5 -153 -19 -159
3 -289 71 -423 27 -55 27 -57 12 -100 -20 -58 -12 -161 19 -254 l23 -70 6 120
c6 134 17 166 66 196 18 11 33 28 33 36 0 8 -23 44 -51 80 -29 35 -58 81 -65
101 -30 84 -7 199 61 305 56 88 64 133 35 209 -12 32 -26 60 -31 63 -5 4 -9
-31 -9 -84 0 -49 -4 -92 -9 -95 -5 -3 -19 22 -31 57 -13 34 -34 83 -47 109
-12 26 -23 65 -23 87 0 35 -32 131 -44 131 -2 0 -9 -15 -15 -32z"/>
<path d="M2326 1604 c-3 -9 -6 -33 -6 -55 0 -30 -6 -45 -29 -65 -40 -35 -43
-57 -15 -110 15 -28 24 -62 24 -90 0 -24 9 -77 20 -116 27 -98 26 -113 -15
-161 -47 -55 -46 -84 10 -179 54 -93 73 -108 43 -36 -11 29 -23 67 -25 83 -4
27 0 33 35 53 44 24 56 45 43 70 -23 45 -61 231 -59 290 3 60 2 64 -29 88 -42
32 -41 47 2 73 46 27 50 40 35 111 -13 60 -23 73 -34 44z"/>
<path d="M1886 1568 c-14 -21 -16 -38 -10 -87 4 -39 2 -77 -6 -106 -15 -53 -2
-95 36 -120 33 -21 33 -20 16 29 -15 42 -15 45 8 89 22 42 23 50 13 99 -6 29
-17 69 -25 88 l-14 35 -18 -27z"/>
<path d="M3104 1492 c9 -53 50 -146 108 -245 62 -108 67 -150 26 -232 -63
-125 -98 -231 -98 -299 0 -78 10 -105 78 -209 51 -78 51 -79 36 -109 -19 -36
-13 -77 16 -118 16 -22 20 -44 20 -102 1 -52 6 -83 20 -108 l18 -35 -5 62 c-5
52 -2 68 16 99 20 33 21 38 6 60 -21 32 -19 45 12 90 41 60 36 87 -37 192 -57
83 -64 99 -68 151 -5 64 6 90 83 211 85 132 98 167 92 238 -7 88 -44 146 -122
192 -33 19 -77 53 -97 75 -20 22 -53 58 -73 80 l-37 40 6 -33z"/>
<path d="M1610 1428 c-74 -117 -66 -157 54 -257 110 -92 110 -92 101 -149 -16
-99 -12 -139 17 -169 35 -35 45 -24 24 27 -23 58 -20 72 19 98 71 46 44 134
-81 263 -41 41 -74 84 -74 95 0 11 12 36 26 57 25 37 25 39 7 59 -41 46 -50
43 -93 -24z"/>
<path d="M2623 753 c-24 -8 -58 -32 -82 -58 -68 -74 -77 -164 -26 -265 28 -56
31 -75 21 -140 -7 -39 -3 -53 24 -105 19 -34 35 -84 39 -115 l7 -55 9 39 c5
25 3 63 -4 102 -15 73 -9 109 25 155 33 45 30 68 -16 140 -22 34 -42 77 -46
96 -10 52 13 113 58 156 52 49 49 69 -9 50z"/>
</g>
</svg>
