<svg xmlns="http://www.w3.org/2000/svg"  viewBox="0 0 48 48" width="48px" height="48px" clip-rule="evenodd" baseProfile="basic"><path fill-rule="evenodd" d="M7.999,32.52v2.013h32.004V32.52	H7.999z" clip-rule="evenodd"/><path fill-rule="evenodd" d="M3.002,13.427v8.147h42.001v-8.147	H3.002z" clip-rule="evenodd"/><path fill-rule="evenodd" d="M17.003,43	c0-0.12-0.148-0.493-1.744-1.587c-0.187-0.133-0.392-0.267-0.605-0.413h-0.151c-3.589,0-6.501-2.907-6.501-6.507	c0-1.427,0.465-2.76,1.255-3.827l-0.028-0.04c-1.117-1.213-2.225-2.8-2.225-4.627v-2.493l-0.121,0.08l-0.265,0.16	C6.278,23.907,5.899,24,5.502,24c-1.381,0-2.501-1.12-2.501-2.493c0-0.507,0.148-0.973,0.403-1.373L3.502,20l-0.099-0.133	c-0.255-0.4-0.403-0.867-0.403-1.36c0-0.507,0.147-0.973,0.401-1.36L3.502,17l-0.099-0.133c-0.255-0.4-0.401-0.867-0.401-1.36	C3.002,14.12,4.122,13,5.503,13c0.397,0,0.776,0.093,1.111,0.267l0.265,0.16l0.815,0.493C10.154,8.68,18.617,6,24.001,6	c5.327,0,13.821,2.707,16.3,7.92l0.819-0.493l0.265-0.16C41.719,13.093,42.098,13,42.498,13c1.38,0,2.501,1.12,2.501,2.507	c0,0.493-0.148,0.96-0.403,1.36L44.498,17l0.1,0.147c0.255,0.387,0.403,0.853,0.403,1.36c0,0.493-0.149,0.96-0.405,1.36L44.498,20	l0.097,0.133c0.256,0.4,0.405,0.867,0.405,1.373c0,1.373-1.121,2.493-2.501,2.493c-0.4,0-0.779-0.093-1.116-0.253l-0.267-0.16	l-0.116-0.067V26c0,1.827-1.109,3.413-2.228,4.627l-0.027,0.027c0.791,1.08,1.259,2.413,1.259,3.84c0,3.6-2.913,6.507-6.501,6.507	h-0.156c-0.215,0.147-0.419,0.28-0.604,0.413c-1.488,1.013-1.743,1.36-1.743,1.587c0,1.653-1.344,3-3,3h-7.997	C18.346,46,17.003,44.653,17.003,43z" clip-rule="evenodd"/><path fill="#fff" fill-rule="evenodd" d="M28.001,43h-7.997	c-1.104,0-2-0.893-2-2c0-1.747-4.141-3.013-5-5l-2-7c-1.393-1.333-3-3.053-3-5v-9c0-6.293,9.704-10,15.997-10	c6.293,0,16,3.707,16,10v9c0,1.947-1.607,3.667-3,5l-2,7c-0.859,1.987-5,3.253-5,5C30.001,42.107,29.105,43,28.001,43z" clip-rule="evenodd"/><path fill-rule="evenodd" d="M17.003,41	c0-0.12-0.148-0.493-1.744-1.587c-1.019-0.693-2.601-1.693-3.175-3.013c-0.017-0.04-0.032-0.08-0.044-0.12l-1.931-6.76l-0.881-0.893	c-1.117-1.213-2.225-2.8-2.225-4.627v-9c0-7.267,10.644-11,16.997-11c6.292,0,17,3.76,17,11v9c0,1.827-1.109,3.413-2.228,4.627	l-0.881,0.893l-1.929,6.76c-0.012,0.04-0.027,0.08-0.044,0.12c-0.573,1.32-2.156,2.32-3.175,3.013	c-1.488,1.013-1.743,1.36-1.743,1.587c0,1.653-1.344,3-3,3h-7.997C18.346,44,17.003,42.653,17.003,41z M29.001,41	c0-1.613,1.872-2.733,2.612-3.24c0.949-0.653,1.703-1.16,2.14-1.667l0.312-0.467l1.973-6.907c0.049-0.16,0.141-0.32,0.269-0.44	c1.451-1.4,2.693-2.827,2.693-4.28v-9c0-5.307-8.768-9-15-9C17.71,6,9.003,9.653,9.003,15v9c0,1.453,1.241,2.88,2.692,4.28	c0.128,0.12,0.22,0.28,0.269,0.44l1.972,6.907l0.312,0.467c0.437,0.507,1.191,1.013,2.141,1.667c0.817,0.56,2.613,1.707,2.613,3.24	c0,0.547,0.448,1,1,1h7.997C28.551,42,29.001,41.547,29.001,41z" clip-rule="evenodd"/><path fill="#fff" fill-rule="evenodd" d="M33.503,38h-19	c-3.036,0-5.501-2.467-5.501-5.507c0-3.027,2.465-5.493,5.501-5.493c0.096,0,0.192,0,0.283,0c-1.552,0.12-2.783,1.413-2.783,3	c0,1.653,1.345,3,3.001,3c0.985,0,1.861-0.48,2.408-1.213c0.547-0.733,1.072-1.64,1.591-2.787c1.14,1.293,2.921,2,5,2	s3.86-0.707,5-2c0.519,1.147,1.044,2.053,1.591,2.787C31.141,32.52,32.017,33,33.002,33c1.656,0,3.001-1.347,3.001-3	c0-1.587-1.231-2.88-2.783-3c0.091,0,0.187,0,0.283,0c3.036,0,5.501,2.467,5.501,5.493C39.005,35.533,36.539,38,33.503,38z" clip-rule="evenodd"/><path fill-rule="evenodd" d="M8.002,32.493	c0-3.587,2.912-6.493,6.501-6.493c0.113,0,0.229,0,0.341,0.013c1.233,0.067,1.244,1.907,0.011,1.987	c-1.031,0.08-1.852,0.947-1.852,2c0,1.107,0.897,2,2.001,2c0.655,0,1.239-0.32,1.604-0.813c0.496-0.667,0.987-1.507,1.483-2.6	c0.3-0.653,1.184-0.787,1.663-0.253C20.662,29.373,22.142,30,24.003,30c1.86,0,3.34-0.627,4.248-1.667	c0.479-0.533,1.363-0.4,1.663,0.253c0.496,1.093,0.987,1.933,1.483,2.6C31.762,31.68,32.346,32,33.002,32	c1.103,0,2.001-0.893,2.001-2c0-1.053-0.823-1.92-1.853-2c-1.233-0.08-1.223-1.92,0.011-1.987C33.273,26,33.389,26,33.503,26	c3.588,0,6.501,2.907,6.501,6.493c0,3.6-2.913,6.507-6.501,6.507h-19C10.914,39,8.002,36.093,8.002,32.493z M38.005,32.493	c0-0.92-0.284-1.787-0.771-2.507l-0.248-0.333L37.003,30c0,2.213-1.793,4-4.001,4c-1.316,0-2.484-0.64-3.212-1.613	c-0.299-0.4-0.588-0.853-0.871-1.347l-0.232-0.427l-0.088,0.067C27.327,31.56,25.725,32,24.003,32c-1.724,0-3.325-0.44-4.599-1.32	l-0.088-0.067l-0.232,0.427c-0.281,0.493-0.571,0.947-0.869,1.347C17.487,33.36,16.319,34,15.005,34c-2.209,0-4.001-1.787-4.001-4	l0.016-0.347l-0.249,0.333c-0.485,0.72-0.768,1.587-0.768,2.507c0,2.493,2.017,4.507,4.501,4.507h19	C35.986,37,38.005,34.987,38.005,32.493z" clip-rule="evenodd"/><path fill="#fff" fill-rule="evenodd" d="M4.001,19.507	c0-0.813,0.637-1.467,1.424-1.507c-0.787-0.027-1.424-0.693-1.424-1.493c0-0.813,0.631-1.467,1.424-1.507	c-0.792-0.04-1.423-0.693-1.423-1.493C4.002,12.68,4.675,12,5.503,12c0.319,0,0.615,0.107,0.857,0.267l3.28,2	c0.808,0.413,1.363,1.267,1.363,2.227c0,0.947-0.525,1.773-1.3,2.2l-3.34,2.04C6.119,20.907,5.822,21,5.502,21	C4.674,21,4.001,20.333,4.001,19.507z" clip-rule="evenodd"/><path fill-rule="evenodd" d="M3.001,19.507	c0-0.507,0.148-0.973,0.403-1.373L3.502,18l-0.099-0.133c-0.255-0.4-0.403-0.867-0.403-1.36c0-0.507,0.147-0.973,0.401-1.36	L3.502,15l-0.099-0.133c-0.255-0.4-0.401-0.867-0.401-1.36C3.002,12.12,4.122,11,5.503,11c0.397,0,0.776,0.093,1.111,0.267	l0.265,0.16l3.28,2l0.343,0.2c0.904,0.627,1.501,1.68,1.501,2.867c0,1.16-0.567,2.187-1.432,2.827l-0.349,0.227l-3.34,2.04	l-0.265,0.16C6.278,21.907,5.899,22,5.502,22C4.121,22,3.001,20.88,3.001,19.507z M5.786,19.907l0.056-0.027l3.34-2.04l0.04-0.027	c0.468-0.253,0.781-0.747,0.781-1.32c0-0.573-0.332-1.08-0.82-1.333l-0.064-0.04l-3.28-2l-0.055-0.027	C5.705,13.04,5.609,13,5.503,13c-0.276,0-0.501,0.227-0.501,0.507c0,0.267,0.211,0.48,0.475,0.493c1.249,0.067,1.248,1.933-0.003,2	c-0.263,0.013-0.473,0.24-0.473,0.507S5.219,16.987,5.466,17c1.263,0.053,1.265,1.947,0.003,2c-0.251,0.013-0.468,0.227-0.468,0.507	C5.001,19.773,5.226,20,5.502,20C5.61,20,5.707,19.973,5.786,19.907z" clip-rule="evenodd"/><path fill-rule="evenodd" d="M15.003,23	c0.552,0,1.001,0.453,1.001,1s-0.449,1-1.001,1c-0.552,0-1.001-0.453-1.001-1S14.451,23,15.003,23z" clip-rule="evenodd"/><path fill-rule="evenodd" d="M19.005,23	c0.552,0,1.001,0.453,1.001,1s-0.449,1-1.001,1s-1.001-0.453-1.001-1S18.453,23,19.005,23z" clip-rule="evenodd"/><path fill-rule="evenodd" d="M19.873,23.507l-1.623,1.147	C17.882,24.253,17.469,24,17.001,24c-0.465,0-0.879,0.253-1.247,0.653l-1.621-1.147c0.82-1.52,1.764-2.507,2.868-2.507	C18.109,21,19.053,21.987,19.873,23.507z" clip-rule="evenodd"/><path fill-rule="evenodd" d="M20.505,18	c0.828,0,1.501,0.667,1.501,1.493S21.333,21,20.505,21c-0.828,0-1.501-0.68-1.501-1.507S19.677,18,20.505,18z" clip-rule="evenodd"/><path fill-rule="evenodd" d="M13.503,17	c0.276,0,0.5,0.227,0.5,0.493c0,0.28-0.224,0.507-0.5,0.507c-0.276,0-0.5-0.227-0.5-0.507C13.003,17.227,13.227,17,13.503,17z" clip-rule="evenodd"/><path fill-rule="evenodd" d="M22.007,19.48	c0-1.88-1.593-4.48-5.004-4.48c-1.883,0-2.928,0.987-3.893,2.187l0.741,0.667c0.512-0.587,1.219-0.827,2.152-0.853	c1.356,0.04,2.997,1.28,2.997,2.533L22.007,19.48z" clip-rule="evenodd"/><path fill="#fff" fill-rule="evenodd" d="M44.001,19.507	c0-0.813-0.637-1.467-1.424-1.507c0.787-0.027,1.424-0.693,1.424-1.493c0-0.813-0.631-1.467-1.424-1.507	c0.792-0.04,1.423-0.693,1.423-1.493c0-0.827-0.673-1.507-1.501-1.507c-0.319,0-0.615,0.107-0.857,0.267l-3.28,2	c-0.808,0.413-1.363,1.267-1.363,2.227c0,0.947,0.525,1.773,1.3,2.2l3.34,2.04C41.882,20.907,42.179,21,42.499,21	C43.327,21,44.001,20.333,44.001,19.507z" clip-rule="evenodd"/><path fill-rule="evenodd" d="M41.117,21.587l-3.34-2.04	l-0.349-0.227c-0.865-0.64-1.429-1.667-1.429-2.827c0-1.187,0.595-2.24,1.499-2.867l0.343-0.2l3.28-2l0.265-0.16	C41.719,11.093,42.098,11,42.498,11c1.38,0,2.501,1.12,2.501,2.507c0,0.493-0.148,0.96-0.403,1.36L44.498,15l0.1,0.147	c0.255,0.387,0.403,0.853,0.403,1.36c0,0.493-0.149,0.96-0.405,1.36L44.498,18l0.097,0.133c0.256,0.4,0.405,0.867,0.405,1.373	c0,1.373-1.121,2.493-2.501,2.493c-0.4,0-0.779-0.093-1.116-0.253L41.117,21.587z M43.001,19.507c0-0.28-0.219-0.493-0.469-0.507	c-1.263-0.053-1.26-1.947,0.003-2c0.247-0.013,0.467-0.227,0.467-0.493S42.789,16.013,42.526,16c-1.251-0.067-1.252-1.933-0.003-2	c0.264-0.013,0.476-0.227,0.476-0.493c0-0.28-0.227-0.507-0.501-0.507c-0.107,0-0.203,0.04-0.283,0.093l-0.055,0.027l-3.28,2	l-0.064,0.04c-0.488,0.253-0.819,0.76-0.819,1.333c0,0.573,0.312,1.067,0.78,1.32l0.04,0.027l3.34,2.04l0.056,0.027	C42.293,19.973,42.39,20,42.499,20C42.774,20,43.001,19.773,43.001,19.507z" clip-rule="evenodd"/><path fill-rule="evenodd" d="M32.998,23	c-0.552,0-1.001,0.453-1.001,1s0.449,1,1.001,1c0.552,0,1.001-0.453,1.001-1S33.55,23,32.998,23z" clip-rule="evenodd"/><path fill-rule="evenodd" d="M28.997,23	c-0.552,0-1.001,0.453-1.001,1s0.449,1,1.001,1s1.001-0.453,1.001-1S29.549,23,28.997,23z" clip-rule="evenodd"/><path fill-rule="evenodd" d="M28.129,23.507l1.623,1.147	c0.368-0.4,0.781-0.653,1.249-0.653c0.465,0,0.879,0.253,1.247,0.653l1.621-1.147C33.049,21.987,32.105,21,31.001,21	C29.893,21,28.949,21.987,28.129,23.507z" clip-rule="evenodd"/><path fill-rule="evenodd" d="M27.497,18	c-0.828,0-1.501,0.667-1.501,1.493S26.669,21,27.497,21c0.828,0,1.501-0.68,1.501-1.507S28.325,18,27.497,18z" clip-rule="evenodd"/><path fill-rule="evenodd" d="M34.498,17	c-0.276,0-0.5,0.227-0.5,0.493c0,0.28,0.224,0.507,0.5,0.507s0.5-0.227,0.5-0.507C34.998,17.227,34.774,17,34.498,17z" clip-rule="evenodd"/><path fill-rule="evenodd" d="M25.994,19.48	c0-1.88,1.593-4.48,5.004-4.48c1.883,0,2.928,0.987,3.893,2.187l-0.741,0.667c-0.512-0.587-1.219-0.827-2.152-0.853	c-1.356,0.04-2.997,1.28-2.997,2.533L25.994,19.48z" clip-rule="evenodd"/></svg>