<?xml version="1.0" encoding="UTF-8"?>
<svg version="1.1" xmlns="http://www.w3.org/2000/svg" width="600" height="600">
<path d="M0 0 C198 0 396 0 600 0 C600 198 600 396 600 600 C402 600 204 600 0 600 C0 402 0 204 0 0 Z " fill="#079BB4" transform="translate(0,0)"/>
<path d="M0 0 C5.12842277 1.56070672 10.29015247 2.88699965 15.5 4.14453125 C23.27619839 6.0403243 30.95999069 8.17794065 38.64453125 10.4140625 C44.56702424 12.12500492 50.5114466 13.68275837 56.5 15.14453125 C64.27570725 17.04253853 71.95988611 19.17791022 79.64453125 21.4140625 C85.56704303 23.12501035 91.51153292 24.68236146 97.5 26.14453125 C107.13106863 28.50150566 116.65570043 31.1714976 126.16748047 33.96875 C128.28450651 34.58209814 130.40667493 35.16624181 132.53515625 35.73828125 C139.73073555 37.75012304 143.7927759 39.55078648 148.01635742 45.9375 C149.59192144 48.81224968 150.36073572 51.33406755 151.11328125 54.51953125 C151.52634521 56.22882813 151.52634521 56.22882813 151.94775391 57.97265625 C152.23312012 59.184375 152.51848633 60.39609375 152.8125 61.64453125 C154.92377351 70.36320508 157.09912061 79.03624188 159.625 87.64453125 C161.80662429 95.09906927 163.76418748 102.58178277 165.60595703 110.12695312 C167.09695462 116.17648277 168.75927318 122.1624396 170.5 128.14453125 C172.71777902 135.76603582 174.72334529 143.41436519 176.60546875 151.125 C178.31302195 158.053098 180.26230701 164.89765485 182.25854492 171.74731445 C184.33589272 178.93015691 186.18277765 186.15828894 187.93945312 193.42578125 C188.90787705 197.6424868 188.90787705 197.6424868 190.5 201.64453125 C190.67455695 203.55607295 190.76715146 205.47557181 190.8125 207.39453125 C190.84988281 208.420625 190.88726562 209.44671875 190.92578125 210.50390625 C190.11146808 216.51039971 185.7975901 220.5975613 181.64881897 224.75640869 C181.17523703 225.23381618 180.70165508 225.71122367 180.21372217 226.20309806 C178.63945008 227.78761706 177.05820029 229.36497375 175.47680664 230.94238281 C174.34107995 232.08246043 173.20577073 233.22295406 172.07084656 234.36383057 C168.99709723 237.45093621 165.91700867 240.53164116 162.83530736 243.61080647 C160.26129076 246.18375165 157.6902606 248.75967092 155.1191749 251.33554435 C149.05485654 257.41094497 142.98524087 263.48101733 136.91235352 269.54785156 C130.64836679 275.80579071 124.39363076 282.07286841 118.14331537 288.34445977 C112.77281128 293.73257134 107.39652705 299.11486704 102.01558393 304.49255347 C98.80338672 307.70293726 95.59345793 310.91550936 92.38911629 314.13373566 C89.37770745 317.15770519 86.35915098 320.17435175 83.33493233 323.18550873 C82.22658045 324.29149194 81.12078073 325.40003958 80.01774216 326.51132202 C78.51138799 328.02811991 76.99607847 329.53537143 75.47816467 331.04058838 C74.63254502 331.88637577 73.78692537 332.73216316 72.91568089 333.60358047 C68.21793475 337.57259338 63.77464401 338.14228312 57.80859375 338.0234375 C53.24852904 337.50121049 49.02378601 336.21621713 44.66601562 334.84326172 C38.41579868 332.87484924 32.11637394 331.25558124 25.75 329.70703125 C17.15634426 327.60117527 8.64651412 325.30230986 0.15332031 322.82446289 C-5.70123319 321.12770805 -11.57869754 319.59002567 -17.5 318.14453125 C-24.29938 316.4846826 -31.03112621 314.6672292 -37.75 312.70703125 C-45.37613272 310.48309997 -53.03503393 308.47439291 -60.75 306.58203125 C-69.18997148 304.51092217 -77.53745865 302.25793986 -85.8515625 299.73046875 C-89.11518939 298.75906803 -92.38434748 297.90560547 -95.6875 297.08203125 C-101.32220638 295.53675571 -105.1277234 293.67853806 -108.4765625 288.71484375 C-111.1535261 283.86249367 -112.21082099 278.63371045 -113.4375 273.26953125 C-113.95421816 271.10479534 -114.47376216 268.94073205 -114.99609375 266.77734375 C-115.24987793 265.72450195 -115.50366211 264.67166016 -115.76513672 263.58691406 C-116.72728331 259.73449191 -117.8355894 255.93982181 -119 252.14453125 C-121.380099 244.33504141 -123.32467699 236.43531487 -125.26953125 228.5078125 C-126.71155532 222.67316126 -128.24923836 216.89380656 -130 211.14453125 C-132.06469128 204.36435151 -133.81138261 197.52753497 -135.5 190.64453125 C-137.32943927 183.18787337 -139.27971367 175.81120375 -141.52636719 168.47045898 C-144.05885905 160.0352351 -146.08758038 151.46441483 -148.17749023 142.91113281 C-148.60783569 141.15687988 -148.60783569 141.15687988 -149.046875 139.3671875 C-149.30307617 138.31281494 -149.55927734 137.25844238 -149.82324219 136.17211914 C-150.40135738 133.67459661 -150.40135738 133.67459661 -151.5 131.64453125 C-151.67455695 129.73298955 -151.76715146 127.81349069 -151.8125 125.89453125 C-151.84988281 124.8684375 -151.88726562 123.84234375 -151.92578125 122.78515625 C-151.11106081 116.77565869 -146.79580872 112.69007258 -142.64208984 108.53265381 C-142.16780233 108.05524632 -141.69351482 107.57783883 -141.20485497 107.08596444 C-139.62824979 105.50143756 -138.04466009 103.92409028 -136.4609375 102.34667969 C-135.32358055 101.20661037 -134.18664902 100.06611651 -133.05010986 98.92523193 C-129.9721946 95.83822186 -126.88801425 92.75754404 -123.80237579 89.67825603 C-120.57146873 86.45242155 -117.34545443 83.22169995 -114.11865234 79.99176025 C-108.7018346 74.57130759 -103.28082151 69.15507756 -97.85742188 63.74121094 C-91.5870362 57.48171987 -85.32390279 51.21504159 -79.06446648 44.94460273 C-73.68715614 39.55821915 -68.3059615 34.17573946 -62.92149544 28.79650903 C-59.70671574 25.58484741 -56.4933028 22.37184963 -53.28338623 19.15532684 C-50.26736847 16.13353536 -47.24650699 13.1166716 -44.22182465 10.10355377 C-43.11231883 8.99669392 -42.00451415 7.88812587 -40.89853668 6.77774048 C-39.38956954 5.26331431 -37.87458674 3.75517363 -36.35791016 2.24847412 C-35.51136871 1.40268673 -34.66482727 0.55689934 -33.79263306 -0.31451797 C-24.1142096 -8.93045667 -10.90375042 -3.31857458 0 0 Z " fill="#F6FBFC" transform="translate(280.5,133.35546875)"/>
<path d="M0 0 C2.59521484 1.06298828 2.59521484 1.06298828 5.2109375 2.5703125 C6.19570068 3.12968506 7.18046387 3.68905762 8.19506836 4.26538086 C9.2444458 4.87905518 10.29382324 5.49272949 11.375 6.125 C12.4791626 6.75736572 13.5833252 7.38973145 14.72094727 8.04125977 C18.15568401 10.01363687 21.57872626 12.00438057 25 14 C27.02206906 15.17329145 29.04420175 16.34647324 31.06640625 17.51953125 C34.99835934 19.80556565 38.92453808 22.10118492 42.84765625 24.40234375 C50.57238217 28.92899056 58.33413765 33.39121455 66.09741211 37.85131836 C69.06870281 39.56113435 72.03480434 41.27964134 75 43 C75.95938477 43.54914063 76.91876953 44.09828125 77.90722656 44.6640625 C78.80666992 45.18742187 79.70611328 45.71078125 80.6328125 46.25 C81.4283252 46.70890625 82.22383789 47.1678125 83.04345703 47.640625 C85 49 85 49 87 52 C87.26006222 53.93253136 87.26006222 53.93253136 87.27415466 56.16146851 C87.28412979 57.00819626 87.29410492 57.85492401 87.30438232 58.72731018 C87.305047 59.65309372 87.30571167 60.57887726 87.30639648 61.53271484 C87.31472 62.51023209 87.32304352 63.48774933 87.33161926 64.49488831 C87.35575937 67.73361162 87.3644962 70.9721337 87.37109375 74.2109375 C87.38005681 76.45911725 87.38917859 78.70729637 87.39845276 80.95547485 C87.41495607 85.67150321 87.42264536 90.38746045 87.42553711 95.10351562 C87.43092315 101.14879089 87.46860728 107.19339866 87.51428127 113.23848534 C87.5440121 117.88303065 87.5512598 122.52741445 87.55226326 127.17204666 C87.55647321 129.40081465 87.56893836 131.62958279 87.58978081 133.85825729 C87.61661269 136.975504 87.61189365 140.09119319 87.59936523 143.20849609 C87.62161667 144.59109871 87.62161667 144.59109871 87.64431763 146.00163269 C87.59287038 150.49298571 87.49162663 152.3785273 84.62338257 156.00431824 C82.03855906 157.97066702 79.49712629 159.68260932 76.66796875 161.27734375 C75.63478516 161.86580078 74.60160156 162.45425781 73.53710938 163.06054688 C72.43173828 163.67994141 71.32636719 164.29933594 70.1875 164.9375 C69.01965587 165.59998433 67.8523465 166.26341214 66.68554688 166.92773438 C64.88921776 167.95026869 63.09255382 168.97216082 61.29415894 169.99105835 C55.49859696 173.27484013 49.74706282 176.63214417 44 180 C35.32825676 185.06915469 26.63902794 190.1072135 17.9375 195.125 C16.84888672 195.75277344 15.76027344 196.38054687 14.63867188 197.02734375 C12.63018061 198.1847794 10.61912298 199.3377783 8.60498047 200.48535156 C7.02113976 201.40626513 5.45234089 202.35467692 3.91455078 203.35058594 C1.09693183 205.1519513 -0.50566602 206.04160133 -3.89233398 205.7565918 C-6.99190212 205.00197151 -9.13134671 204.04113745 -11.8515625 202.40234375 C-12.77066406 201.85642578 -13.68976563 201.31050781 -14.63671875 200.74804688 C-16.11591797 199.85182617 -16.11591797 199.85182617 -17.625 198.9375 C-19.78304329 197.65358399 -21.94193216 196.37108843 -24.1015625 195.08984375 C-25.22981445 194.41808105 -26.35806641 193.74631836 -27.52050781 193.05419922 C-32.72162778 189.97173581 -37.98004737 186.98964877 -43.23635864 184.00265503 C-52.91109362 178.5024315 -62.56432152 172.96497876 -72.1875 167.375 C-73.14849609 166.81941406 -74.10949219 166.26382813 -75.09960938 165.69140625 C-91.40327344 156.19345312 -91.40327344 156.19345312 -93 153 C-93.10178303 151.65580021 -93.14370082 150.30679522 -93.15390015 148.95878601 C-93.16250061 148.11343292 -93.17110107 147.26807983 -93.17996216 146.39710999 C-93.18422211 145.46773117 -93.18848206 144.53835236 -93.19287109 143.58081055 C-93.20104858 142.60343933 -93.20922607 141.62606812 -93.21765137 140.61907959 C-93.24252533 137.3749656 -93.25902584 134.1308954 -93.2734375 130.88671875 C-93.27876118 129.78050486 -93.28408485 128.67429096 -93.28956985 127.53455544 C-93.31630914 121.68035194 -93.33568225 115.82616984 -93.35009766 109.97192383 C-93.36675444 103.91880844 -93.41153914 97.86623655 -93.4624691 91.81332684 C-93.49608909 87.16450865 -93.50766933 82.51582035 -93.51332474 77.86689186 C-93.52005087 75.6353216 -93.53530803 73.40376029 -93.55921555 71.17230797 C-93.59075874 68.05020941 -93.59091988 64.92958845 -93.58349609 61.80737305 C-93.59990143 60.88406693 -93.61630676 59.9607608 -93.63320923 59.00947571 C-93.58940461 54.51335102 -93.49347393 52.62495915 -90.62557983 48.99291992 C-88.03338698 47.02534205 -85.49897231 45.35582106 -82.640625 43.80078125 C-81.61654541 43.23689697 -80.59246582 42.6730127 -79.53735352 42.09204102 C-77.91011353 41.21116821 -77.91011353 41.21116821 -76.25 40.3125 C-73.97188941 39.05868397 -71.69454609 37.80347284 -69.41796875 36.546875 C-68.31114746 35.93779297 -67.20432617 35.32871094 -66.06396484 34.70117188 C-62.19153927 32.55112714 -58.36837039 30.3277271 -54.5625 28.0625 C-45.12503833 22.46000336 -35.61539787 16.98431703 -26.09765625 11.51953125 C-22.52306068 9.46492017 -18.96373374 7.39176658 -15.43359375 5.26171875 C-14.79381592 4.88031738 -14.15403809 4.49891602 -13.49487305 4.10595703 C-11.90266177 3.15379375 -10.31808944 2.18888617 -8.734375 1.22265625 C-5.4969689 -0.22492676 -3.52544752 -0.26491329 0 0 Z " fill="#079BB4" transform="translate(303,196)"/>
<path d="M0 0 C3.47953075 1.31260033 6.62361333 2.84039734 9.82421875 4.73046875 C10.75669434 5.27823975 11.68916992 5.82601074 12.64990234 6.39038086 C14.15351318 7.27995483 14.15351318 7.27995483 15.6875 8.1875 C17.86033348 9.46412666 20.03352265 10.7401481 22.20703125 12.015625 C23.32932129 12.67498047 24.45161133 13.33433594 25.60791016 14.01367188 C31.01565889 17.18032249 36.44463509 20.30984045 41.875 23.4375 C42.95209229 24.05834473 44.02918457 24.67918945 45.13891602 25.31884766 C48.42563392 27.21310391 51.7127527 29.10666261 55 31 C62.58129525 35.36655611 70.16042806 39.73678777 77.73486328 44.11523438 C80.55467555 45.74294117 83.37694115 47.36629395 86.20031738 48.98780823 C88.99013269 50.59184396 91.77595633 52.20278948 94.5625 53.8125 C95.59842285 54.40554932 96.6343457 54.99859863 97.70166016 55.60961914 C98.64702637 56.15739014 99.59239258 56.70516113 100.56640625 57.26953125 C101.40115479 57.75010986 102.23590332 58.23068848 103.09594727 58.72583008 C105 60 105 60 106 62 C85.76168074 63.0651747 65.42785816 54.55931026 48 45 C47.07703125 44.49597656 46.1540625 43.99195313 45.203125 43.47265625 C29.37657734 34.3749115 16.16950337 22.31520024 5 8 C3.98441971 6.80800435 2.96462886 5.61955891 1.9375 4.4375 C0 2 0 2 0 0 Z " fill="#0D9DB5" transform="translate(182,380)"/>
<path d="M0 0 C3.18044143 4.24058857 4.71647342 7.95734797 6.5 12.875 C6.80897217 13.72344482 7.11794434 14.57188965 7.4362793 15.44604492 C9.96149995 22.55891744 11.74885519 29.54599639 13 37 C13.20367187 38.09054687 13.40734375 39.18109375 13.6171875 40.3046875 C16.14291032 55.28602971 15.42522539 70.07024371 13 85 C12.89042969 85.95390625 12.78085937 86.9078125 12.66796875 87.890625 C11.08239182 100.36615336 6.05436078 112.54654026 1 124 C0.67 124 0.34 124 0 124 C0 83.08 0 42.16 0 0 Z " fill="#109EB6" transform="translate(428,238)"/>
<path d="M0 0 C0.99 0.495 0.99 0.495 2 1 C-20.1735159 31.9385763 -52.53124473 54.16873477 -90.5625 60.5 C-94.72614414 60.97870775 -98.81351217 61.19472036 -103 61 C-100.22262654 58.01114732 -97.56071009 55.98949092 -93.984375 54.0390625 C-92.9931665 53.49258057 -92.00195801 52.94609863 -90.98071289 52.38305664 C-89.91457764 51.80289795 -88.84844238 51.22273926 -87.75 50.625 C-85.47166234 49.36768476 -83.19434262 48.10852346 -80.91796875 46.84765625 C-80.33844955 46.52721848 -79.75893036 46.2067807 -79.16184998 45.87663269 C-73.41186082 42.69025953 -67.73197356 39.38941144 -62.0625 36.0625 C-52.6534135 30.54677522 -43.22098928 25.07395952 -33.76391602 19.64086914 C-28.18533095 16.43173973 -22.62574543 13.19479235 -17.09375 9.90625 C-15.98644531 9.25076172 -14.87914062 8.59527344 -13.73828125 7.91992188 C-11.61710056 6.66230992 -9.4997463 5.39821625 -7.38671875 4.12695312 C-6.44441406 3.56943359 -5.50210938 3.01191406 -4.53125 2.4375 C-3.70173828 1.94121094 -2.87222656 1.44492187 -2.01757812 0.93359375 C-1.35177734 0.62550781 -0.68597656 0.31742187 0 0 Z " fill="#0C9DB5" transform="translate(415,381)"/>
<path d="M0 0 C-0.7120459 0.40613525 -1.4240918 0.81227051 -2.15771484 1.23071289 C-15.3878981 8.77887837 -28.61190301 16.33768869 -41.8125 23.9375 C-42.89047852 24.5557666 -43.96845703 25.1740332 -45.07910156 25.81103516 C-49.660087 28.44790545 -54.21487026 31.10132037 -58.67578125 33.9375 C-59.35729248 34.36683838 -60.03880371 34.79617676 -60.7409668 35.23852539 C-62.45480326 36.32918897 -64.15405863 37.44268019 -65.8515625 38.55859375 C-69.78615479 40.35991454 -72.81191232 40.96209182 -77 40 C-81.02223107 38.19944372 -84.70446535 35.95783906 -88.4375 33.625 C-89.44232422 33.02171875 -90.44714844 32.4184375 -91.48242188 31.796875 C-98.84025374 27.31949253 -98.84025374 27.31949253 -100 25 C-98.91847656 24.72027344 -97.83695312 24.44054687 -96.72265625 24.15234375 C-87.30618203 21.70212278 -77.92486986 19.14965939 -68.5625 16.5 C-60.18620285 14.1319985 -51.79209067 11.91288002 -43.33642578 9.84814453 C-37.16265742 8.32627374 -31.04741481 6.63492406 -24.9375 4.875 C-24.05360596 4.62089355 -23.16971191 4.36678711 -22.2590332 4.10498047 C-18.62643109 3.05724049 -14.99776548 1.99933302 -11.375 0.91796875 C-10.405625 0.63566406 -9.43625 0.35335938 -8.4375 0.0625 C-7.65246094 -0.17339844 -6.86742187 -0.40929687 -6.05859375 -0.65234375 C-3.72358894 -1.04668043 -2.2564054 -0.62908524 0 0 Z " fill="#0D9DB5" transform="translate(373,399)"/>
<path d="M0 0 C0.33 0 0.66 0 1 0 C1 40.59 1 81.18 1 123 C-1.37523224 119.83302368 -2.47873225 118.21038394 -3.68359375 114.68359375 C-3.96968506 113.84803955 -4.25577637 113.01248535 -4.55053711 112.15161133 C-6.08708025 107.44978087 -7.57228793 102.73603073 -9 98 C-9.35191406 96.86449707 -9.35191406 96.86449707 -9.7109375 95.70605469 C-19.02638853 64.49641859 -12.94710274 29.13098116 0 0 Z " fill="#0D9DB5" transform="translate(171,239)"/>
<path d="M0 0 C33.83279244 1.05727476 63.76013881 17.18094773 88 40 C88.61230469 40.55945313 89.22460938 41.11890625 89.85546875 41.6953125 C95.31216516 46.86481436 99.60577853 52.9317894 104 59 C103.01 59.495 103.01 59.495 102 60 C99.61523438 58.8828125 99.61523438 58.8828125 96.59375 57.125 C95.47081543 56.47716553 94.34788086 55.82933105 93.19091797 55.16186523 C91.96053855 54.44136888 90.73023456 53.72074368 89.5 53 C88.22977017 52.26364349 86.95909348 51.52805732 85.68798828 50.79321289 C83.06723795 49.27659042 80.44908601 47.75562411 77.83300781 46.23095703 C73.24983496 43.56086181 68.65279826 40.9150111 64.05566406 38.26904297 C60.85041605 36.42334366 57.64756444 34.57354815 54.4453125 32.72265625 C50.08859854 30.2049872 45.72907565 27.69228757 41.3671875 25.18359375 C30.68089005 19.03551742 20.00720749 12.86624839 9.375 6.625 C8.42592773 6.07118652 7.47685547 5.51737305 6.49902344 4.94677734 C5.64083008 4.44098145 4.78263672 3.93518555 3.8984375 3.4140625 C3.14224121 2.9701416 2.38604492 2.5262207 1.60693359 2.06884766 C1.07664551 1.71612793 0.54635742 1.3634082 0 1 C0 0.67 0 0.34 0 0 Z " fill="#0C9DB5" transform="translate(313,159)"/>
<path d="M0 0 C4.81083002 4.01211725 9.34672497 8.20595723 13.76147461 12.64794922 C14.39647888 13.28280746 15.03148315 13.91766571 15.68572998 14.57176208 C17.76031704 16.64703949 19.83135073 18.72582401 21.90234375 20.8046875 C23.34943599 22.25364705 24.79675084 23.70238432 26.24427795 25.15090942 C30.03580107 28.9462331 33.82431021 32.74455131 37.61218262 36.54351807 C41.4850689 40.42667159 45.36082152 44.30696195 49.23632812 48.1875 C56.82701408 55.78887983 64.41451649 63.39342884 72 71 C71.01 71.495 71.01 71.495 70 72 C67.61523437 70.8828125 67.61523437 70.8828125 64.59375 69.125 C63.46976807 68.47660156 62.34578613 67.82820313 61.18774414 67.16015625 C59.95839541 66.44027608 58.7291499 65.72021961 57.5 65 C56.23927855 64.26879343 54.97812402 63.5383331 53.71655273 62.80859375 C51.10545469 61.29687604 48.49691985 59.78086416 45.89013672 58.26171875 C42.20757891 56.11755762 38.51403833 53.99303445 34.81640625 51.875 C29.43532775 48.7907841 24.06438548 45.68982649 18.703125 42.57128906 C17.02533465 41.59601281 15.34594273 40.62347957 13.6640625 39.65527344 C11.78946588 38.57384341 9.92428891 37.47828232 8.0625 36.375 C7.12535156 35.82585937 6.18820313 35.27671875 5.22265625 34.7109375 C2.56943809 32.6685657 1.47783414 31.00667317 0 28 C-0.34057617 24.86206055 -0.34057617 24.86206055 -0.29296875 21.38671875 C-0.28330078 20.13955078 -0.27363281 18.89238281 -0.26367188 17.60742188 C-0.2259668 15.66706055 -0.2259668 15.66706055 -0.1875 13.6875 C-0.17396484 12.37458984 -0.16042969 11.06167969 -0.14648438 9.70898438 C-0.11117443 6.47223923 -0.0618528 3.23632895 0 0 Z " fill="#0B9CB5" transform="translate(178,339)"/>
<path d="M0 0 C0.33 0 0.66 0 1 0 C1.09275657 10.32700287 1.16379377 20.65390633 1.20724869 30.98124123 C1.22810691 35.77686929 1.25639228 40.57221196 1.30175781 45.36767578 C1.34527858 49.99720432 1.36915039 54.62645865 1.37950897 59.25617599 C1.38688917 61.02080984 1.40130111 62.78542899 1.42292023 64.54994583 C1.45203762 67.02532409 1.45595261 69.49957518 1.45410156 71.97509766 C1.47567322 73.0648288 1.47567322 73.0648288 1.49768066 74.17657471 C1.45675205 79.24835002 0.17771466 82.09088919 -3 86 C-5.47363281 87.87451172 -5.47363281 87.87451172 -8.203125 89.4296875 C-9.67265625 90.28046875 -9.67265625 90.28046875 -11.171875 91.1484375 C-12.18765625 91.71820313 -13.2034375 92.28796875 -14.25 92.875 C-15.796875 93.76445312 -15.796875 93.76445312 -17.375 94.671875 C-19.90987586 96.12708151 -22.45132105 97.56915154 -25 99 C-26.07901236 95.2704452 -25.7255925 93.44758317 -24.4375 89.75 C-22.34452119 83.33393737 -20.66729292 76.86690413 -19.0625 70.3125 C-17.125191 62.43766958 -15.1043492 54.60287833 -12.89477539 46.80029297 C-11.17467216 40.70155847 -9.58101429 34.5736044 -8 28.4375 C-5.53660601 18.89403495 -2.86106061 9.43137236 0 0 Z " fill="#0B9CB5" transform="translate(421,287)"/>
<path d="M0 0 C-2.49384792 2.79563775 -5.25215081 4.43253404 -8.50390625 6.265625 C-9.62361816 6.90056885 -10.74333008 7.5355127 -11.89697266 8.18969727 C-12.79165253 8.6925676 -12.79165253 8.6925676 -13.70440674 9.20559692 C-16.23841553 10.62992079 -18.76633761 12.06489886 -21.2947998 13.4990387 C-22.60249586 14.24053345 -23.91052361 14.98144351 -25.21887207 15.7217865 C-31.54129551 19.30012846 -37.83575646 22.92618426 -44.125 26.5625 C-46.26431682 27.79818764 -48.40363975 29.0338647 -50.54296875 30.26953125 C-51.60177246 30.88135254 -52.66057617 31.49317383 -53.75146484 32.12353516 C-58.20218169 34.6944212 -62.6548406 37.26193464 -67.10742188 39.82958984 C-78.74528648 46.54098596 -90.37640722 53.26391792 -102 60 C-102 55.83334752 -99.74070364 53.92904306 -97.125 50.9375 C-96.62468262 50.35895264 -96.12436523 49.78040527 -95.60888672 49.18432617 C-73.50080223 23.87556068 -35.52753245 -2.58382054 0 0 Z " fill="#0E9DB6" transform="translate(287,159)"/>
<path d="M0 0 C-0.68136854 5.49490761 -1.82427995 10.76130242 -3.1875 16.125 C-3.40599609 16.99318359 -3.62449219 17.86136719 -3.84960938 18.75585938 C-5.67728827 25.92756838 -7.70122667 33.03538928 -9.76831055 40.14111328 C-11.48007565 46.06464218 -13.03784245 52.01028962 -14.5 58 C-16.86134765 67.66775964 -19.56821637 77.22256799 -22.35302734 86.77587891 C-23.24651051 89.84743803 -24.12394552 92.92342954 -25 96 C-25.33 96 -25.66 96 -26 96 C-26.09276471 85.93376677 -26.16379786 75.86763558 -26.20724869 65.80106163 C-26.22810516 61.12649795 -26.25638724 56.45222716 -26.30175781 51.77783203 C-26.34528496 47.26501215 -26.3691517 42.75247363 -26.37950897 38.23945999 C-26.38688804 36.51948239 -26.40129779 34.79951983 -26.42292023 33.07966232 C-26.45204629 30.66654179 -26.45595228 28.2545772 -26.45410156 25.84130859 C-26.46848267 25.13352264 -26.48286377 24.42573669 -26.49768066 23.69650269 C-26.45617619 18.68039085 -25.12901703 15.86989549 -22 12 C-19.6340332 10.21728516 -19.6340332 10.21728516 -17.05078125 8.7890625 C-16.12072266 8.26699219 -15.19066406 7.74492187 -14.23242188 7.20703125 C-13.26884766 6.68496094 -12.30527344 6.16289062 -11.3125 5.625 C-10.33732422 5.07972656 -9.36214844 4.53445312 -8.35742188 3.97265625 C-1.20365367 0 -1.20365367 0 0 0 Z " fill="#0F9EB6" transform="translate(204,215)"/>
<path d="M0 0 C8.85745471 4.77433899 17.57851418 9.76074066 26.27783203 14.81616211 C31.76898937 18.0024738 37.26972561 21.16507186 42.82331848 24.24163818 C45.38994723 25.66361693 47.95105813 27.0953961 50.51223755 28.52716064 C51.74399498 29.21178199 52.97856888 29.89136285 54.21603394 30.56561279 C55.95062495 31.51126017 57.67476078 32.47600813 59.3984375 33.44140625 C60.87836182 34.25653687 60.87836182 34.25653687 62.38818359 35.08813477 C65.55906821 37.40924127 67.16603211 39.52808324 69 43 C69.45410156 46.06787109 69.45410156 46.06787109 69.390625 49.2734375 C69.37773437 50.42714844 69.36484375 51.58085937 69.3515625 52.76953125 C69.31804687 53.95933594 69.28453125 55.14914063 69.25 56.375 C69.23195313 57.58800781 69.21390625 58.80101562 69.1953125 60.05078125 C69.14832216 63.0346679 69.08263372 66.01692279 69 69 C64.4091033 65.16105282 60.04687287 61.18621067 55.83691406 56.93457031 C55.26525009 56.36144608 54.69358612 55.78832184 54.104599 55.1978302 C52.87694881 53.96640507 51.65045395 52.73382724 50.42502594 51.50019073 C48.48536268 49.54766196 46.54250325 47.59836378 44.59881592 45.64984131 C40.47971638 41.51937284 36.36458119 37.38496881 32.25 33.25 C27.46608611 28.44247007 22.68055301 23.63657525 17.89080048 18.83486176 C15.97708569 16.91466682 14.06640665 14.99148572 12.15582275 13.06817627 C10.98586543 11.89458748 9.81576808 10.72113827 8.64550781 9.54785156 C8.11559738 9.01277481 7.58568695 8.47769806 7.03971863 7.92640686 C4.78082789 5.66719143 2.6699713 3.77998087 0 2 C0 1.34 0 0.68 0 0 Z " fill="#0B9CB5" transform="translate(353,190)"/>
<path d="M0 0 C3.80088938 1.67321962 7.31770278 3.73964439 10.875 5.875 C11.83664062 6.43058594 12.79828125 6.98617187 13.7890625 7.55859375 C20.84817526 11.69635052 20.84817526 11.69635052 22 14 C20.732771 14.3242395 20.732771 14.3242395 19.43994141 14.6550293 C-0.6011663 19.76531764 -0.6011663 19.76531764 -20.55419922 25.20581055 C-27.48564507 27.1580888 -34.45535272 28.95773199 -41.4284668 30.75463867 C-46.09892883 31.96310743 -50.75629285 33.20005718 -55.39453125 34.52734375 C-56.22726563 34.76517578 -57.06 35.00300781 -57.91796875 35.24804688 C-59.47842793 35.69734711 -61.03713787 36.15278197 -62.59375 36.61523438 C-67.78147786 38.10926107 -67.78147786 38.10926107 -70 37 C-66.54237863 34.97794681 -63.08386746 32.9574209 -59.625 30.9375 C-58.55531982 30.31278809 -57.48563965 29.68807617 -56.38354492 29.04443359 C-50.62296367 25.68399001 -44.85568285 22.33612204 -39.07421875 19.01171875 C-37.95039795 18.36541504 -36.82657715 17.71911133 -35.66870117 17.05322266 C-33.44194984 15.77389757 -31.21425596 14.49621157 -28.9855957 13.22021484 C-24.51116674 10.64908012 -20.05261759 8.08054879 -15.71875 5.27734375 C-15.12408936 4.89368652 -14.52942871 4.5100293 -13.91674805 4.11474609 C-12.47156055 3.16682978 -11.04140296 2.19609377 -9.61328125 1.22265625 C-5.97491324 -0.47959963 -4.01178948 -0.58242223 0 0 Z " fill="#0D9DB5" transform="translate(303,161)"/>
<path d="M0 0 C2.62083849 3.27805181 4.5600805 6.75455307 6.5625 10.4375 C20.64716817 35.57574986 43.64355307 57.21711784 70 69 C66.90453578 69.99276238 65.05856163 69.98617734 61.96484375 69.03125 C61.16820312 68.7933374 60.3715625 68.5554248 59.55078125 68.31030273 C58.68839844 68.04290283 57.82601562 67.77550293 56.9375 67.5 C50.5848346 65.58569235 44.23414338 63.7796652 37.78515625 62.21484375 C36.57545166 61.91835938 35.36574707 61.621875 34.11938477 61.31640625 C31.74162332 60.73900718 29.36061767 60.17477815 26.97631836 59.625 C16.12563288 56.95681173 16.12563288 56.95681173 13 52 C11.53958546 47.90025881 10.53988086 43.73747009 9.5625 39.5 C8.97118869 37.07101961 8.37740607 34.64263961 7.78125 32.21484375 C7.48734375 31.00425293 7.1934375 29.79366211 6.890625 28.54638672 C5.36288886 22.46308214 3.58159682 16.4554743 1.77758789 10.44921875 C1.54289795 9.65257812 1.30820801 8.8559375 1.06640625 8.03515625 C0.85959229 7.3481665 0.65277832 6.66117676 0.43969727 5.95336914 C0 4 0 4 0 0 Z " fill="#0E9DB6" transform="translate(165,365)"/>
<path d="M0 0 C6.18706755 0.59874847 11.80841103 1.95717796 17.75 3.75 C23.34374795 5.40581726 28.92898526 7.01711572 34.60546875 8.3671875 C35.50104492 8.58020508 36.39662109 8.79322266 37.31933594 9.01269531 C39.01944933 9.41029736 40.72186079 9.7982425 42.42675781 10.17480469 C48.17339775 11.52372515 53.05149654 13.17950085 56.56079102 18.25927734 C58.09605158 21.18291349 58.88893327 23.80528778 59.6484375 27.015625 C59.92945313 28.17707031 60.21046875 29.33851563 60.5 30.53515625 C60.78875 31.76105469 61.0775 32.98695313 61.375 34.25 C63.54726094 43.2639546 65.76859283 52.21246212 68.66552734 61.02441406 C69.71857087 64.35861204 70.32773373 66.68066568 69 70 C68.56171875 69.1028125 68.1234375 68.205625 67.671875 67.28125 C53.07662543 38.24032461 29.25504776 15.10276966 0 1 C0 0.67 0 0.34 0 0 Z " fill="#0E9DB6" transform="translate(365,165)"/>
<path d="M0 0 C0.99 0.495 0.99 0.495 2 1 C-2.91156371 6.14047933 -7.85864938 11.24476039 -12.83154297 16.32592773 C-14.51759017 18.05712824 -16.19545863 19.79633466 -17.86474609 21.54370117 C-20.27135961 24.05996682 -22.70630782 26.5455924 -25.1484375 29.02734375 C-25.8842807 29.80963852 -26.6201239 30.59193329 -27.37826538 31.39793396 C-31.94380914 35.96778827 -35.1945508 37.97272694 -41.73400879 38.12043762 C-44.4709649 37.97496818 -46.97687447 37.66649378 -49.62890625 36.9609375 C-51.07523437 36.5882373 -51.07523437 36.5882373 -52.55078125 36.20800781 C-53.54464844 35.93311523 -54.53851563 35.65822266 -55.5625 35.375 C-56.60664063 35.10010742 -57.65078125 34.82521484 -58.7265625 34.54199219 C-66.30528392 32.52642425 -73.84351133 30.36799059 -81.34375 28.078125 C-85.20959409 26.93819662 -89.08441609 25.95290759 -93 25 C-93 24.67 -93 24.34 -93 24 C-92.28682617 23.98541748 -91.57365234 23.97083496 -90.83886719 23.95581055 C-62.69613856 23.31661374 -21.55055879 21.55055879 0 0 Z " fill="#0E9DB6" transform="translate(381,425)"/>
<path d="M0 0 C2.25531697 3.38297545 2.91560196 6.47697792 3.75 10.375 C5.50162429 18.21022265 7.62039261 25.90402669 9.89355469 33.60302734 C10.61485162 36.0637266 11.31297619 38.52953077 12 41 C12.2175293 41.75023437 12.43505859 42.50046875 12.65917969 43.2734375 C14.14911311 48.96363548 14.6154818 54.27946332 13 60 C10.76673109 63.40841356 7.98637141 66.06823776 5.02734375 68.8515625 C4.22970108 69.63647064 3.43205841 70.42137878 2.61024475 71.23007202 C0.07309977 73.71708328 -2.49357872 76.17086799 -5.0625 78.625 C-6.79436908 80.31169833 -8.52421124 82.00048054 -10.25195312 83.69140625 C-14.47813408 87.81868578 -18.72897445 91.91917159 -23 96 C-23 92.67400464 -22.39012814 91.53507478 -20.8046875 88.67578125 C-20.33885254 87.82072998 -19.87301758 86.96567871 -19.39306641 86.0847168 C-18.89210449 85.16988525 -18.39114258 84.25505371 -17.875 83.3125 C-3.5767888 56.43432736 -0.14637095 30.05483566 0 0 Z " fill="#0B9CB5" transform="translate(449,287)"/>
<path d="M0 0 C1.56669434 0.4017041 1.56669434 0.4017041 3.16503906 0.81152344 C10.34046822 2.66876982 17.49195364 4.61130457 24.625 6.625 C25.49914551 6.87072754 26.37329102 7.11645508 27.27392578 7.36962891 C28.08587402 7.60343262 28.89782227 7.83723633 29.734375 8.078125 C30.44045898 8.28083008 31.14654297 8.48353516 31.87402344 8.69238281 C33.98797396 9.41354017 35.90158393 10.33350559 37.875 11.375 C36.6986499 11.39687378 36.6986499 11.39687378 35.49853516 11.41918945 C3.88341191 12.07426925 -30.46571381 15.50994886 -56.125 36.375 C-56.785 36.045 -57.445 35.715 -58.125 35.375 C-52.91757334 30.11695283 -47.70239193 24.86669186 -42.48168945 19.62182617 C-40.70579444 17.83586023 -38.93169681 16.04810519 -37.15942383 14.25854492 C-34.61487277 11.68979394 -32.06397298 9.12750079 -29.51171875 6.56640625 C-28.71787277 5.7622377 -27.92402679 4.95806915 -27.10612488 4.12953186 C-25.99531303 3.01849342 -25.99531303 3.01849342 -24.86206055 1.88500977 C-23.88610176 0.90238914 -23.88610176 0.90238914 -22.89042664 -0.1000824 C-16.62253556 -5.51408105 -7.04633012 -1.8447668 0 0 Z " fill="#0C9DB5" transform="translate(274.125,139.625)"/>
<path d="M0 0 C0 3.94655545 -1.45045333 5.6925723 -3.5 9.0625 C-10.87462378 21.5814383 -16.73372671 34.80915246 -20 49 C-20.42925781 50.77697266 -20.42925781 50.77697266 -20.8671875 52.58984375 C-23.86008998 66.85601222 -23.74167068 81.47789572 -24 96 C-26.17226004 92.74160994 -26.85071583 90.23921611 -27.8046875 86.453125 C-27.96993927 85.80486755 -28.13519104 85.15661011 -28.30545044 84.4887085 C-28.8340741 82.41047333 -29.35479036 80.33035555 -29.875 78.25 C-30.38747516 76.22195849 -30.90159835 74.19434234 -31.4163208 72.16687012 C-31.75919433 70.81355716 -32.10029357 69.45979346 -32.43963623 68.10559082 C-33.30004483 64.68547433 -34.19203708 61.27912058 -35.14941406 57.88476562 C-35.3351297 57.21878357 -35.52084534 56.55280151 -35.71218872 55.86663818 C-36.2245785 54.04033073 -36.74695593 52.21683379 -37.27001953 50.39355469 C-38.24846743 45.8449173 -38.80745955 41.95468488 -36.99682617 37.5715332 C-33.98363912 33.69112004 -30.54517674 30.3017757 -27.05078125 26.85546875 C-26.27816452 26.08568192 -25.50554779 25.31589508 -24.70951843 24.52278137 C-22.24851195 22.07294128 -19.78063153 19.63015963 -17.3125 17.1875 C-15.6395154 15.52454974 -13.966984 13.86114341 -12.29492188 12.19726562 C-8.20185262 8.12620977 -4.10312224 4.06092214 0 0 Z " fill="#0A9CB5" transform="translate(175,216)"/>
<path d="M0 0 C7.20030764 3.47715507 14.11909337 7.30651597 21 11.375 C23.1181414 12.61908258 25.2366439 13.86255053 27.35546875 15.10546875 C28.44520996 15.74532715 29.53495117 16.38518555 30.65771484 17.04443359 C36.19470545 20.28411911 41.75357859 23.48564008 47.3125 26.6875 C48.39063965 27.30947266 49.4687793 27.93144531 50.57958984 28.57226562 C55.66950516 31.50819004 60.76274694 34.43802901 65.86328125 37.35546875 C66.75684326 37.86827393 67.65040527 38.3810791 68.57104492 38.90942383 C70.2348071 39.86416662 71.90025612 40.81597777 73.56762695 41.7644043 C75.39488 42.81480492 77.20040113 43.90289515 79 45 C79 45.33 79 45.66 79 46 C72.61895345 46.20257291 67.15129587 45.6723228 61 44 C60.18257324 43.77924805 59.36514648 43.55849609 58.52294922 43.33105469 C35.63344159 36.80381327 13.24713871 22.09082668 0 2 C0 1.34 0 0.68 0 0 Z " fill="#109EB6" transform="translate(213,358)"/>
<path d="M0 0 C0 4.05585689 -1.50556967 4.96236265 -4.25 7.875 C-6.57419735 10.35870109 -8.83444986 12.7830135 -10.8984375 15.48828125 C-25.46247264 32.8947396 -50.03448216 42.79376564 -72 46 C-73.99957109 46.04141804 -76.00072787 46.05395337 -78 46 C-74.76733025 43.3091852 -71.57222803 41.06115192 -67.88671875 39.0390625 C-66.89857178 38.4925 -65.9104248 37.9459375 -64.89233398 37.3828125 C-63.83473877 36.80273438 -62.77714355 36.22265625 -61.6875 35.625 C-50.0579813 29.18023435 -38.55489722 22.54265057 -27.08935547 15.81152344 C-21.56552463 12.57248243 -16.03209612 9.34989654 -10.5 6.125 C-8.4687105 4.94017188 -6.43745667 3.7552826 -4.40625 2.5703125 C-2.9375 1.71354167 -1.46875 0.85677083 0 0 Z " fill="#0F9EB6" transform="translate(386,358)"/>
<path d="M0 0 C7.77288872 10.36385163 10.2837998 25.2386146 11 38 C11.05285156 38.90234375 11.10570312 39.8046875 11.16015625 40.734375 C11.67038179 58.21514578 7.62007019 73.96673412 1 90 C0.67 90 0.34 90 0 90 C0 60.3 0 30.6 0 0 Z " fill="#0C9DB5" transform="translate(395,254)"/>
<path d="M0 0 C25.19410913 0.11556931 48.78989086 14.09768526 66.4375 31.0625 C70.59343293 35.34046685 73.95672962 39.87839863 77 45 C73.36739655 43.63527177 70.09038593 42.0019884 66.73828125 40.05078125 C65.71492676 39.4575708 64.69157227 38.86436035 63.63720703 38.25317383 C62.54005371 37.61275146 61.44290039 36.9723291 60.3125 36.3125 C59.15497956 35.63988344 57.99726117 34.96760741 56.83935547 34.2956543 C55.03936865 33.25092971 53.23958056 32.20587371 51.44055176 31.15950012 C47.36970013 28.79199248 43.29097151 26.4386416 39.20703125 24.09375 C28.89065223 18.16990658 18.59323655 12.21696077 8.375 6.125 C7.52115723 5.61880127 6.66731445 5.11260254 5.78759766 4.59106445 C5.0197998 4.13046631 4.25200195 3.66986816 3.4609375 3.1953125 C2.78853027 2.79328613 2.11612305 2.39125977 1.42333984 1.97705078 C0.9536377 1.65462402 0.48393555 1.33219727 0 1 C0 0.67 0 0.34 0 0 Z " fill="#0E9EB6" transform="translate(310,194)"/>
<path d="M0 0 C0.33 0 0.66 0 1 0 C1 29.37 1 58.74 1 89 C-9.15039679 78.84960321 -9.1514761 57.6126564 -9.25 44.4375 C-9.25950684 43.39658203 -9.26901367 42.35566406 -9.27880859 41.28320312 C-9.23701586 31.45726672 -7.79915125 22.05490673 -5.0625 12.625 C-4.74410156 11.50351562 -4.42570313 10.38203125 -4.09765625 9.2265625 C-2.9903774 5.97171434 -1.60881255 3.03428464 0 0 Z " fill="#0A9CB5" transform="translate(204,255)"/>
<path d="M0 0 C-2.95003786 2.30552433 -5.98545286 4.22399315 -9.234375 6.08203125 C-10.27118408 6.67717529 -11.30799316 7.27231934 -12.3762207 7.88549805 C-13.48956787 8.52140869 -14.60291504 9.15731934 -15.75 9.8125 C-18.11398923 11.16803856 -20.47689151 12.5254673 -22.83984375 13.8828125 C-23.43963547 14.22702744 -24.03942719 14.57124237 -24.65739441 14.92588806 C-30.56035562 18.31579946 -36.43760688 21.74920962 -42.3125 25.1875 C-53.165654 31.53351529 -64.07046916 37.78658932 -75 44 C-75 38.4928269 -69.63499234 34.82931583 -66 31 C-65.36578125 30.30132812 -64.7315625 29.60265625 -64.078125 28.8828125 C-48.64846818 12.46407512 -22.76283299 -0.44633006 0 0 Z " fill="#109EB6" transform="translate(291,194)"/>
<path d="M0 0 C3.5764347 1.33092513 6.89567836 2.971888 10.26025391 4.76708984 C29.03892772 14.63338203 47.11275941 16.12345438 68 17 C68 17.33 68 17.66 68 18 C67.4423999 18.13051758 66.8847998 18.26103516 66.31030273 18.39550781 C63.6854807 19.01133663 61.06144917 19.63046268 58.4375 20.25 C57.48472168 20.47381348 56.53194336 20.69762695 55.55029297 20.92822266 C51.18089095 21.96422102 46.8286206 23.01933277 42.51171875 24.2578125 C41.51603882 24.54156738 41.51603882 24.54156738 40.50024414 24.83105469 C38.73895304 25.34194605 36.98255504 25.86962135 35.2265625 26.3984375 C31.355559 27.12015002 28.83981751 26.92094529 25 26 C22.68176311 24.20476321 20.83860964 22.56819734 18.84765625 20.46875 C18.30265976 19.9176355 17.75766327 19.366521 17.19615173 18.79870605 C15.47035302 17.04609463 13.76685046 15.273449 12.0625 13.5 C10.89131306 12.30727734 9.71879945 11.11585588 8.54492188 9.92578125 C0 1.21192706 0 1.21192706 0 0 Z " fill="#139FB7" transform="translate(240,392)"/>
<path d="M0 0 C1.14227008 3.42681024 0.82092639 4.54839069 -0.07421875 7.97265625 C-0.33009766 8.95556641 -0.58597656 9.93847656 -0.84960938 10.95117188 C-1.12611328 11.97791016 -1.40261719 13.00464844 -1.6875 14.0625 C-1.94466797 15.06216797 -2.20183594 16.06183594 -2.46679688 17.09179688 C-3.25708054 20.08011767 -4.10723045 23.04075333 -5 26 C-5.28182129 26.9472998 -5.56364258 27.89459961 -5.85400391 28.87060547 C-7.29357506 33.09718638 -8.10262681 35.41934676 -11.921875 37.890625 C-13.26968266 38.30057717 -14.63196969 38.66363807 -16 39 C-16.97388672 39.29068359 -17.94777344 39.58136719 -18.95117188 39.88085938 C-22.37135831 40.89059031 -25.80567606 41.82619126 -29.25 42.75 C-31.02503906 43.24306641 -31.02503906 43.24306641 -32.8359375 43.74609375 C-33.96773438 44.05160156 -35.09953125 44.35710937 -36.265625 44.671875 C-37.29461914 44.9512793 -38.32361328 45.23068359 -39.38378906 45.51855469 C-42 46 -42 46 -45 45 C-43.71029297 44.21689453 -43.71029297 44.21689453 -42.39453125 43.41796875 C-24.06075706 32.08878399 -10.82884015 18.75385724 0 0 Z " fill="#0F9EB6" transform="translate(397,351)"/>
<path d="M0 0 C0.33 0 0.66 0 1 0 C1.12117187 1.08796875 1.24234375 2.1759375 1.3671875 3.296875 C1.80178811 7.14971726 2.2649211 10.99860216 2.73974609 14.84667969 C2.95249411 16.60693997 3.14515896 18.36961747 3.33203125 20.1328125 C5.00586145 33.04521687 10.26090232 45.99550609 17.03125 57.06640625 C17.3509375 57.70449219 17.670625 58.34257812 18 59 C17.67 59.66 17.34 60.32 17 61 C13.57758863 57.75140235 10.1794416 54.47987507 6.80102539 51.18554688 C5.65007108 50.06966588 4.49289525 48.9601633 3.3293457 47.85742188 C1.65175682 46.26532895 -0.00165689 44.65116375 -1.65234375 43.03125 C-2.43205788 42.30572937 -2.43205788 42.30572937 -3.2275238 41.56555176 C-6.57227435 38.2244822 -7.77910419 35.60073838 -8.06614685 31.01159668 C-7.96059501 27.80165186 -7.24065607 24.95241475 -6.34765625 21.875 C-6.07918129 20.92645142 -6.07918129 20.92645142 -5.80528259 19.95874023 C-5.23840227 17.96813091 -4.65094129 15.98432929 -4.0625 14 C-3.67114021 12.63972087 -3.2811537 11.27904584 -2.89257812 9.91796875 C-1.9441937 6.60725992 -0.97727335 3.30231254 0 0 Z " fill="#119FB7" transform="translate(188,297)"/>
<path d="M0 0 C5.64850038 4.74746613 11.06595253 9.68845175 16.375 14.8125 C17.19355469 15.56853516 18.01210938 16.32457031 18.85546875 17.10351562 C23.31344443 21.4395069 26.07270118 24.5580349 26.18359375 30.93920898 C25.9240783 33.85220086 25.29993188 36.37193715 24.3125 39.125 C22.60364428 44.15629994 21.09106609 49.17429232 19.75 54.3125 C19.41484375 55.58738281 19.0796875 56.86226563 18.734375 58.17578125 C18.49203125 59.10777344 18.2496875 60.03976562 18 61 C17.67 61 17.34 61 17 61 C16.89510254 60.02728149 16.89510254 60.02728149 16.78808594 59.03491211 C13.50952923 28.81651396 13.50952923 28.81651396 0 2 C0 1.34 0 0.68 0 0 Z " fill="#14A0B8" transform="translate(394,240)"/>
<path d="M0 0 C-0.66644531 0.32871094 -1.33289063 0.65742188 -2.01953125 0.99609375 C-20.48224719 10.52440449 -36.01847791 26.22300537 -45 45 C-46.2121105 41.36366851 -45.66658276 39.92894896 -44.671875 36.265625 C-44.36636719 35.13382813 -44.06085938 34.00203125 -43.74609375 32.8359375 C-43.41738281 31.65257812 -43.08867187 30.46921875 -42.75 29.25 C-42.43675781 28.08210938 -42.12351563 26.91421875 -41.80078125 25.7109375 C-40.91212566 22.45867929 -39.97482313 19.22736847 -39 16 C-38.78279297 15.24654297 -38.56558594 14.49308594 -38.34179688 13.71679688 C-37.14603196 10.23920534 -36.12455965 9.07155889 -32.90625 7.22265625 C-31.61618709 6.77851957 -30.31226855 6.37345811 -29 6 C-28.26265625 5.78327637 -27.5253125 5.56655273 -26.765625 5.34326172 C-24.35235185 4.66852413 -21.9307364 4.04614411 -19.5 3.4375 C-17.86441123 3.02020523 -16.22899155 2.60224708 -14.59375 2.18359375 C-13.81515625 1.98749512 -13.0365625 1.79139648 -12.234375 1.58935547 C-10.16566364 1.04369668 -8.13491325 0.42462783 -6.09375 -0.21484375 C-3 -1 -3 -1 0 0 Z " fill="#109EB6" transform="translate(248,202)"/>
<path d="M0 0 C4.18831033 3.40859739 7.86392885 7.20070588 11.5625 11.125 C12.57972128 12.17738728 13.59858956 13.22818521 14.61914062 14.27734375 C17.09870583 16.83349516 19.55521775 19.41050903 22 22 C18.19572677 22 15.63295964 20.47272982 12.3125 18.8125 C-3.50959865 11.19538358 -19.52692788 8.19635449 -37 7 C-33.25628967 3.25628967 -27.43943167 2.62927925 -22.4375 1.25 C-20.7040332 0.73759766 -20.7040332 0.73759766 -18.93554688 0.21484375 C-6.02261317 -3.34886198 -6.02261317 -3.34886198 0 0 Z " fill="#14A0B8" transform="translate(336,181)"/>
<path d="M0 0 C0.33 0 0.66 0 1 0 C1 26.4 1 52.8 1 80 C0.67 80 0.34 80 0 80 C0 56.24 0 32.48 0 8 C-0.66 8 -1.32 8 -2 8 C-1.34 5.36 -0.68 2.72 0 0 Z " fill="#43B3C6" transform="translate(421,287)"/>
<path d="M0 0 C2.29633824 3.44450737 2.54016485 5.93812283 3 10 C2.34 10 1.68 10 1 10 C1 14.29 1 18.58 1 23 C0.67 23 0.34 23 0 23 C0 15.41 0 7.82 0 0 Z " fill="#55BACB" transform="translate(449,287)"/>
<path d="M0 0 C0.33 0 0.66 0 1 0 C1 7.26 1 14.52 1 22 C-0.9451 19.08235 -1.45276317 17.37462715 -2 14 C-1.34 14 -0.68 14 0 14 C0 9.38 0 4.76 0 0 Z " fill="#50B8CA" transform="translate(150,290)"/>
<path d="M0 0 C1.41687119 4.25061356 0.19320039 6.71851625 -1 11 C-1.99 10.34 -2.98 9.68 -4 9 C-2.80100302 5.9168649 -1.52299523 2.93720508 0 0 Z " fill="#2FABC0" transform="translate(397,351)"/>
<path d="M0 0 C0.33 0.66 0.66 1.32 1 2 C1.66 2.33 2.32 2.66 3 3 C1.68 5.64 0.36 8.28 -1 11 C-2.41687119 6.74938644 -1.19320039 4.28148375 0 0 Z " fill="#43B3C6" transform="translate(204,236)"/>
<path d="M0 0 C-2.97 1.32 -5.94 2.64 -9 4 C-9.33 3.01 -9.66 2.02 -10 1 C-3.375 -1.125 -3.375 -1.125 0 0 Z " fill="#51B9CA" transform="translate(248,202)"/>
</svg>
