<?xml version="1.0" encoding="UTF-8"?>
<svg version="1.1" xmlns="http://www.w3.org/2000/svg" width="200" height="200">
<path d="M0 0 C66 0 132 0 200 0 C200 66 200 132 200 200 C134 200 68 200 0 200 C0 134 0 68 0 0 Z " fill="#F5F6F6" transform="translate(0,0)"/>
<path d="M0 0 C66 0 132 0 200 0 C200 66 200 132 200 200 C134 200 68 200 0 200 C0 134 0 68 0 0 Z M93.58203125 13.7890625 C92.5053418 14.39379395 91.42865234 14.99852539 90.31933594 15.62158203 C89.15031606 16.28925748 87.98137274 16.95706699 86.8125 17.625 C85.59844523 18.31055446 84.38391983 18.99527611 83.16894531 19.67919922 C80.66642254 21.08929901 78.16647073 22.5038033 75.66845703 23.921875 C71.23440222 26.43708972 66.78289083 28.92077254 62.33129883 31.40478516 C52.91522745 36.66155078 43.51801673 41.95217269 34.125 47.25 C33.14950195 47.79930176 32.17400391 48.34860352 31.16894531 48.91455078 C29.82074707 49.67614502 29.82074707 49.67614502 28.4453125 50.453125 C27.65656738 50.89817383 26.86782227 51.34322266 26.05517578 51.80175781 C24.33259654 52.80608413 22.65909047 53.89393969 21 55 C20.71391069 57.96045499 20.62197914 60.7107713 20.65942383 63.67236328 C20.65898575 64.56998383 20.65854767 65.46760437 20.65809631 66.39242554 C20.66019155 69.36860676 20.68355713 72.34422931 20.70703125 75.3203125 C20.71262459 77.38011365 20.71689592 79.43991878 20.71989441 81.49972534 C20.73136377 86.92827318 20.76084895 92.35658125 20.79400635 97.78503418 C20.82466219 103.3215002 20.83839014 108.85800487 20.85351562 114.39453125 C20.88571664 125.26312633 20.93693822 136.13154325 21 147 C21.60524002 147.32783981 22.21048004 147.65567963 22.83406067 147.99345398 C44.27552251 159.61833065 44.27552251 159.61833065 54.6875 165.8125 C64.76111383 171.74902295 74.9433023 177.46680716 85.18041992 183.11450195 C86.25912354 183.709646 87.33782715 184.30479004 88.44921875 184.91796875 C89.40143311 185.44156982 90.35364746 185.9651709 91.3347168 186.50463867 C94 188 94 188 96.53442383 189.75512695 C98.91468806 191.21602491 98.91468806 191.21602491 101.51098633 190.85205078 C104.18278626 189.93742776 106.39902383 188.81495756 108.82421875 187.3671875 C109.75685547 186.81611328 110.68949219 186.26503906 111.65039062 185.69726562 C113.15375977 184.79524414 113.15375977 184.79524414 114.6875 183.875 C116.85764035 182.59041478 119.02822863 181.30658605 121.19921875 180.0234375 C122.32118652 179.35795898 123.4431543 178.69248047 124.59912109 178.00683594 C130.04157417 174.79528071 135.52116567 171.64894536 141 168.5 C149.86456423 163.39278849 158.72037808 158.27095564 167.5625 153.125 C168.59826172 152.52365234 169.63402344 151.92230469 170.70117188 151.30273438 C171.64669922 150.75166016 172.59222656 150.20058594 173.56640625 149.6328125 C174.40115479 149.14699707 175.23590332 148.66118164 176.09594727 148.16064453 C177.93846097 147.14011742 177.93846097 147.14011742 179 146 C179.18569895 143.22406755 179.30604537 140.47138077 179.38330078 137.69165039 C179.42448029 136.38416336 179.42448029 136.38416336 179.4664917 135.05026245 C179.70682913 126.98213949 179.84992621 118.91202744 179.96293831 110.84121037 C180.04034257 105.41790872 180.14995924 99.99956477 180.33740234 94.57885742 C180.51778356 89.33815479 180.61373434 84.10199875 180.65185165 78.85839653 C180.68062982 76.86479562 180.73894857 74.87138427 180.82797623 72.87956429 C181.60113799 62.35392704 181.60113799 62.35392704 177.35945702 53.20558357 C173.30072634 50.02912143 168.85867991 47.89313821 164.12069225 45.92020321 C160.95875429 44.54818638 158.08688662 42.81745721 155.12890625 41.05078125 C152.94064442 39.80373901 150.75183509 38.55765704 148.5625 37.3125 C146.15577075 35.94094378 143.74968285 34.56826516 141.34375 33.1953125 C140.74035294 32.85104721 140.13695587 32.50678192 139.51527405 32.15208435 C132.8536081 28.34918382 126.20671354 24.52079051 119.5625 20.6875 C118.47332275 20.05948486 117.38414551 19.43146973 116.26196289 18.78442383 C108.18609706 14.1220352 108.18609706 14.1220352 105.42553711 12.31176758 C100.74554081 9.78075398 97.84318277 11.37278565 93.58203125 13.7890625 Z " fill="#FDFDFD" transform="translate(0,0)"/>
<path d="M0 0 C2.11865761 3.66575271 4.23655968 7.33194053 6.35375977 10.99853516 C7.07425469 12.24605126 7.79495668 13.4934478 8.51586914 14.74072266 C9.55148791 16.53256408 10.58636357 18.32483284 11.62109375 20.1171875 C12.55586548 21.73536377 12.55586548 21.73536377 13.50952148 23.38623047 C14.37525224 24.9044145 15.21841539 26.43683078 16 28 C20.95 28.33 25.9 28.66 31 29 C31 44.18 31 59.36 31 75 C-11.9 75 -54.8 75 -99 75 C-99 59.82 -99 44.64 -99 29 C-94.38 28.67 -89.76 28.34 -85 28 C-81.55227957 26.25242356 -81.55227957 26.25242356 -79.328125 23.52734375 C-78.05582031 22.17866211 -78.05582031 22.17866211 -76.7578125 20.80273438 C-75.93023437 19.85720703 -75.10265625 18.91167969 -74.25 17.9375 C-72.52943794 16.06848236 -70.80565611 14.2024218 -69.078125 12.33984375 C-68.33981445 11.50831787 -67.60150391 10.67679199 -66.84082031 9.82006836 C-65 8 -65 8 -63 8 C-63.53866605 11.9681732 -65.39343739 13.67923727 -68.25 16.375 C-70.98406053 19.00474026 -73.5835934 21.58654001 -75.9375 24.5625 C-76.618125 25.366875 -77.29875 26.17125 -78 27 C-78.66 27 -79.32 27 -80 27 C-80 27.66 -80 28.32 -80 29 C-75.241767 26.51783325 -71.88365758 23.11579258 -68.1875 19.3125 C-67.59001953 18.70599609 -66.99253906 18.09949219 -66.37695312 17.47460938 C-64.91335815 15.98759688 -63.45603898 14.49441189 -62 13 C-61.34 13.33 -60.68 13.66 -60 14 C-61.50982731 17.42856619 -63.51713969 19.95678216 -66 22.75 C-67.051875 23.94882813 -67.051875 23.94882813 -68.125 25.171875 C-70 27 -70 27 -72 27 C-72 27.66 -72 28.32 -72 29 C-67.04000919 27.70140726 -64.38425673 25.86288035 -60.8203125 22.2109375 C-60.13387161 21.51600693 -60.13387161 21.51600693 -59.43356323 20.80703735 C-57.98763229 19.33888465 -56.5563111 17.85739493 -55.125 16.375 C-54.14156106 15.37147765 -53.15719445 14.36886351 -52.171875 13.3671875 C-49.77197808 10.92023378 -47.3819241 8.46443146 -45 6 C-44.34 6.33 -43.68 6.66 -43 7 C-44.41920753 10.24095065 -46.13308248 12.35835505 -48.66015625 14.8203125 C-49.37107422 15.52027344 -50.08199219 16.22023438 -50.81445312 16.94140625 C-51.55630859 17.66199219 -52.29816406 18.38257812 -53.0625 19.125 C-54.53473193 20.56287561 -56.00489156 22.00287708 -57.47265625 23.4453125 C-58.12500244 24.07969238 -58.77734863 24.71407227 -59.44946289 25.36767578 C-61.08886 26.93459167 -61.08886 26.93459167 -62 29 C-57.2898103 26.52980653 -53.92889686 23.19493511 -50.25 19.4375 C-49.66089844 18.84775391 -49.07179687 18.25800781 -48.46484375 17.65039062 C-45.3488497 14.60938527 -45.3488497 14.60938527 -43 11 C-42.34 11 -41.68 11 -41 11 C-40.2421875 12.72265625 -40.2421875 12.72265625 -40 15 C-41.6953125 17.18359375 -41.6953125 17.18359375 -44.125 19.4375 C-44.95128906 20.21867187 -45.77757812 20.99984375 -46.62890625 21.8046875 C-47.41136719 22.52914062 -48.19382813 23.25359375 -49 24 C-50.02666319 25.01496999 -51.04903702 26.03434915 -52.0625 27.0625 C-52.701875 27.701875 -53.34125 28.34125 -54 29 C-48.83895469 27.69081989 -46.24887214 25.66485675 -42.625 21.8125 C-38.27609349 17.28103403 -33.79756611 13.051726 -29 9 C-27.66627357 7.85462425 -26.33292145 6.70881244 -25 5.5625 C-24.01 4.716875 -23.02 3.87125 -22 3 C-22 7 -22 7 -23.48120117 8.93530273 C-24.16158447 9.59473877 -24.84196777 10.2541748 -25.54296875 10.93359375 C-26.65961914 12.0309082 -26.65961914 12.0309082 -27.79882812 13.15039062 C-28.58708984 13.90513672 -29.37535156 14.65988281 -30.1875 15.4375 C-30.95642578 16.18837891 -31.72535156 16.93925781 -32.51757812 17.71289062 C-34.00572933 19.16527511 -35.49761263 20.61384791 -36.99365234 22.05810547 C-39.35690364 24.34543825 -41.6837637 26.66519667 -44 29 C-40.33596142 26.96781378 -37.55560756 24.77505275 -34.64453125 21.76953125 C-33.85755859 20.96708984 -33.07058594 20.16464844 -32.25976562 19.33789062 C-31.45216797 18.50451172 -30.64457031 17.67113281 -29.8125 16.8125 C-28.19863658 15.14784623 -26.58037512 13.48744117 -24.95703125 11.83203125 C-23.88932495 10.72952026 -23.88932495 10.72952026 -22.80004883 9.60473633 C-21 8 -21 8 -19 8 C-19.18522023 13.69824576 -23.08895419 16.60889447 -26.9375 20.3125 C-27.58396484 20.95767578 -28.23042969 21.60285156 -28.89648438 22.26757812 C-33.71904762 27 -33.71904762 27 -36 27 C-36 27.66 -36 28.32 -36 29 C-30.704286 27.7035715 -27.74451229 25.20769412 -24.125 21.3125 C-23.07227532 20.21816051 -22.0175893 19.12570434 -20.9609375 18.03515625 C-20.45401367 17.50937988 -19.94708984 16.98360352 -19.42480469 16.44189453 C-17.04095907 14.02945584 -14.46815785 11.85848102 -11.8828125 9.66796875 C-8.98594986 7.10166097 -6.33220528 4.30492467 -3.6640625 1.50390625 C-2 0 -2 0 0 0 Z " fill="#083543" transform="translate(134,46)"/>
<path d="M0 0 C43.23 0 86.46 0 131 0 C131 3.63 131 7.26 131 11 C129.44667969 11.845625 127.89335937 12.69125 126.29296875 13.5625 C119.95451813 17.02075704 113.62869796 20.50127187 107.3125 24 C106.73771912 24.31793518 106.16293823 24.63587036 105.57073975 24.96343994 C95.81014698 30.36733869 86.16078797 35.93842717 76.6027832 41.6953125 C75.20999146 42.52289063 75.20999146 42.52289063 73.7890625 43.3671875 C72.57790771 44.09591064 72.57790771 44.09591064 71.34228516 44.83935547 C68.77393784 46.11201788 66.86531699 46.79699845 64 47 C61.50244141 46.03466797 61.50244141 46.03466797 58.8515625 44.4921875 C57.85761475 43.92395264 56.86366699 43.35571777 55.83959961 42.77026367 C54.77878174 42.14482666 53.71796387 41.51938965 52.625 40.875 C51.52099854 40.23989502 50.41699707 39.60479004 49.27954102 38.95043945 C46.98041305 37.6276827 44.68442756 36.30067616 42.39208984 34.96630859 C37.2659656 31.99482417 32.10084004 29.09364697 26.9375 26.1875 C25.05962567 25.12547757 23.18201467 24.06298934 21.3046875 23 C14.2109292 18.98612153 7.10635461 14.99152284 0 11 C0 7.37 0 3.74 0 0 Z " fill="#88C8CB" transform="translate(35,128)"/>
<path d="M0 0 C2.43994141 1.14477539 2.43994141 1.14477539 4.8515625 2.59765625 C6.23045654 3.41665405 6.23045654 3.41665405 7.63720703 4.25219727 C8.62317871 4.84959717 9.60915039 5.44699707 10.625 6.0625 C12.78042274 7.3451412 14.93670842 8.6263331 17.09375 9.90625 C18.22167969 10.57785156 19.34960938 11.24945313 20.51171875 11.94140625 C27.39265713 16.01856996 34.36875095 19.93346239 41.32666016 23.87719727 C43.5626525 25.14935338 45.770858 26.47118888 47.95385742 27.83227539 C51.10270141 29.68413635 54.20474855 30.71949399 57.6965332 31.77514648 C64.50657602 34.19439213 69.96185054 36.80022512 74 43 C78.4088497 56.25276767 76.54519615 72.00922167 76.03521729 85.72705078 C75.90474067 90.01379016 75.89029495 94.29752945 75.87905025 98.58598995 C75.86104968 102.72107142 75.79434942 106.85414604 75.71054268 110.98837471 C75.67194983 112.96212965 75.64299905 114.93609824 75.62400627 116.91013908 C75.41073925 132.1932801 75.41073925 132.1932801 72.08097839 136.45767212 C69.7618912 138.04048379 67.63266173 139.04699622 65 140 C64.03118896 140.57556641 63.06237793 141.15113281 62.06420898 141.74414062 C60.79299194 142.44313477 60.79299194 142.44313477 59.49609375 143.15625 C58.52043457 143.69660889 57.54477539 144.23696777 56.53955078 144.79370117 C55.51587402 145.35677979 54.49219727 145.9198584 53.4375 146.5 C44.77848276 151.30506694 36.17124823 156.184531 27.625 161.1875 C26.64096191 161.76121338 25.65692383 162.33492676 24.64306641 162.92602539 C19.88967996 165.70193035 15.15548149 168.50424786 10.44921875 171.359375 C9.58022949 171.87991455 8.71124023 172.4004541 7.81591797 172.93676758 C6.19433491 173.90886345 4.57953793 174.89240768 2.97314453 175.8894043 C2.25626465 176.31648682 1.53938477 176.74356934 0.80078125 177.18359375 C0.18372314 177.56056396 -0.43333496 177.93753418 -1.0690918 178.32592773 C-4.45360472 179.50744755 -7.09346576 178.42716947 -10.23461914 176.94702148 C-10.99379639 176.50946533 -11.75297363 176.07190918 -12.53515625 175.62109375 C-13.41236328 175.12029297 -14.28957031 174.61949219 -15.19335938 174.10351562 C-16.14017578 173.55373047 -17.08699219 173.00394531 -18.0625 172.4375 C-19.06474609 171.86322266 -20.06699219 171.28894531 -21.09960938 170.69726562 C-23.26743134 169.45452281 -25.43354771 168.20880108 -27.59814453 166.96044922 C-31.03888531 164.97759086 -34.48497544 163.00426554 -37.93359375 161.03515625 C-38.51425095 160.70358521 -39.09490814 160.37201416 -39.69316101 160.03039551 C-40.87176819 159.35741194 -42.0503927 158.68445871 -43.22903442 158.01153564 C-44.99807929 157.00109707 -46.76658156 155.98971543 -48.53491211 154.97802734 C-56.3870491 150.48631491 -64.25027492 146.01451779 -72.125 141.5625 C-73.09695312 141.01271484 -74.06890625 140.46292969 -75.0703125 139.89648438 C-79.49475921 137.37276697 -79.49475921 137.37276697 -84 135 C-84 104.64 -84 74.28 -84 43 C-58.05361174 28.33465011 -58.05361174 28.33465011 -48.5 23 C-38.2628695 17.27519276 -28.0442387 11.51822992 -17.8359375 5.7421875 C-17.0015918 5.27522461 -16.16724609 4.80826172 -15.30761719 4.32714844 C-13.85461103 3.4915008 -12.41924953 2.62358237 -11.01269531 1.71191406 C-6.8221135 -0.96648404 -4.7712488 -1.16990239 0 0 Z M-19.92578125 13.640625 C-20.93970947 14.21079346 -21.9536377 14.78096191 -22.99829102 15.3684082 C-24.09197998 15.9893335 -25.18566895 16.61025879 -26.3125 17.25 C-27.43519287 17.88317139 -28.55788574 18.51634277 -29.71459961 19.16870117 C-37.62347179 23.63499952 -45.51744032 28.12796682 -53.39379883 32.65136719 C-58.69014077 35.69180837 -64.00601167 38.69626371 -69.32983398 41.68823242 C-70.43880665 42.3117371 -70.43880665 42.3117371 -71.5701828 42.94783783 C-73.38003736 43.96537554 -75.190007 44.98270856 -77 46 C-77.39494694 56.90858521 -77.69644646 67.81545651 -77.88080692 78.72974968 C-77.96932815 83.79897388 -78.08919682 88.86328975 -78.2824707 93.9296875 C-78.46805587 98.82552725 -78.5689842 103.71667049 -78.61291313 108.61575699 C-78.64418294 110.47827298 -78.70526766 112.34054787 -78.79741096 114.20104599 C-79.27709094 122.81387071 -79.27709094 122.81387071 -77 131 C-72.90670573 135.34865758 -67.53997251 137.74140482 -62.12409782 140.05637646 C-58.95925658 141.46234688 -56.06482045 143.20745977 -53.09375 144.984375 C-50.89672809 146.24114878 -48.6988005 147.49634056 -46.5 148.75 C-45.91847168 149.0816214 -45.33694336 149.4132428 -44.73779297 149.75491333 C-41.10046789 151.82847164 -37.46104634 153.89831466 -33.8203125 155.96588135 C-31.99949168 157.00028877 -30.17939782 158.03596664 -28.359375 159.07177734 C-24.91004964 161.03375801 -21.45544748 162.98631992 -18 164.9375 C-16.95005859 165.5346582 -15.90011719 166.13181641 -14.81835938 166.74707031 C-13.36139648 167.56643066 -13.36139648 167.56643066 -11.875 168.40234375 C-11.02679688 168.88179443 -10.17859375 169.36124512 -9.3046875 169.85522461 C-7.13490167 170.93299217 -5.40077282 171.69595985 -3 172 C-0.48297236 170.76917964 1.76627938 169.48909838 4.125 168 C5.66176225 167.06346431 7.19959262 166.12867986 8.73828125 165.1953125 C9.57955566 164.68129883 10.42083008 164.16728516 11.28759766 163.63769531 C29.95035858 152.36948647 49.07993196 141.81146745 68 131 C68 102.95 68 74.9 68 46 C60.74 42.04 53.48 38.08 46 34 C41.85779543 31.62592504 37.73118752 29.24544101 33.625 26.8125 C31.62683608 25.63841364 29.62813604 24.46523923 27.62890625 23.29296875 C26.68031738 22.73657715 25.73172852 22.18018555 24.75439453 21.60693359 C20.70886548 19.24674283 16.64220724 16.92551981 12.5625 14.625 C11.90008301 14.24964111 11.23766602 13.87428223 10.55517578 13.48754883 C7.9305859 11.74983191 7.9305859 11.74983191 5 11 C4.67 16.61 4.34 22.22 4 28 C1.69 25.36 -0.62 22.72 -3 20 C-7.687118 22.00954331 -7.687118 22.00954331 -12 28 C-12.33 22.39 -12.66 16.78 -13 11 C-15.84135589 11 -17.4538509 12.24447274 -19.92578125 13.640625 Z " fill="#0C313F" transform="translate(105,12)"/>
<path d="M0 0 C0.33 0 0.66 0 1 0 C1.33 29.7 1.66 59.4 2 90 C4.97 91.32 7.94 92.64 11 94 C10.18670731 93.3476387 9.37341461 92.6952774 8.53547668 92.02314758 C5.33957902 88.21255435 5.32248456 85.37839096 5.43237305 80.62963867 C5.43164291 79.79985504 5.43091278 78.97007141 5.43016052 78.11514282 C5.43363419 75.38207827 5.4724834 72.65073422 5.51171875 69.91796875 C5.5210477 68.01940339 5.52816342 66.12082597 5.53315735 64.22224426 C5.55222073 59.23245843 5.60131597 54.24340378 5.65667725 49.25390625 C5.70788389 44.15960582 5.73067442 39.0651869 5.75585938 33.97070312 C5.80943524 23.98014803 5.89474019 13.99013489 6 4 C6.33 4 6.66 4 7 4 C7.33 31.72 7.66 59.44 8 88 C16.25 92.62 24.5 97.24 33 102 C53.73774625 114.06175037 53.73774625 114.06175037 63.03125 119.58203125 C64.93725435 120.70093939 66.84349428 121.81944636 68.75 122.9375 C69.6255957 123.46424316 70.50119141 123.99098633 71.40332031 124.53369141 C72.21381836 125.00597168 73.02431641 125.47825195 73.859375 125.96484375 C74.56545898 126.3837085 75.27154297 126.80257324 75.99902344 127.23413086 C78.52827338 128.20219541 79.49088129 127.96954064 82 127 C83.69593014 126.15745491 85.36573296 125.26150289 87.015625 124.33203125 C88.50352539 123.49720215 88.50352539 123.49720215 90.02148438 122.64550781 C91.08689453 122.04061523 92.15230469 121.43572266 93.25 120.8125 C94.35666016 120.18827148 95.46332031 119.56404297 96.60351562 118.92089844 C104.26714459 114.58484064 111.89413792 110.18659945 119.5 105.75 C120.4887915 105.17338623 121.47758301 104.59677246 122.49633789 104.00268555 C127.05469878 101.33620208 131.59640367 98.64754403 136.10546875 95.8984375 C136.88535156 95.42696289 137.66523438 94.95548828 138.46875 94.46972656 C139.89776606 93.60363716 141.32143869 92.72863738 142.73828125 91.84277344 C146.66370103 89.47015603 148.20638082 89 153 89 C153 59.63 153 30.26 153 0 C154.98 0.495 154.98 0.495 157 1 C157.55846427 12.62063675 157.98361232 24.23804422 158.24349213 35.86940956 C158.36830845 41.27260605 158.537117 46.66657384 158.81054688 52.06445312 C160.52514762 86.81734684 160.52514762 86.81734684 154.79248047 95.2454834 C149.26443586 100.26328095 142.98563714 102.81253952 135.93286133 105.02947998 C132.04934816 106.31458243 128.81512186 108.20444046 125.375 110.375 C122.67964025 111.9099285 119.9829993 113.44255136 117.28488159 114.97262573 C110.83502037 118.63206216 104.41571795 122.32842667 98.06640625 126.16015625 C96.97005859 126.81693359 95.87371094 127.47371094 94.74414062 128.15039062 C92.67161717 129.39594032 90.60607935 130.65321217 88.54882812 131.92382812 C87.62650391 132.47619141 86.70417969 133.02855469 85.75390625 133.59765625 C84.55229858 134.33254272 84.55229858 134.33254272 83.32641602 135.08227539 C80.38412351 136.24295096 78.98754918 135.95986458 76 135 C73.76538086 133.94702148 73.76538086 133.94702148 71.46484375 132.62109375 C70.58763672 132.12029297 69.71042969 131.61949219 68.80664062 131.10351562 C67.85982422 130.55373047 66.91300781 130.00394531 65.9375 129.4375 C64.93525391 128.86322266 63.93300781 128.28894531 62.90039062 127.69726562 C60.73256866 126.45452281 58.56645229 125.20880108 56.40185547 123.96044922 C52.96111469 121.97759086 49.51502456 120.00426554 46.06640625 118.03515625 C45.48574905 117.70358521 44.90509186 117.37201416 44.30683899 117.03039551 C43.12823181 116.35741194 41.9496073 115.68445871 40.77096558 115.01153564 C39.00192071 114.00109707 37.23341844 112.98971543 35.46508789 111.97802734 C27.6129509 107.48631491 19.74972508 103.01451779 11.875 98.5625 C10.90304688 98.01271484 9.93109375 97.46292969 8.9296875 96.89648438 C4.50524079 94.37276697 4.50524079 94.37276697 0 92 C0 61.64 0 31.28 0 0 Z " fill="#102F3D" transform="translate(21,55)"/>
<path d="M0 0 C2.97 0 5.94 0 9 0 C9.84334329 2.22582389 10.67478551 4.45496026 11.5 6.6875 C11.73847656 7.31333984 11.97695312 7.93917969 12.22265625 8.58398438 C13.5412725 12.18192299 14.29329235 15.16520253 14 19 C14.66 19 15.32 19 16 19 C16.0825 17.906875 16.165 16.81375 16.25 15.6875 C16.91504378 10.15870322 18.96459272 5.15005376 21 0 C23.97 0 26.94 0 30 0 C30 9.24 30 18.48 30 28 C27.69 28 25.38 28 23 28 C22.67 24.04 22.34 20.08 22 16 C21.525625 17.423125 21.05125 18.84625 20.5625 20.3125 C19.70833333 22.875 18.85416667 25.4375 18 28 C16.02 28 14.04 28 12 28 C10.35 23.05 8.7 18.1 7 13 C6.67 17.95 6.34 22.9 6 28 C4.02 28 2.04 28 0 28 C0 18.76 0 9.52 0 0 Z " fill="#F3F4F4" transform="translate(109,84)"/>
<path d="M0 0 C0.33 0 0.66 0 1 0 C1.33 29.7 1.66 59.4 2 90 C4.97 91.32 7.94 92.64 11 94 C10.18670731 93.3476387 9.37341461 92.6952774 8.53547668 92.02314758 C5.33957902 88.21255435 5.32248456 85.37839096 5.43237305 80.62963867 C5.43164291 79.79985504 5.43091278 78.97007141 5.43016052 78.11514282 C5.43363419 75.38207827 5.4724834 72.65073422 5.51171875 69.91796875 C5.5210477 68.01940339 5.52816342 66.12082597 5.53315735 64.22224426 C5.55222073 59.23245843 5.60131597 54.24340378 5.65667725 49.25390625 C5.70788389 44.15960582 5.73067442 39.0651869 5.75585938 33.97070312 C5.80943524 23.98014803 5.89474019 13.99013489 6 4 C6.33 4 6.66 4 7 4 C7.33 31.72 7.66 59.44 8 88 C16.25 92.62 24.5 97.24 33 102 C41 107 41 107 42 110 C40.5625 112.1875 40.5625 112.1875 39 114 C38.20940186 113.5467334 37.41880371 113.0934668 36.60424805 112.62646484 C33.61713631 110.9146192 30.62943653 109.20380846 27.64135742 107.49365234 C26.35824979 106.75902793 25.07536497 106.02401419 23.79272461 105.28857422 C21.92883571 104.2199543 20.06409841 103.15282726 18.19921875 102.0859375 C17.08377686 101.4470459 15.96833496 100.8081543 14.8190918 100.14990234 C9.90655296 97.38445985 4.94908208 94.69949932 0 92 C0 61.64 0 31.28 0 0 Z " fill="#304652" transform="translate(21,55)"/>
<path d="M0 0 C2.37109375 1.53125 2.37109375 1.53125 4 3 C3.34 4.32 2.68 5.64 2 7 C-3.445 6.505 -3.445 6.505 -9 6 C-8.67 7.32 -8.34 8.64 -8 10 C-6.783125 10.2475 -5.56625 10.495 -4.3125 10.75 C-0.38587891 11.76129673 2.27862681 12.85341225 5 16 C5.625 19.4375 5.625 19.4375 5 23 C2.44517313 26.09268515 0.21879446 28.76501566 -3.91796875 29.203125 C-9.42762286 29.31692164 -13.08881489 28.5078392 -18 26 C-17.6875 24.125 -17.6875 24.125 -17 22 C-16.01 21.34 -15.02 20.68 -14 20 C-13.01 20.66 -12.02 21.32 -11 22 C-8.94290404 22.24055468 -8.94290404 22.24055468 -6.8125 22.125 C-5.554375 22.08375 -4.29625 22.0425 -3 22 C-3 21.01 -3 20.02 -3 19 C-3.67546875 18.82984375 -4.3509375 18.6596875 -5.046875 18.484375 C-14.62803235 15.88140162 -14.62803235 15.88140162 -17 12 C-17.69182497 7.77218073 -17.44829471 5.7524947 -15.25 2.0625 C-10.43189446 -0.9951439 -5.5691894 -0.91926097 0 0 Z " fill="#EBEDED" transform="translate(102,84)"/>
<path d="M0 0 C2.37109375 1.53125 2.37109375 1.53125 4 3 C3.34 4.32 2.68 5.64 2 7 C-3.445 6.505 -3.445 6.505 -9 6 C-8.67 7.32 -8.34 8.64 -8 10 C-6.783125 10.2475 -5.56625 10.495 -4.3125 10.75 C-0.38587891 11.76129673 2.27862681 12.85341225 5 16 C5.625 19.4375 5.625 19.4375 5 23 C2.42935644 26.11183168 0.2059814 28.77057793 -3.953125 29.203125 C-9.11050575 29.30837767 -12.48171843 28.78048097 -17 26 C-17 24.68 -17 23.36 -17 22 C-16.01 21.34 -15.02 20.68 -14 20 C-13.01 20.66 -12.02 21.32 -11 22 C-8.94290404 22.24055468 -8.94290404 22.24055468 -6.8125 22.125 C-5.554375 22.08375 -4.29625 22.0425 -3 22 C-3 21.01 -3 20.02 -3 19 C-3.67546875 18.82984375 -4.3509375 18.6596875 -5.046875 18.484375 C-14.62803235 15.88140162 -14.62803235 15.88140162 -17 12 C-17.69182497 7.77218073 -17.44829471 5.7524947 -15.25 2.0625 C-10.43189446 -0.9951439 -5.5691894 -0.91926097 0 0 Z " fill="#ECEDEE" transform="translate(79,84)"/>
<path d="M0 0 C1.32 0.33 2.64 0.66 4 1 C4.11572377 12.81300896 4.20462903 24.62588364 4.25906086 36.43934345 C4.28518227 41.92452797 4.3206271 47.40932541 4.37719727 52.89428711 C4.43142576 58.18516544 4.46140136 63.47567091 4.47438622 68.76680565 C4.48364255 70.78792379 4.50171769 72.80902096 4.52865028 74.82998085 C4.56481888 77.65574257 4.56995048 80.4799532 4.56762695 83.3059082 C4.59459152 84.56610527 4.59459152 84.56610527 4.62210083 85.85176086 C4.60127258 88.18452454 4.60127258 88.18452454 4 92 C0.61674914 94.90661549 -2.62214983 95.49094765 -7 96 C-7 94.68 -7 93.36 -7 92 C-6.34 92 -5.68 92 -5 92 C-4.67 91.01 -4.34 90.02 -4 89 C-2.68 89 -1.36 89 0 89 C0 59.63 0 30.26 0 0 Z " fill="#133C49" transform="translate(174,55)"/>
<path d="M0 0 C0.99 0.66 1.98 1.32 3 2 C2.01 2.495 2.01 2.495 1 3 C0.67 3.99 0.34 4.98 0 6 C0.66 6 1.32 6 2 6 C2.01030746 7.04569656 2.02061493 8.09139313 2.03123474 9.16877747 C2.12889864 19.01300242 2.23162609 28.85716318 2.33933926 38.70128345 C2.39455499 43.76250331 2.4479729 48.82372896 2.49731445 53.88500977 C2.54497782 58.76741812 2.59732145 63.64975572 2.65294075 68.5320797 C2.67335534 70.39681936 2.69206991 72.26157843 2.70907402 74.12635231 C2.73313778 76.73380178 2.76318975 79.34111745 2.79467773 81.94848633 C2.8004332 82.72316254 2.80618866 83.49783875 2.81211853 84.29598999 C2.85561826 87.45515818 2.99367774 89.98103321 4 93 C5.65204456 93.70211894 7.31923769 94.36971413 9 95 C9.33 95.66 9.66 96.32 10 97 C8.37276701 96.54965877 6.74826336 96.08944646 5.125 95.625 C3.76761719 95.24214844 3.76761719 95.24214844 2.3828125 94.8515625 C-0 94 -0 94 -2 92 C-2.18824486 89.10777447 -2.25170246 86.3120186 -2.22705078 83.41943359 C-2.22734283 82.53156662 -2.22763489 81.64369965 -2.22793579 80.72892761 C-2.22653907 77.78533253 -2.21096184 74.84198853 -2.1953125 71.8984375 C-2.19158358 69.86105487 -2.18873604 67.82367046 -2.18673706 65.7862854 C-2.17909104 60.41698275 -2.15943425 55.04778784 -2.1373291 49.67852783 C-2.11689151 44.20236672 -2.10773982 38.72618824 -2.09765625 33.25 C-2.07618926 22.49995259 -2.04204166 11.74998525 -2 1 C-1.34 0.67 -0.68 0.34 0 0 Z " fill="#0D3745" transform="translate(24,53)"/>
<path d="M0 0 C8.89545681 1.60894957 19.9730176 4.78739481 26 12 C28.63880517 18.48252223 27.74282074 25.94342882 27.46484375 32.78515625 C27.43683588 34.81245549 27.41549851 36.83985688 27.40052795 38.86729431 C27.34348373 44.18179957 27.19638853 49.49006906 27.02996826 54.80212402 C26.87599424 60.23115662 26.80790538 65.66120623 26.73242188 71.09179688 C26.5719642 81.73059199 26.31627551 92.3647759 26 103 C25.67 103 25.34 103 25 103 C25 73.3 25 43.6 25 13 C24.01 13.33 23.02 13.66 22 14 C21.67 42.71 21.34 71.42 21 101 C19.02 101.495 19.02 101.495 17 102 C17.33 101.34 17.66 100.68 18 100 C18.66 100 19.32 100 20 100 C20 71.95 20 43.9 20 15 C18.02 14.34 16.04 13.68 14 13 C12.53944017 12.25397238 11.10165115 11.46099069 9.6953125 10.6171875 C8.94765625 10.17246094 8.2 9.72773437 7.4296875 9.26953125 C6.28886719 8.57923828 6.28886719 8.57923828 5.125 7.875 C4.34125 7.40707031 3.5575 6.93914063 2.75 6.45703125 C0.83017528 5.30981892 -1.08630561 4.1573993 -3 3 C-2.01 2.67 -1.02 2.34 0 2 C0 1.34 0 0.68 0 0 Z " fill="#071623" transform="translate(153,43)"/>
<path d="M0 0 C0.66 0 1.32 0 2 0 C2.7425 1.1446875 2.7425 1.1446875 3.5 2.3125 C6.6797406 5.73072114 9.38439608 6.17970341 13.85546875 7.12890625 C16 8 16 8 16.86328125 10.02734375 C16.90839844 10.67832031 16.95351562 11.32929687 17 12 C16 13 16 13 12.1875 13.1875 C8.96459799 13.1585691 6.74455277 12.82970185 4 11 C3.01 11.66 2.02 12.32 1 13 C0.9071875 11.4221875 0.9071875 11.4221875 0.8125 9.8125 C-0.13408616 5.3708265 -1.59156258 3.88406243 -5 1 C-2.525 1.495 -2.525 1.495 0 2 C0 1.34 0 0.68 0 0 Z " fill="#142D3D" transform="translate(83,94)"/>
<path d="M0 0 C1.65 0 3.3 0 5 0 C5.67260351 1.76858691 6.33788395 3.53996016 7 5.3125 C7.37125 6.29863281 7.7425 7.28476563 8.125 8.30078125 C9 11 9 11 9 14 C8.01 14 7.02 14 6 14 C6 13.01 6 12.02 6 11 C3.69 11 1.38 11 -1 11 C-1 11.99 -1 12.98 -1 14 C-1.99 14 -2.98 14 -4 14 C-3.00956295 9.16371695 -2.04301154 4.52381127 0 0 Z " fill="#0F3446" transform="translate(92,134)"/>
<path d="M0 0 C0 0.66 0 1.32 0 2 C-1.98 2.33 -3.96 2.66 -6 3 C-6.33 3.99 -6.66 4.98 -7 6 C-6.05125 5.79375 -5.1025 5.5875 -4.125 5.375 C-2.578125 5.189375 -2.578125 5.189375 -1 5 C-0.34 5.66 0.32 6.32 1 7 C0.67028521 10.29714793 0.3773161 11.6226839 -2 14 C-4.4375 14.375 -4.4375 14.375 -7 14 C-9.77334669 11.60918389 -9.98943126 10.100403 -10.375 6.4375 C-10 3 -10 3 -8.9375 1.0625 C-5.98831309 -0.55479605 -3.29132441 -0.18630138 0 0 Z " fill="#153D4C" transform="translate(105,152)"/>
<path d="M0 0 C-0.18522023 5.69824576 -4.08895419 8.60889447 -7.9375 12.3125 C-8.58396484 12.95767578 -9.23042969 13.60285156 -9.89648438 14.26757812 C-14.71904762 19 -14.71904762 19 -17 19 C-17 19.66 -17 20.32 -17 21 C-18.98 21.66 -20.96 22.32 -23 23 C-20.97228062 19.36415822 -18.7757832 16.51928514 -15.83984375 13.57421875 C-15.04642578 12.77822266 -14.25300781 11.98222656 -13.43554688 11.16210938 C-12.61119141 10.34548828 -11.78683594 9.52886719 -10.9375 8.6875 C-10.10927734 7.85154297 -9.28105469 7.01558594 -8.42773438 6.15429688 C-7.63560547 5.36474609 -6.84347656 4.57519531 -6.02734375 3.76171875 C-4.94054321 2.678302 -4.94054321 2.678302 -3.83178711 1.57299805 C-2 0 -2 0 0 0 Z " fill="#1F3041" transform="translate(115,54)"/>
<path d="M0 0 C0.66 0.33 1.32 0.66 2 1 C0.55217309 4.33018799 -1.26442935 6.49895042 -3.84375 9.0390625 C-4.59527344 9.78414062 -5.34679687 10.52921875 -6.12109375 11.296875 C-6.90613281 12.06515625 -7.69117187 12.8334375 -8.5 13.625 C-9.28503906 14.40101562 -10.07007812 15.17703125 -10.87890625 15.9765625 C-12.33173546 17.41194779 -13.78660567 18.84527222 -15.24414062 20.27587891 C-16.50213292 21.51113219 -17.75332537 22.75332537 -19 24 C-20.32 23.67 -21.64 23.34 -23 23 C-15.41 15.41 -7.82 7.82 0 0 Z " fill="#03253A" transform="translate(89,52)"/>
<path d="M0 0 C3.0625 0.125 3.0625 0.125 5.0625 1.125 C5.0625 1.785 5.0625 2.445 5.0625 3.125 C2.7525 2.795 0.4425 2.465 -1.9375 2.125 C-1.6075 3.115 -1.2775 4.105 -0.9375 5.125 C2.56544871 6.84067661 2.56544871 6.84067661 6.0625 8.125 C5.75 10.5 5.75 10.5 5.0625 13.125 C1.83458445 15.2769437 0.77849191 15.32586443 -2.9375 15.125 C-3.5975 13.805 -4.2575 12.485 -4.9375 11.125 C-2.2975 11.455 0.3425 11.785 3.0625 12.125 C3.0625 11.135 3.0625 10.145 3.0625 9.125 C2.11375 9.00125 1.165 8.8775 0.1875 8.75 C-2.9375 8.125 -2.9375 8.125 -4.9375 6.125 C-4.21240871 0.17925143 -4.21240871 0.17925143 0 0 Z " fill="#133748" transform="translate(80.9375,133.875)"/>
<path d="M0 0 C0.66 0.33 1.32 0.66 2 1 C0.5735422 4.2586636 -1.16704162 6.4024854 -3.6953125 8.890625 C-4.76845703 9.95410156 -4.76845703 9.95410156 -5.86328125 11.0390625 C-6.60964844 11.76867188 -7.35601562 12.49828125 -8.125 13.25 C-8.87910156 13.99507812 -9.63320312 14.74015625 -10.41015625 15.5078125 C-12.26900772 17.3431342 -14.13237005 19.1736191 -16 21 C-16.99 20.01 -17.98 19.02 -19 18 C-18.53102295 17.56131592 -18.0620459 17.12263184 -17.57885742 16.6706543 C-15.4479108 14.6767969 -13.31769829 12.68215687 -11.1875 10.6875 C-10.44951172 9.99720703 -9.71152344 9.30691406 -8.95117188 8.59570312 C-8.23896484 7.92861328 -7.52675781 7.26152344 -6.79296875 6.57421875 C-6.1383667 5.96151123 -5.48376465 5.34880371 -4.80932617 4.7175293 C-3.17905198 3.16996771 -1.58078486 1.59789755 0 0 Z " fill="#1D3040" transform="translate(111,49)"/>
<path d="M0 0 C5.94 1.485 5.94 1.485 12 3 C12.33 4.32 12.66 5.64 13 7 C12 8 12 8 8.25 8.1875 C4.76415714 8.15615249 2.15520917 7.57760458 -1 6 C-0.67 4.02 -0.34 2.04 0 0 Z " fill="#16313E" transform="translate(64,99)"/>
<path d="M0 0 C0.58571777 0.22776123 1.17143555 0.45552246 1.77490234 0.69018555 C1.11490234 0.69018555 0.45490234 0.69018555 -0.22509766 0.69018555 C-0.49008057 1.27896484 -0.75506348 1.86774414 -1.02807617 2.47436523 C-3.05539651 6.22716135 -6.15931644 8.95208776 -9.16259766 11.94018555 C-9.79617187 12.58987305 -10.42974609 13.23956055 -11.08251953 13.90893555 C-11.69546875 14.5225293 -12.30841797 15.13612305 -12.93994141 15.76831055 C-13.4980249 16.329375 -14.0561084 16.89043945 -14.63110352 17.46850586 C-16.22509766 18.69018555 -16.22509766 18.69018555 -19.22509766 18.69018555 C-17.05730455 13.84708701 -13.54400539 10.60307545 -9.85009766 6.87768555 C-9.17720703 6.17192383 -8.50431641 5.46616211 -7.81103516 4.73901367 C-7.15619141 4.07708008 -6.50134766 3.41514648 -5.82666016 2.7331543 C-5.23191895 2.1249585 -4.63717773 1.5167627 -4.02441406 0.89013672 C-2.22509766 -0.30981445 -2.22509766 -0.30981445 0 0 Z " fill="#D3D6D7" transform="translate(91.22509765625,56.309814453125)"/>
<path d="M0 0 C0.57492188 0.24492188 1.14984375 0.48984375 1.7421875 0.7421875 C1.11957031 1.25652344 1.11957031 1.25652344 0.484375 1.78125 C-3.09629436 4.82257168 -6.51326386 7.96859343 -9.80078125 11.32421875 C-10.42130371 11.9569873 -11.04182617 12.58975586 -11.68115234 13.24169922 C-12.93426503 14.52720045 -14.18078619 15.81916231 -15.42041016 17.11767578 C-16.00226074 17.71435059 -16.58411133 18.31102539 -17.18359375 18.92578125 C-17.70348877 19.46775146 -18.22338379 20.00972168 -18.7590332 20.56811523 C-20.2578125 21.7421875 -20.2578125 21.7421875 -23.2578125 21.7421875 C-21.75648949 18.09142936 -19.66885915 16.10942477 -16.6953125 13.5546875 C-12.26386898 9.70042187 -8.22297042 5.63389194 -4.265625 1.296875 C-2.2578125 -0.2578125 -2.2578125 -0.2578125 0 0 Z " fill="#EBECED" transform="translate(113.2578125,53.2578125)"/>
<path d="M0 0 C3.3 0 6.6 0 10 0 C10 0.66 10 1.32 10 2 C7.69 2 5.38 2 3 2 C3 3.32 3 4.64 3 6 C4.98 6 6.96 6 9 6 C9 6.66 9 7.32 9 8 C7.02 8 5.04 8 3 8 C3 9.98 3 11.96 3 14 C2.01 14 1.02 14 0 14 C0 9.38 0 4.76 0 0 Z " fill="#0E3242" transform="translate(103,134)"/>
<path d="M0 0 C9.96116505 1.84466019 9.96116505 1.84466019 14 5 C14.33 5.99 14.66 6.98 15 8 C13.02 8.99 13.02 8.99 11 10 C10.67 9.01 10.34 8.02 10 7 C7.03 6.505 7.03 6.505 4 6 C3.67 5.01 3.34 4.02 3 3 C1.68 3 0.36 3 -1 3 C-0.67 2.01 -0.34 1.02 0 0 Z " fill="#0F3441" transform="translate(41,153)"/>
<path d="M0 0 C0.66 0.33 1.32 0.66 2 1 C0.49017269 4.42856619 -1.51713969 6.95678216 -4 9.75 C-5.051875 10.94882813 -5.051875 10.94882813 -6.125 12.171875 C-8 14 -8 14 -10 14 C-10.33 14.66 -10.66 15.32 -11 16 C-11.99 16 -12.98 16 -14 16 C-12.34136495 11.67495164 -9.128959 8.90581175 -5.875 5.75 C-5.31167969 5.19570312 -4.74835938 4.64140625 -4.16796875 4.0703125 C-2.78313972 2.70895515 -1.39216796 1.35385141 0 0 Z " fill="#213541" transform="translate(72,59)"/>
<path d="M0 0 C0.33 0.66 0.66 1.32 1 2 C2.98 2 4.96 2 7 2 C4.21503399 5.24741424 0.60463249 7.16089095 -3.0625 9.25 C-3.69994141 9.62640625 -4.33738281 10.0028125 -4.99414062 10.390625 C-6.6266499 11.32643643 -8.31071511 12.17105723 -10 13 C-10.66 12.67 -11.32 12.34 -12 12 C-11.01 11.67 -10.02 11.34 -9 11 C-7.78130071 8.49552484 -7.78130071 8.49552484 -7 6 C-6.67 6.66 -6.34 7.32 -6 8 C-5.34 7.34 -4.68 6.68 -4 6 C-4 5.34 -4 4.68 -4 4 C-4.66 3.67 -5.32 3.34 -6 3 C-2.25 0 -2.25 0 0 0 Z " fill="#0D2A37" transform="translate(117,175)"/>
<path d="M0 0 C0 3.9519815 -1.37176172 5.14648416 -4 8 C-7.62326739 9.2077558 -8.64146369 8.54311128 -12 7 C-12 6.01 -12 5.02 -12 4 C-4.71428571 -0.57142857 -4.71428571 -0.57142857 0 0 Z " fill="#11303E" transform="translate(61,35)"/>
<path d="M0 0 C0 0.99 0 1.98 0 3 C-1.98 3.99 -1.98 3.99 -4 5 C-4.33 4.67 -4.66 4.34 -5 4 C-5.226875 4.61875 -5.45375 5.2375 -5.6875 5.875 C-7 8 -7 8 -9.3125 9.375 C-12.58985548 10.13717569 -14.05633745 9.5138836 -17 8 C-17 7.67 -17 7.34 -17 7 C-15.35 7 -13.7 7 -12 7 C-12 6.01 -12 5.02 -12 4 C-4.71428571 -0.57142857 -4.71428571 -0.57142857 0 0 Z " fill="#113543" transform="translate(115,178)"/>
<path d="M0 0 C1.134375 0.020625 2.26875 0.04125 3.4375 0.0625 C3.7675 1.7125 4.0975 3.3625 4.4375 5.0625 C2.1275 5.0625 -0.1825 5.0625 -2.5625 5.0625 C-2.2325 5.7225 -1.9025 6.3825 -1.5625 7.0625 C0.0875 7.0625 1.7375 7.0625 3.4375 7.0625 C3.4375 7.7225 3.4375 8.3825 3.4375 9.0625 C0.5625 9.1875 0.5625 9.1875 -2.5625 9.0625 C-4.5625 7.0625 -4.5625 7.0625 -4.75 4 C-4.4768176 -0.27985756 -4.4104386 0.07737612 0 0 Z " fill="#274656" transform="translate(118.5625,138.9375)"/>
<path d="M0 0 C0.77734375 1.703125 0.77734375 1.703125 1 4 C-0.87109375 6.359375 -0.87109375 6.359375 -3.4375 8.75 C-4.70400391 9.94882813 -4.70400391 9.94882813 -5.99609375 11.171875 C-6.65738281 11.77515625 -7.31867188 12.3784375 -8 13 C-8.66 12.67 -9.32 12.34 -10 12 C-9.40716913 8.39428893 -7.97258223 6.45570562 -5.5625 3.75 C-4.94503906 3.04359375 -4.32757813 2.3371875 -3.69140625 1.609375 C-2 0 -2 0 0 0 Z " fill="#22333B" transform="translate(93,57)"/>
<path d="M0 0 C2.54281669 2.54281669 2.83163405 4.52643671 3.6875 8 C3.95949219 9.0725 4.23148437 10.145 4.51171875 11.25 C5 14 5 14 4 16 C2.68 16.33 1.36 16.66 0 17 C0 11.39 0 5.78 0 0 Z " fill="#475761" transform="translate(115,95)"/>
<path d="M0 0 C-0.51776621 4.10447392 -2.64627444 5.95699523 -5.5625 8.75 C-6.80193359 9.94882812 -6.80193359 9.94882812 -8.06640625 11.171875 C-8.70449219 11.77515625 -9.34257813 12.3784375 -10 13 C-10.66 12.67 -11.32 12.34 -12 12 C-10.53033642 8.60140297 -8.61962486 6.35036291 -6 3.75 C-5.29875 3.04359375 -4.5975 2.3371875 -3.875 1.609375 C-2 0 -2 0 0 0 Z " fill="#1B2838" transform="translate(71,54)"/>
<path d="M0 0 C0.33 0.66 0.66 1.32 1 2 C2.98 2 4.96 2 7 2 C4.20283196 5.29078593 0.80471422 7.06305458 -3 9 C-3.66 8.67 -4.32 8.34 -5 8 C-4.67 6.68 -4.34 5.36 -4 4 C-4.66 3.67 -5.32 3.34 -6 3 C-2.25 0 -2.25 0 0 0 Z " fill="#0C2936" transform="translate(150,156)"/>
<path d="M0 0 C2.64 0.33 5.28 0.66 8 1 C8.5625 2.9375 8.5625 2.9375 9 5 C8 6 8 6 6.15234375 6.09765625 C4.1015625 6.06510417 2.05078125 6.03255208 0 6 C0 4 0 2 0 0 Z " fill="#0E2834" transform="translate(91,101)"/>
<path d="M0 0 C0.99 0.66 1.98 1.32 3 2 C2.01 2.99 1.02 3.98 0 5 C0.66 5.66 1.32 6.32 2 7 C0.3125 8.125 0.3125 8.125 -2 9 C-4.75 8.125 -4.75 8.125 -7 7 C-7 6.01 -7 5.02 -7 4 C-4.69 2.68 -2.38 1.36 0 0 Z " fill="#163342" transform="translate(40,44)"/>
<path d="M0 0 C-0.33 0.99 -0.66 1.98 -1 3 C-1.66 3 -2.32 3 -3 3 C-3 3.66 -3 4.32 -3 5 C-4.32 5 -5.64 5 -7 5 C-7.33 5.99 -7.66 6.98 -8 8 C-9.32 7.67 -10.64 7.34 -12 7 C-12 6.34 -12 5.68 -12 5 C-11.360625 4.896875 -10.72125 4.79375 -10.0625 4.6875 C-9.381875 4.460625 -8.70125 4.23375 -8 4 C-7.67 3.01 -7.34 2.02 -7 1 C-4.52260646 0.09162237 -2.66420516 0 0 0 Z " fill="#113C49" transform="translate(137,166)"/>
<path d="M0 0 C0.556875 0.226875 1.11375 0.45375 1.6875 0.6875 C1.6875 1.3475 1.6875 2.0075 1.6875 2.6875 C3.0075 3.0175 4.3275 3.3475 5.6875 3.6875 C4.40099294 4.38460731 3.10809335 5.06992876 1.8125 5.75 C1.09320313 6.13285156 0.37390625 6.51570313 -0.3671875 6.91015625 C-1.00914063 7.16667969 -1.65109375 7.42320313 -2.3125 7.6875 C-2.9725 7.3575 -3.6325 7.0275 -4.3125 6.6875 C-3.9825 5.6975 -3.6525 4.7075 -3.3125 3.6875 C-4.6325 3.3575 -5.9525 3.0275 -7.3125 2.6875 C-2.88173077 -0.38942308 -2.88173077 -0.38942308 0 0 Z " fill="#092735" transform="translate(87.3125,19.3125)"/>
<path d="M0 0 C0.66 0.66 1.32 1.32 2 2 C1.625 4.625 1.625 4.625 1 7 C-0.32 7 -1.64 7 -3 7 C-3 8.32 -3 9.64 -3 11 C-3.99 11 -4.98 11 -6 11 C-5.67 9.02 -5.34 7.04 -5 5 C-4.01 4.67 -3.02 4.34 -2 4 C-0.79117904 1.99983534 -0.79117904 1.99983534 0 0 Z " fill="#3C6C76" transform="translate(94,137)"/>
<path d="M0 0 C1.03125 0.33 2.0625 0.66 3.125 1 C6.48426709 1.9715192 9.49106202 2.17116771 13 2 C13 2.66 13 3.32 13 4 C12.06027344 4.09087891 12.06027344 4.09087891 11.1015625 4.18359375 C10.28429687 4.26738281 9.46703125 4.35117188 8.625 4.4375 C7.81289062 4.51871094 7.00078125 4.59992188 6.1640625 4.68359375 C3.95727195 4.89090114 3.95727195 4.89090114 2 6 C-0.625 4.5625 -0.625 4.5625 -3 3 C-2.01 2.67 -1.02 2.34 0 2 C0 1.34 0 0.68 0 0 Z " fill="#0A293A" transform="translate(90,181)"/>
<path d="M0 0 C0.56203125 0.25265625 1.1240625 0.5053125 1.703125 0.765625 C-2.55728726 4.52916536 -6.81536411 8.26444462 -11.296875 11.765625 C-11.296875 7.71760041 -9.84694658 6.85182654 -7.046875 4.015625 C-6.25796875 3.19578125 -5.4690625 2.3759375 -4.65625 1.53125 C-2.296875 -0.234375 -2.296875 -0.234375 0 0 Z " fill="#E7E8E9" transform="translate(113.296875,53.234375)"/>
<path d="M0 0 C0.33 0 0.66 0 1 0 C1 4.62 1 9.24 1 14 C-0.32 13.67 -1.64 13.34 -3 13 C-2.69128878 11.20767663 -2.37790936 9.41615679 -2.0625 7.625 C-1.88847656 6.62726563 -1.71445313 5.62953125 -1.53515625 4.6015625 C-1 2 -1 2 0 0 Z " fill="#15212D" transform="translate(131,98)"/>
<path d="M0 0 C0 3 0 3 -1.125 4.625 C-3.64613093 6.47382935 -5.93350175 6.65927797 -9 7 C-8.39816251 4.97954558 -7.72693904 2.97888961 -7 1 C-4.53721199 -0.231394 -2.7204945 -0.07159196 0 0 Z " fill="#153C49" transform="translate(148,159)"/>
<path d="M0 0 C0.99 0.66 1.98 1.32 3 2 C2.34 2 1.68 2 1 2 C1.33 3.32 1.66 4.64 2 6 C0.02 6.33 -1.96 6.66 -4 7 C-4.33 5.68 -4.66 4.36 -5 3 C-3.35 2.01 -1.7 1.02 0 0 Z " fill="#133543" transform="translate(155,152)"/>
<path d="M0 0 C0.33 0.66 0.66 1.32 1 2 C1.66 2 2.32 2 3 2 C3.33 1.34 3.66 0.68 4 0 C4 0.99 4 1.98 4 3 C6.64 3 9.28 3 12 3 C12 3.33 12 3.66 12 4 C-0.66970387 5.33257403 -0.66970387 5.33257403 -6 4 C-6 3.67 -6 3.34 -6 3 C-4.02 3 -2.04 3 0 3 C0 2.01 0 1.02 0 0 Z " fill="#37515C" transform="translate(127,109)"/>
<path d="M0 0 C1.32 0.33 2.64 0.66 4 1 C3.67 3.97 3.34 6.94 3 10 C1.02 9.34 -0.96 8.68 -3 8 C-2.319375 7.236875 -1.63875 6.47375 -0.9375 5.6875 C0.0215625 4.3571875 0.0215625 4.3571875 1 3 C0.67 2.01 0.34 1.02 0 0 Z " fill="#213C49" transform="translate(82,84)"/>
<path d="M0 0 C0.99 0.33 1.98 0.66 3 1 C2.24172908 2.17487036 1.46792245 3.33972592 0.6875 4.5 C0.25824219 5.1496875 -0.17101562 5.799375 -0.61328125 6.46875 C-1.07089844 6.9740625 -1.52851562 7.479375 -2 8 C-5 8 -5 8 -7 7 C-4.69 4.69 -2.38 2.38 0 0 Z " fill="#001C33" transform="translate(73,68)"/>
<path d="M0 0 C1.32 0.33 2.64 0.66 4 1 C1.36 3.64 -1.28 6.28 -4 9 C-4.66 8.67 -5.32 8.34 -6 8 C-2.25 2.25 -2.25 2.25 0 0 Z " fill="#213C46" transform="translate(116,61)"/>
<path d="M0 0 C0.99 0.99 1.98 1.98 3 3 C0.03 5.475 0.03 5.475 -3 8 C-3.66 7.01 -4.32 6.02 -5 5 C-3.35 3.35 -1.7 1.7 0 0 Z " fill="#36424B" transform="translate(97,62)"/>
<path d="M0 0 C3.68754757 0.49831724 5.60490662 1.10067643 8 4 C6.02 4.99 6.02 4.99 4 6 C3.67 5.01 3.34 4.02 3 3 C1.68 3 0.36 3 -1 3 C-0.67 2.01 -0.34 1.02 0 0 Z " fill="#103C49" transform="translate(48,157)"/>
<path d="M0 0 C0.66 0.99 1.32 1.98 2 3 C-0.61514317 5.12038635 -3.19637616 7.13091744 -6 9 C-6.99 8.67 -7.98 8.34 -9 8 C-8.43410156 7.50628906 -7.86820312 7.01257813 -7.28515625 6.50390625 C-6.55167969 5.86324219 -5.81820312 5.22257812 -5.0625 4.5625 C-4.33160156 3.92441406 -3.60070312 3.28632812 -2.84765625 2.62890625 C-1.87860647 1.77458541 -0.91348825 0.91348825 0 0 Z " fill="#04182A" transform="translate(82,67)"/>
<path d="M0 0 C0.66 0.33 1.32 0.66 2 1 C1.60196439 3.88575819 1.20990931 4.82189513 -1.0625 6.75 C-1.701875 7.1625 -2.34125 7.575 -3 8 C-3.66 7.01 -4.32 6.02 -5 5 C-3.35 3.35 -1.7 1.7 0 0 Z " fill="#2F3C47" transform="translate(58,65)"/>
<path d="M0 0 C1.65 0 3.3 0 5 0 C5 0.99 5 1.98 5 3 C2.5 5.1875 2.5 5.1875 0 7 C-0.66 6.67 -1.32 6.34 -2 6 C-2 5.01 -2 4.02 -2 3 C-1.34 3 -0.68 3 0 3 C0 2.01 0 1.02 0 0 Z " fill="#163D4A" transform="translate(169,144)"/>
<path d="M0 0 C0 3 0 3 -1.5 4.6875 C-1.995 5.120625 -2.49 5.55375 -3 6 C-4.32 5.34 -5.64 4.68 -7 4 C-7 3.01 -7 2.02 -7 1 C-4.53721199 -0.231394 -2.7204945 -0.07159196 0 0 Z " fill="#193D4A" transform="translate(61,35)"/>
<path d="M0 0 C2.31 0.33 4.62 0.66 7 1 C5.25 3.0625 5.25 3.0625 3 5 C0.75 4.75 0.75 4.75 -1 4 C-0.67 2.68 -0.34 1.36 0 0 Z " fill="#102937" transform="translate(93,89)"/>
<path d="M0 0 C2.31 0.33 4.62 0.66 7 1 C5.25 3.0625 5.25 3.0625 3 5 C0.75 4.75 0.75 4.75 -1 4 C-0.67 2.68 -0.34 1.36 0 0 Z " fill="#102937" transform="translate(70,89)"/>
<path d="M0 0 C0.99 0.33 1.98 0.66 3 1 C-0.12621626 4.39417765 -2.56541027 6.6062718 -7 8 C-6.02133662 6.85373678 -5.04205413 5.70800212 -4.0625 4.5625 C-3.51722656 3.92441406 -2.97195312 3.28632812 -2.41015625 2.62890625 C-1.63204305 1.73008851 -0.84063472 0.84063472 0 0 Z " fill="#081F32" transform="translate(91,68)"/>
<path d="M0 0 C0.66 0.99 1.32 1.98 2 3 C1.07213211 4.00894372 0.13231567 5.00690907 -0.8125 6 C-1.59560547 6.8353125 -1.59560547 6.8353125 -2.39453125 7.6875 C-4 9 -4 9 -7 9 C-7 8.34 -7 7.68 -7 7 C-5.34614767 5.65080468 -3.678298 4.31866272 -2 3 C-1.34 2.01 -0.68 1.02 0 0 Z " fill="#DCDEDF" transform="translate(61,66)"/>
<path d="M0 0 C0.99 0.309375 1.98 0.61875 3 0.9375 C6.97731122 2.08433207 10.88767379 2.56712356 15 3 C15 3.33 15 3.66 15 4 C5.14270869 5.58919293 5.14270869 5.58919293 1 3 C0.67 2.01 0.34 1.02 0 0 Z " fill="#0A1D2A" transform="translate(84,110)"/>
<path d="M0 0 C0.66 0 1.32 0 2 0 C1.50168276 3.68754757 0.89932357 5.60490662 -2 8 C-2.66 7.67 -3.32 7.34 -4 7 C-2.92598892 4.08482708 -2.22189824 2.22189824 0 0 Z " fill="#11273A" transform="translate(113,54)"/>
<path d="M0 0 C1.134375 0.020625 2.26875 0.04125 3.4375 0.0625 C3.4375 0.7225 3.4375 1.3825 3.4375 2.0625 C2.0453125 2.2171875 2.0453125 2.2171875 0.625 2.375 C-2.59504358 3.0695192 -3.58829865 3.53990939 -5.5625 6.0625 C-4.48849278 0.07874549 -4.48849278 0.07874549 0 0 Z " fill="#0E2C40" transform="translate(101.5625,151.9375)"/>
<path d="M0 0 C3.0625 0.125 3.0625 0.125 5.0625 1.125 C5.0625 1.785 5.0625 2.445 5.0625 3.125 C2.0925 3.125 -0.8775 3.125 -3.9375 3.125 C-4.2675 4.115 -4.5975 5.105 -4.9375 6.125 C-3.86768142 0.16458219 -3.86768142 0.16458219 0 0 Z " fill="#052239" transform="translate(80.9375,133.875)"/>
<path d="M0 0 C0.66 0.33 1.32 0.66 2 1 C0.98545548 3.5363613 0.3146444 4.79351461 -2 6.3125 C-2.66 6.539375 -3.32 6.76625 -4 7 C-4.66 6.67 -5.32 6.34 -6 6 C-4.02 4.02 -2.04 2.04 0 0 Z " fill="#192E42" transform="translate(89,52)"/>
<path d="M0 0 C0 0.99 0 1.98 0 3 C-1.98 3.99 -1.98 3.99 -4 5 C-4.99 4.34 -5.98 3.68 -7 3 C-7 2.34 -7 1.68 -7 1 C-4.53721199 -0.231394 -2.7204945 -0.07159196 0 0 Z " fill="#1B3D4A" transform="translate(115,178)"/>
<path d="M0 0 C0.3403125 0.9590625 0.3403125 0.9590625 0.6875 1.9375 C1.85250896 4.27193661 1.85250896 4.27193661 4.625 4.75 C5.40875 4.8325 6.1925 4.915 7 5 C6.67 5.66 6.34 6.32 6 7 C3.625 7.125 3.625 7.125 1 7 C0.34 6.34 -0.32 5.68 -1 5 C-0.625 2.375 -0.625 2.375 0 0 Z " fill="#09283D" transform="translate(97,159)"/>
<path d="M0 0 C1.98 0.495 1.98 0.495 4 1 C3.67 2.32 3.34 3.64 3 5 C1.68 4.67 0.36 4.34 -1 4 C-0.67 2.68 -0.34 1.36 0 0 Z " fill="#79B6B9" transform="translate(99,159)"/>
<path d="M0 0 C0.33 1.32 0.66 2.64 1 4 C-2 6 -2 6 -4.6875 5.625 C-5.450625 5.41875 -6.21375 5.2125 -7 5 C-7 4.34 -7 3.68 -7 3 C-4.69 3 -2.38 3 0 3 C0 2.01 0 1.02 0 0 Z " fill="#69A0A5" transform="translate(123,141)"/>
<path d="M0 0 C1.98 0.495 1.98 0.495 4 1 C3.67 2.32 3.34 3.64 3 5 C1.68 4.67 0.36 4.34 -1 4 C-0.67 2.68 -0.34 1.36 0 0 Z " fill="#689FA4" transform="translate(124,135)"/>
<path d="M0 0 C0.99 0.33 1.98 0.66 3 1 C2.3125 2.9375 2.3125 2.9375 1 5 C-1.625 5.75 -1.625 5.75 -4 6 C-1.125 1.125 -1.125 1.125 0 0 Z " fill="#162E40" transform="translate(52,71)"/>
<path d="M0 0 C3.48331435 3.01887244 4.79157144 5.56909529 6 10 C5.34 9.67 4.68 9.34 4 9 C4 8.34 4 7.68 4 7 C3.01 6.67 2.02 6.34 1 6 C0.67 4.02 0.34 2.04 0 0 Z " fill="#162B38" transform="translate(143,64)"/>
<path d="M0 0 C0.66 0.33 1.32 0.66 2 1 C0.63016497 4.16115776 0.0109362 4.9927092 -3 7 C-3.66 6.34 -4.32 5.68 -5 5 C-3.35 3.35 -1.7 1.7 0 0 Z " fill="#071926" transform="translate(72,59)"/>
<path d="M0 0 C1.98 0 3.96 0 6 0 C6.33 1.65 6.66 3.3 7 5 C4.69 5 2.38 5 0 5 C0 4.67 0 4.34 0 4 C1.65 4 3.3 4 5 4 C3.74458443 1.48916886 2.49936512 1.12874554 0 0 Z " fill="#051322" transform="translate(116,139)"/>
<path d="M0 0 C0.66 0 1.32 0 2 0 C2 1.32 2 2.64 2 4 C1.34 4 0.68 4 0 4 C-0.33 4.66 -0.66 5.32 -1 6 C-1.99 6 -2.98 6 -4 6 C-2.84826645 3.53199953 -1.95216435 1.95216435 0 0 Z " fill="#192A3B" transform="translate(62,69)"/>
<path d="M0 0 C-0.25 1.875 -0.25 1.875 -1 4 C-3.0625 5.25 -3.0625 5.25 -5 6 C-5 3 -5 3 -3.625 1.3125 C-2 0 -2 0 0 0 Z " fill="#1E2A33" transform="translate(104,58)"/>
<path d="M0 0 C0.66 0.33 1.32 0.66 2 1 C2 4 2 4 0.75 5.75 C-1 7 -1 7 -3.1875 6.6875 C-3.785625 6.460625 -4.38375 6.23375 -5 6 C-4.01 5.67 -3.02 5.34 -2 5 C-2 3.68 -2 2.36 -2 1 C-1.34 0.67 -0.68 0.34 0 0 Z " fill="#133746" transform="translate(68,30)"/>
<path d="M0 0 C2.31 0.66 4.62 1.32 7 2 C3.77208445 4.1519437 2.71599191 4.20086443 -1 4 C-0.67 2.68 -0.34 1.36 0 0 Z " fill="#0A2837" transform="translate(64,99)"/>
<path d="M0 0 C2.1875 0.3125 2.1875 0.3125 4 1 C3.34 1 2.68 1 2 1 C1.71125 1.639375 1.4225 2.27875 1.125 2.9375 C0 5 0 5 -2 6 C-2.33 5.01 -2.66 4.02 -3 3 C-1.75 1.4375 -1.75 1.4375 0 0 Z " fill="#CCCFD1" transform="translate(89,56)"/>
<path d="M0 0 C0.66 0.66 1.32 1.32 2 2 C3.31747324 2.69748583 4.64914193 3.36959957 6 4 C4.35 4.66 2.7 5.32 1 6 C0 5 0 5 -0.0625 2.4375 C-0.041875 1.633125 -0.02125 0.82875 0 0 Z " fill="#092938" transform="translate(32,49)"/>
<path d="M0 0 C0.66 0.66 1.32 1.32 2 2 C3.31747324 2.69748583 4.64914193 3.36959957 6 4 C4.35 4.66 2.7 5.32 1 6 C0 5 0 5 -0.0625 2.4375 C-0.041875 1.633125 -0.02125 0.82875 0 0 Z " fill="#092937" transform="translate(48,40)"/>
<path d="M0 0 C0.33 0 0.66 0 1 0 C1.06058594 0.68707031 1.12117188 1.37414062 1.18359375 2.08203125 C1.26738281 2.98308594 1.35117188 3.88414063 1.4375 4.8125 C1.51871094 5.70582031 1.59992188 6.59914063 1.68359375 7.51953125 C1.93489767 10.12743559 1.93489767 10.12743559 3 13 C2.01 13 1.02 13 0 13 C0 8.71 0 4.42 0 0 Z " fill="#20424D" transform="translate(93,25)"/>
<path d="M0 0 C-0.66 1.65 -1.32 3.3 -2 5 C-3.65 4.67 -5.3 4.34 -7 4 C-7 3.01 -7 2.02 -7 1 C-4.53721199 -0.231394 -2.7204945 -0.07159196 0 0 Z " fill="#1C3C4A" transform="translate(93,17)"/>
<path d="M0 0 C0.33 0.99 0.66 1.98 1 3 C-0.8125 4.0625 -0.8125 4.0625 -3 5 C-3.99 4.67 -4.98 4.34 -6 4 C-5.34 4 -4.68 4 -4 4 C-3.67 3.01 -3.34 2.02 -3 1 C-2.01 0.67 -1.02 0.34 0 0 Z " fill="#244553" transform="translate(100,90)"/>
<path d="M0 0 C0.33 0.99 0.66 1.98 1 3 C-0.8125 4.0625 -0.8125 4.0625 -3 5 C-3.99 4.67 -4.98 4.34 -6 4 C-5.34 4 -4.68 4 -4 4 C-3.67 3.01 -3.34 2.02 -3 1 C-2.01 0.67 -1.02 0.34 0 0 Z " fill="#244653" transform="translate(77,90)"/>
<path d="M0 0 C0.99 0.33 1.98 0.66 3 1 C1.6875 3 1.6875 3 0 5 C-0.99 5 -1.98 5 -3 5 C-1.125 1.125 -1.125 1.125 0 0 Z " fill="#D4D7D8" transform="translate(93,70)"/>
<path d="M0 0 C1.32 0.99 2.64 1.98 4 3 C1.625 4.5625 1.625 4.5625 -1 6 C-1.66 5.67 -2.32 5.34 -3 5 C-2.01 3.35 -1.02 1.7 0 0 Z " fill="#092735" transform="translate(70,30)"/>
<path d="M0 0 C0.33 0 0.66 0 1 0 C1 2.64 1 5.28 1 8 C0.01 8.33 -0.98 8.66 -2 9 C-2.66 8.34 -3.32 7.68 -4 7 C-3.34 6.67 -2.68 6.34 -2 6 C-2 5.01 -2 4.02 -2 3 C-1.34 3 -0.68 3 0 3 C0 2.01 0 1.02 0 0 Z " fill="#1B3A47" transform="translate(79,22)"/>
</svg>
